<?xml version="1.0" encoding="utf-8"?>
<!-- Generator: Adobe Illustrator 21.0.2, SVG Export Plug-In . SVG Version: 6.00 Build 0)  -->
<svg version="1.1" xmlns="http://www.w3.org/2000/svg" xmlns:xlink="http://www.w3.org/1999/xlink" x="0px" y="0px"
	 viewBox="0 0 226.8 226.8" style="enable-background:new 0 0 226.8 226.8;" xml:space="preserve">
<style type="text/css">
	.st0{opacity:0.6;fill:url(#SVGID_1_);}
	.st1{opacity:0.3;fill:url(#SVGID_2_);}
	.st2{fill:#010101;}
	.st3{opacity:0.45;}
	.st4{fill:url(#SVGID_3_);}
	.st5{fill:url(#SVGID_4_);}
	.st6{fill:url(#SVGID_5_);}
	.st7{fill:url(#SVGID_6_);}
	.st8{fill:url(#SVGID_7_);}
	.st9{fill:url(#SVGID_8_);}
	.st10{fill:url(#SVGID_9_);}
	.st11{fill:url(#SVGID_10_);}
	.st12{fill:url(#SVGID_11_);}
	.st13{fill:url(#SVGID_12_);}
	.st14{fill:url(#SVGID_13_);}
	.st15{fill:url(#SVGID_14_);}
	.st16{fill:url(#SVGID_15_);}
	.st17{fill:url(#SVGID_16_);}
	.st18{fill:url(#SVGID_17_);}
	.st19{fill:url(#SVGID_18_);}
	.st20{fill:url(#SVGID_19_);}
	.st21{fill:url(#SVGID_20_);}
	.st22{fill:url(#SVGID_21_);}
	.st23{fill:url(#SVGID_22_);}
	.st24{fill:url(#SVGID_23_);}
	.st25{fill:#D9B14D;}
	.st26{opacity:0.8;}
	.st27{fill:url(#SVGID_24_);}
	.st28{fill:url(#SVGID_25_);}
	.st29{fill:url(#SVGID_26_);}
	.st30{fill:url(#SVGID_27_);}
	.st31{fill:url(#SVGID_28_);}
	.st32{fill:url(#SVGID_29_);}
	.st33{fill:url(#SVGID_30_);}
	.st34{fill:url(#SVGID_31_);}
	.st35{fill:url(#SVGID_32_);}
	.st36{fill:url(#SVGID_33_);}
	.st37{fill:url(#SVGID_34_);}
	.st38{fill:url(#SVGID_35_);}
	.st39{fill:url(#SVGID_36_);}
	.st40{fill:url(#SVGID_37_);}
	.st41{fill:url(#SVGID_38_);}
	.st42{fill:url(#SVGID_39_);}
	.st43{fill:url(#SVGID_40_);}
	.st44{fill:url(#SVGID_41_);}
	.st45{fill:url(#SVGID_42_);}
	.st46{fill:url(#SVGID_43_);}
	.st47{fill:url(#SVGID_44_);}
	.st48{fill:url(#SVGID_45_);}
	.st49{fill:url(#SVGID_46_);}
	.st50{fill:url(#SVGID_47_);}
	.st51{fill:url(#SVGID_48_);}
	.st52{fill:url(#SVGID_49_);}
	.st53{fill:url(#SVGID_50_);}
	.st54{fill:url(#SVGID_51_);}
	.st55{fill:url(#SVGID_52_);}
	.st56{fill:url(#SVGID_53_);}
	.st57{fill:url(#SVGID_54_);}
	.st58{fill:url(#SVGID_55_);}
	.st59{fill:url(#SVGID_56_);}
	.st60{fill:url(#SVGID_57_);}
	.st61{fill:url(#SVGID_58_);}
	.st62{fill:url(#SVGID_59_);}
	.st63{fill:url(#SVGID_60_);}
	.st64{fill:url(#SVGID_61_);}
	.st65{fill:url(#SVGID_62_);}
	.st66{fill:url(#SVGID_63_);}
	.st67{fill:url(#SVGID_64_);}
	.st68{fill:url(#SVGID_65_);}
	.st69{fill:url(#SVGID_66_);}
	.st70{fill:#030303;}
	.st71{fill:#B7A151;}
	.st72{fill:#F3EAB3;}
	.st73{fill:#894B29;}
	.st74{fill:#B66931;}
	.st75{fill:#E6D279;}
	.st76{fill:#C88632;}
	.st77{fill:#F5EDDA;}
	.st78{fill:#A76F48;}
	.st79{fill:#553228;}
	.st80{fill:#814830;}
	.st81{fill:#FAF4E3;}
	.st82{fill:#D6A673;}
	.st83{fill:#BF8D5F;}
	.st84{fill:#F6E0BC;}
	.st85{fill:#E5BF95;}
	.st86{fill:#020202;}
	.st87{fill:#FBFCFC;}
	.st88{fill:#2C457F;}
	.st89{fill:#807F80;}
	.st90{fill:#BBB9BA;}
	.st91{fill-rule:evenodd;clip-rule:evenodd;fill:#E01F27;}
	.st92{fill:#E01F27;}
	.st93{fill:#010101;stroke:#010101;stroke-width:3;}
	.st94{fill:#FFFFFF;}
	.st95{fill:#484848;}
</style>
<g id="FreeVector.com_BG">
</g>
<g id="Visit_FreeVector.com">
</g>
<g id="Starburst1">
</g>
<g id="Starburst2">
</g>
<g id="Stars">
</g>
<g id="_x31_">
</g>
<g id="_x32_">
</g>
<g id="_x33_">
	<g>
		<g>
			<path class="st70" d="M115.4,18.6c-2.1-0.3-4.1-0.1-6.2-0.3c-1.7-0.1-3.5,0.3-5.2,0.5c-0.6,0.1-1.1,0.6-1.7,0.8
				c-3.5,1.1-6.4,3.6-9.9,4.8c-4.8,1.7-8.5,5.6-11.6,9.5c-1.2,1.4-2.2,3-3.5,4.3c-4.3,4.4-10.6,6.1-14.8,10.6
				c-1.1,1.1-1.8,2.4-2.6,3.7c-5.8,8.4-11,17.2-14.9,26.7c-0.9,2.4-2.2,4.6-2.8,7c-1.7,5.6-2,11.5-1.9,17.3c-0.1,5,0.2,10-0.2,14.9
				c-0.1,2.1-0.6,4.2-0.4,6.3c0.3,5.9,2.7,11.3,3.9,17c0.7,4.4-2.8,8.3-1.7,12.7c1.6,5.2,0.4,10.8,2.3,15.9c0.5,1.7,1.7,2.9,2.8,4.2
				c2.1,2.3,4.6,4.2,6.7,6.5c1.2,1.1,2.1,2.5,3.1,3.7c3.6,4.2,8,7.7,11.9,11.6c3.9,3.3,9.1,4.1,13.9,5.4c9.8,3,19.9,5.5,30.1,6.7
				c4.7,0.3,9.4-1.1,13.6-3c4.8-2.3,9.3-5.2,13.9-7.8c4.4-2.2,9.4-2.8,14.3-2.9c2,0,3.7-1.2,5-2.7c2.7-3.2,5.1-6.5,8-9.5
				c1.3-1.4,2.7-2.6,3.5-4.3c2.4-4.5,1.9-10,4.2-14.6c1.6-3.6,4.4-6.5,5.8-10.2c1.4-3.8,1.7-7.8,2.6-11.7c0.5-1.9,1-3.9,1.7-5.7
				c0.7-2.1,1.6-4.2,1.7-6.4c0.2-1.7-0.3-3.4-0.5-5.1c-0.4-4.5-0.2-9.2-2.2-13.3c-0.6-1.1-0.9-2.3-1.4-3.4c-1.7-3.5-4.5-6.2-6.2-9.7
				c-0.6-1.2-1-2.4-1.4-3.6c-2.1-5.5-4.7-10.8-6.7-16.4c-1.3-4.4-1.9-9-3.9-13.1c-3.9-7.8-6.3-16.3-10.8-23.8
				c-3.6-5.6-9.7-8.6-14.8-12.5c-4.2-4.1-9.5-7-15.1-8.7C121.1,19.3,118.3,18.7,115.4,18.6z"/>
		</g>
		<g>
			<path class="st78" d="M119.1,20.5c-4.2-0.3-8.3-1.3-12.4-1.1c-0.9,0.2-1.7,0.5-2.5,0.8c-5,2.3-10,4.7-14.8,7.4
				c-5.1,3.2-7.9,8.6-12.2,12.6c-4.2,4-10.2,5.6-13.8,10.1c0.6,0.3,1.2,0.6,1.7,0.8c3.1-2.9,6.7-5.2,10.4-7.3
				c2.7-2.9,5.4-5.9,8.3-8.6c2.3-1.8,4.9-3.1,7.5-4.4c0.7-0.4,1.4-0.7,2.1-1.1c-0.6-0.3-1.3-0.5-2-0.7c0.3-0.3,0.7-0.6,1.2-0.9
				c4.7-2.8,9.7-4.9,14.8-7c1.5,0.1,2.9,0.2,4.4,0.3c3.2,0.4,6.5,0.5,9.7,1c4.1,0.5,7.9,2.3,11.1,4.9c1.4,1.1,2.7,2.4,4.1,3.5
				c4.4,3.5,9.5,6,13.4,10.2c1.6,1.7,2.7,3.7,4,5.6c0.9,1.3,1.2,2.9,1.8,4.3c2.8,9.3,7.6,17.9,9.8,27.3c1.6,6.2,5.2,11.8,6.1,18.2
				c-3.2-3.5-4.9-8.1-7.4-12.1c-0.1,1.9,0.5,3.8,1.3,5.4c1.6,3.5,2.9,7.3,3,11.2c-3.3-3.8-5.7-8.3-7.1-13.1c-0.6-0.8-1.3-1.6-2-2.4
				c0.2,1.7,0.8,3.4,0.9,5.2c0,1,0.1,2.1-0.5,3c0.6,1.1,1.6,2,2.4,3c1.7,1.9,3.2,4,4.6,6.1c1.4,2.4,2.5,5.1,4.7,7
				c-0.7-2.9-1.9-5.6-1.8-8.6c1.1,0.2,2.2,0.6,3.2,1.2c0.3,0.6,0.1,1.3,0.1,2c-0.1,2.7,0.9,5.4,2.4,7.7c0.3,0.4,0.5,0.9,0.5,1.4
				c0.2-0.6,0.4-1.2,0.5-1.9c-0.3-1.1-0.5-2.3-0.7-3.4c0.4,0.6,0.7,1.1,1,1.8c0.6,0,1.1,0,1.7,0c0.9,2.5,1.7,5.2,3.9,6.9
				c-0.1-3.5-1.4-6.7-2.3-10c-0.2-0.5-0.4-0.9-0.7-1.3l0,0c-0.8,0.4-1.6,0-2.3-0.4c-1.3-0.9-1.9-2.4-2.8-3.5c-1.1-1.3-2-2.9-1.9-4.6
				c0-1,0.4-1.9,0.9-2.8c-2.3-6.8-5.8-13.1-7.6-20c-0.4-1.3-0.6-2.7-1-4c-2.4-7.3-6.2-14.1-8.7-21.3c-1.5-3.5-2.7-7.3-5.4-10
				c-3.6-3.7-8.3-6.1-12.3-9.2c-1.9-1.4-3.4-3.2-5.3-4.5C128.9,22.5,124.1,20.7,119.1,20.5z"/>
			<path class="st78" d="M136.3,54.4c-1.1-0.2-2.2-0.7-3.3-0.1c-3.5,1.7-7,3.7-9.4,6.9c-1.4,1.8-2.9,3.9-3,6.3
				c-0.1,2.9-0.8,5.7-1.8,8.3c-0.7,2.1-1.3,4.2-1.7,6.4c2.2-1,4-2.9,6.3-3.8c1-1.5,2.3-2.8,3.2-4.4c0.2-1,0.4-2,0.5-3.1
				c-0.3-0.6-0.8-1.1-1.2-1.6c-0.1-0.2-0.4-0.5-0.5-0.7c0.4-2.9,1.2-5.9,3.2-8c-0.6,0-1.2-0.1-1.8-0.2c2.1-1.9,4.7-3.3,7.5-3.4
				c0.4-0.2,0.7-0.2,1.1-0.2c2-0.1,4,0.2,5.9,0.6c0.5,0.7,1,1.5,1.4,2.2c1.3,0.8,2.5,1.5,3.8,2.2c0.8-0.3,1.5-0.6,2.2-1
				c-1.4-1.4-3-2.7-4.4-4.1c1-0.3,2.1-0.4,3.1-0.8c-1-0.4-2-0.8-3-1.2C142,55.9,139,55,136.3,54.4z"/>
			<path class="st78" d="M160,73.2c-1.1-3.6-2.9-6.9-5.4-9.8c-0.4,0-0.8,0.1-1.2,0.1c1.9,3.4,3,7.6,6.4,9.8L160,73.2z"/>
			<path class="st78" d="M157.5,73.8c0.4-1.8-1.1-4-3.1-3.7c0.7,1.7,1.4,3.3,2.6,4.7C157.4,74.9,157.4,74.2,157.5,73.8z"/>
			<path class="st78" d="M70.5,77.8c-0.7-0.2-1.4-0.5-2.2-0.7c-0.2,4.2-1.2,8.6-0.1,12.8c4-2.7,9-1.2,13.3-2.3
				c1.1-0.5,2.3-0.7,3.6-0.8c0.5-0.2,1-0.5,1.5-0.7c-1-0.4-2-0.7-3-1.1c-1.2,1.1-2.9,1.5-4.5,1.1c-0.5-0.1-0.8-0.6-1.2-0.9
				c1.4-0.9,3.2-0.5,4.7-0.6c-1.1-0.5-2.1-1.1-3.2-1.6c-3.5-0.2-6.9,0.3-10.2,1.5C69.4,82.3,69.2,79.8,70.5,77.8z"/>
			<path class="st78" d="M112.7,78.8c-2.5,1.9-3.9,4.7-5.5,7.3c-0.9-0.5-1.8-1-2.6-1.5c-0.1,0.7-0.2,1.4-0.3,2.1
				c0.5,2.4,1.8,4.7,1.6,7.2c-0.1,1.1-0.7,2-1.4,2.8c-0.3-1.4-0.4-2.8-0.8-4.1c-0.5,1-0.9,2-1.2,3c-0.2,0.6-0.5,1.1-0.8,1.7
				c0.6,0.3,1.2,0.6,1.8,0.8c0.5,0.2,1,0.3,1.5,0.4c0.8-1,1.8-1.9,2.6-2.9c-0.3,0.1-0.8,0.2-1.1,0.3c-0.1-2.9-0.3-6,0.8-8.7
				c0.9,0.7,1.8,1.5,2.7,2.2c0.4-0.7,0.9-1.3,1.3-2c1,0.5,1.9,1,2.9,1.4c0.2-0.2,0.4-0.4,0.6-0.6c-0.6-0.8-1.3-1.4-1.7-2.3
				C112.9,83.5,113.2,81.2,112.7,78.8z"/>
			<path class="st78" d="M151.6,89.1c-1.9-2-3.9-4.1-6.1-5.7c-2.7,0.2-5.2,1.2-7.7,2c0.8,0.3,1.6,0.7,2.4,1.1c-1,0.3-2,0.4-3,0.6
				c0.7,1.6,1.4,3.1,2.3,4.6c1.8,1.7,4.5,1.8,6.8,2.3l-0.1-0.3c3.3,0.4,6.5,2.2,8.3,5c0.7,1.1,1,2.4,1.5,3.5
				c0.8,1.8,1.7,3.4,2.7,5.1c1.3,0.2,2.3,1.3,3.2,2.3c1,1.2,1.6,2.6,2.4,4c0.9,0.4,2.2-0.2,2.7,0.8c1.3,1.9,2.7,3.8,4.2,5.5
				c0.7,0,1.5-0.1,2.2-0.1c1.8,2.5,3.1,5.3,5.1,7.6c-0.4-1.5-1.1-2.9-1.7-4.4c-2.3-5.1-5.6-10-10.1-13.4c-0.6-0.8-0.7-1.8-0.9-2.7
				c-0.7-0.7-1.4-1.4-2.2-2c-2.5-0.2-4.4-2.2-5.8-4.1c-2.4-3-4.5-6.1-6.9-9.1c-3,0-5.9-1.2-8.6-2.6c-0.3-0.6-0.6-1.3-0.8-2
				c2.7,1.3,5.4,2.7,8.2,3.9C150.3,90.4,151,89.7,151.6,89.1z"/>
			<path class="st78" d="M90.7,90.7c1-1.7,0.3-3.8-0.3-5.6c-0.3,1.2-0.7,2.4-1.2,3.6c-0.6,1.4-1.5,2.6-2.4,3.8
				c-1.2,1.4-2.4,2.8-3.5,4.2c1.2,0.2,2.5,0.4,3.7,0.7c-1.1,1.5-2.5,2.7-3.8,4.1c-0.3,0.3-0.2,0.8-0.2,1.2c2-1.1,4-2.3,6.2-2.9
				c-0.9,1.7-2.7,2.8-4.3,3.7c-1.7,0.9-3.3,1.8-4.9,2.8c0.8,0,1.5,0.1,2.3,0.1c0,0.1,0.1,0.3,0.1,0.4c0.8-0.7,1.9-0.1,2.8,0
				c1.5-1.4,3.2-2.5,4.6-3.9c0.9-0.8,1.7-1.6,2.6-2.5c-0.5-0.2-1.4-0.2-1.5-0.9c0.1-1.1,1.2-1.6,2.1-2c0-0.2-0.2-0.6-0.2-0.8
				c-1.4,0.2-2.7,0.9-4,1.2c-0.4-0.6-0.7-1.2-1-1.8c0.1-0.1,0.4-0.2,0.6-0.3c-0.2,0-0.5,0.1-0.7,0.1C88.3,94,89.7,92.5,90.7,90.7z"
				/>
			<path class="st78" d="M53,87.7c-1.1,1-1.9,2.2-2.6,3.5c-2,4-2.3,8.4-3.6,12.6c-0.4,1.1-0.5,2.2-1.2,3.2c-0.5-3-0.7-6.1-0.8-9.1
				c-0.6,1.1-0.9,2.3-1,3.6c-0.5,3.6,0.6,7.2,0.9,10.7c0.3,1.3,0.6,2.7,0.6,4.1c1.3,4.2,0.1,8.9,2.2,12.9c0.3-4.6-0.8-9.1-0.6-13.7
				c-0.1-2-0.2-4,0.2-5.9c0.5-3.1,1.7-6.1,2.9-8.9c0.5-1,0.9-2.1,1.5-3.1c0.7,1.2,1.4,2.5,2.1,3.7c0.8-3,0.6-6.1,0.6-9.2
				c-1.1,1.2-1.9,2.7-3,3.8C51.7,93.1,52.5,90.4,53,87.7z"/>
			<path class="st78" d="M128.8,100.3c-2.7-4.5-7.4-7.5-10.2-11.9c-0.5,0.6-0.9,1.3-1.4,2c1.1,2.5,2.2,5.1,3.7,7.4
				c0.2,0.1,0.3,0.1,0.5,0.2c0.7-0.2,1.6-0.6,2.3-0.2C125.4,98.6,127.1,99.6,128.8,100.3z"/>
			<path class="st78" d="M75.7,90.2c-2.2,0.2-4.5,0.2-6.6,1c-1.6,0.6-3.1,1.7-3.7,3.3c-0.6,1.8-1.6,3.4-2.7,5
				c-0.3,0.6-0.6,1.1-0.9,1.7c-0.2-1.1-0.5-2.3-0.7-3.4c-0.8,2.3-1,4.8-1.2,7.3c-1.1,0.1-2.1,0.1-3.2,0.2c-0.2,1.4-0.4,2.7-0.6,4.1
				c0.6-0.2,1.1-0.5,1.6-0.9c1.6-1.1,3.1-2.3,4.8-3.3c0,1.3,0,2.6,0.2,3.9c0.6-0.8,1.1-1.6,1.7-2.4c-0.3-1.2-1.1-2.3-1.3-3.6
				c1-2.5,2.7-4.6,4.9-6.2c0,1.8-0.2,3.6-0.2,5.5c0.6,0.1,1.2,0.2,1.7,0.3c-0.6,1.6-1.3,3.3-2,4.9c0.6,0.1,1.2,0.2,1.8,0.2
				c0.9-0.8,1.6-1.8,2.5-2.6c0,0.7-0.1,1.4-0.3,2.1c0.6-1,1.4-2,1.8-3.1c-0.1-0.7-0.7-1.2-0.9-1.8c0.3-0.8,0.8-1.4,1.2-2.1
				c-1.5-0.7-3-1.3-4.5-2c0-0.1,0-0.2-0.1-0.2C71.1,95.3,73.4,92.8,75.7,90.2z"/>
			<g>
				<path class="st78" d="M153.2,107.8c1.6,0.7,3.3,1.3,5,1.8c0.1,0.5,0.3,1,0.4,1.5c0.2-0.7,0.5-1.5,0.7-2.3
					c1.2,2.8,2.3,5.7,3.8,8.4c-0.2,0.5-0.3,1-0.5,1.4c-1.6-1.9-3.9-3.3-6.3-3.7c0.6,1.4,1.6,2.6,2.3,3.9c1.9,3.2,3.6,6.7,4,10.4
					c-0.8-0.2-1.6-0.3-2.4-0.3c0.5,1.6,0.9,3.3,1.6,4.8c0.3,0.3,0.7,0.7,1,1c-2.2-0.4-4.3-1-6.3-1.7c0.7,1.8,1.5,3.8,1.2,5.8
					c-1.1-1.4-2-2.9-3-4.4c-0.5-0.7-1.5-0.6-2.2-0.9c0.4,1.7,1.1,3.4,1.5,5.1c-2.4-2.4-4.5-5.1-6.4-7.9c-0.4,0.9-0.3,1.9-0.3,2.9
					c-1.6-4-4.6-7.5-8.3-9.7c-0.1,1.1-0.1,2.1-0.2,3.2c-1.3-1-2.6-2-4-3.1c0.7-0.1,1.3-0.2,1.9-0.3c-0.4-1.7-1-3.4-1.4-5.1
					c0.5,0.3,0.9,0.6,1.3,1c2.8,2.3,5.7,4.6,8.7,6.7c1.6,1.1,3.3,2.2,5,3.1c-0.2-2.2-0.4-4.5-1.9-6.3c-4.3-5.8-11-8.9-17-12.6
					c-0.1-0.9-0.4-1.7-0.4-2.6c0.3-0.7,0.8-1.3,1.1-1.9c1.4,0.6,2.8,1,4.2,1.5c-1.3,0.3-2.6,0.3-4,0.5c0.7,1.2,1.7,2.1,2.8,2.9
					c2.9,2,6.4,2.8,9.2,5c2,1.6,3.7,3.6,5.4,5.5c0.4-0.7,0.7-1.5,1-2.2c-0.5-1.2-1.4-2.4-1.2-3.8c0.1-1.9-0.4-4,0.6-5.8
					c-1-1.6-2.3-3-3.8-4.2c0.1,1.5,0.4,2.9,0.7,4.4c-1.1-1-2.4-1.9-3.9-2.4c-2.3-0.9-4.8-1.3-7.1-2c0.8-1.4,1.7-2.7,2.5-4.1
					c1.1,0.3,2.1,0.5,3.2,0.6c-0.8-1.3-1.9-2.3-3-3.4c0.9-0.1,1.9-0.2,2.8-0.4c3.1,2.7,5.3,6.3,8.8,8.4
					C151.4,107.2,152.3,107.6,153.2,107.8z M152.3,118c0.1,2.5,0.8,4.9,1.2,7.4c-0.8-0.2-1.6-0.5-2.3-0.8c0.5,2.4,2,5,4.5,5.7
					c0.4-1.4,0.2-2.9,0.5-4.3c0.5,1,0.9,2,1.7,2.9c0.7,0.8,1.4,1.7,2.2,2.4c-0.6-2.9-1.5-5.9-3-8.5
					C155.9,120.8,154.3,119.1,152.3,118z"/>
			</g>
			<path class="st78" d="M77.2,102.3c-2,2.2-3.7,4.7-5.5,7c-0.1-0.3-0.3-0.6-0.4-0.8c-0.6,1.7-1.3,3.4-2.1,5
				c1.4-0.3,2.9-0.7,4.1-1.7c0.7-0.8,1.2-1.9,1.8-2.7c1.3-2,3-3.7,4.3-5.8C78.6,102.9,77.9,102.6,77.2,102.3z"/>
			<g>
				<path class="st78" d="M95.3,107.5c-2.5,0.9-5.1,1.8-7.2,3.7c3.6-0.1,7.1-0.8,10.6-1.3c0.5,0.6,0.9,1.1,1.4,1.7
					c-1.6,0.8-3.3,1.6-4.9,2.5c1.2,0.4,2.5,0.4,3.7,0.9c-1.8,0.9-3.7,1.6-5.6,2.5c-0.9-0.5-1.9-1-2.8-1.5c0,0,0-0.1,0-0.2
					c1.4-0.9,3-1.6,4.3-2.6c-3,0.1-6,0.9-8.9,1.7c-0.1-1.4,0.3-2.8,0.1-4.2c0.4-1.5,0.6-3.2,1.7-4.3c1.7-1,3.8-1,5.7-1.3
					C94.1,105.9,94.7,106.7,95.3,107.5z M93.8,110.8c-0.3,0.4-0.6,0.8-0.7,1.2c0.4,0.3,0.9,0.5,1.4,0.4c0.5-0.1,0.8-0.7,0.9-1.1
					C95.1,110.8,94.4,110.8,93.8,110.8z"/>
			</g>
			<g>
				<path class="st78" d="M125.6,117.7c-1.2-0.8-2.2-1.8-3.5-2.5c-1.6-0.3-3.3-0.4-4.9-0.6c0.2,1.3,0.6,2.8,1.8,3.4
					c4.1,0.7,8.4,1.1,12,3.4c-1.5,0.5-3,0.9-4.5,1.4c0.1,0.8,0.1,1.7,0.7,2.3c1.3,1.3,2.7,2.5,3.9,4c-0.9,0-1.8,0-2.6-0.2
					c0.4,1.5,1,2.9,1.4,4.3c-1.4-0.7-2.7-1.4-4.1-2.2c-2.4-1.4-4.4-3.4-6.5-5.2c-0.7-0.1-1.5,0.2-2.2,0.3c0.6,1.7,1.3,3.3,2.2,4.8
					c0.7,1.2,0.5,2.6,0.7,3.9c0.4,4.6,0.3,9.2,1.2,13.7c-0.1,2.7-1.2,5.2-1.6,7.9c-0.2,1.5,1.3,2.4,2.2,3.3
					c-0.1-1.1-0.4-2.2-0.5-3.3c-0.1-1.2,0.1-2.5,1.1-3.3c0.7,1.6,1.2,3.2,1.7,4.8c-0.7,1.6-0.7,3.4-0.8,5.1
					c-1.3-1.2-2.8-2.4-4.6-2.5c-0.5-0.7-1-1.5-1-2.4c-0.1-1.7,0.5-3.4,0.6-5.1c0.6-4.7,0-9.5,0.2-14.2c0.1-2.7,0.7-5.5,0-8.2
					c-0.9-1.9-2.5-3.5-3.6-5.3l0-0.1c-3,0.1-6-0.1-9-0.1c-0.2,1.1-0.2,2.2-0.4,3.4c-1.9-1.2-3.7-2.6-5.9-3.1
					c-0.3-0.1-0.7-0.2-1.1-0.1c-1.1,0.3-2.2,0.6-3.3,1.1c0-0.3-0.1-0.6-0.1-0.9c-1.7,0-3.5,0-5.2,0c0.5-0.8,0.8-2.4,2-2.1
					c2,0,4,0.3,6,0.3c0.2-0.9,0.3-1.8,0.5-2.7l0,0.3c3.7-1.4,7.6-0.5,11.4-0.7c1.3-2.2,3.5-3.7,5.6-5.1c-0.7,0.1-1.3,0.2-2,0.2
					c0.2-0.9,0.2-1.9,0.6-2.6c2.9-0.5,5.9-0.3,8.8-0.6c1.5,0.4,2.9,1.3,4.3,2C126,115.3,125.4,116.5,125.6,117.7z M117.1,118.2
					c-1.8-0.3-3.7,0.3-5.3,1.1c0.6,0.4,1.3,0.9,2,1.2c1.2,0,2.5-0.2,3.7-0.1c0.9,0.1,1.8-0.1,2.7-0.2
					C119.7,118.9,118.4,118.3,117.1,118.2z M109.9,122.8c1.7,0.3,3.4,1,5.2,0.8c0.8,0,1.5,0,2.3-0.2c0.1,0.4-0.1,0.9,0.3,1.2
					c0.5,0.2,1.1,0,1.3-0.5c0-0.5-0.5-0.7-0.9-0.9c-0.3-0.3-0.7-0.6-1.1-0.8C114.7,122,112.2,122.2,109.9,122.8z"/>
			</g>
			<path class="st78" d="M52,115.6c-0.1,0.1-0.3,0.2-0.3,0.3c0,0.3,0,0.7,0,1c-1,1.2-2,2.6-3,3.8c0,2,0,4.2,0.8,6.1
				c0.1,0.4,0.4,0.7,0.3,1.2c-0.3,1-0.4,2.1-0.9,3.1c-0.4-0.2-0.8-0.4-1.2-0.6c0-0.4,0-0.7,0-1.1c-0.4,2.3-1.1,4.7-0.6,7
				c0.6,0,1.3-0.1,1.9-0.1c-0.2,1.8-0.3,3.7-1.4,5.2c-0.1-0.1-0.2-0.3-0.3-0.4c0,0.2,0,0.6-0.1,0.8c-0.6,0.2-1.2,0.4-1.8,0.1
				c0.5,2.7-0.3,5.4-1,8c0,0.1,0,0.5-0.1,0.6c0.8-0.6,1.4-1.6,2-2.4c2-3.4,2.8-7.4,5.6-10.3c0,4.1,0.2,8.3-1,12.3
				c-0.5,1.9-0.9,3.8-1.1,5.7c2.3-2.7,2.6-6.3,3.7-9.6c0.5-1.6,0.9-3.3,1.5-4.9c-0.2-0.3-0.5-0.5-0.6-0.9c-1.5-4.2-1.5-8.7-1.4-13
				c0-2.7,0.2-5.5-0.4-8.2c-0.3,1.6-0.6,3.3-0.9,4.9c0.2-1.9,0.2-3.7,0.2-5.6C51.8,117.5,51.6,116.5,52,115.6z"/>
			<path class="st78" d="M155.6,146.3c-2.8-2.7-4-6.5-6.3-9.5c-0.2,1.4-0.6,2.7-1,4.1c1,2,2,3.9,3.1,5.9c0.1-0.6,0.2-1.1,0.3-1.7
				c1.6,2.3,3.2,4.6,4.7,6.9c1.2-0.7,2.2-1.6,3.2-2.4c-0.3-2.7-0.6-5.5-0.9-8.2c-0.1-0.5-0.3-1-0.5-1.5c-0.3,2.6-0.2,5.2-0.5,7.9
				C156.9,147.3,156.2,146.9,155.6,146.3z"/>
			<path class="st78" d="M95.9,142.7c-0.6-0.6-1.4-1-2-1.4c-0.6,1.7-1.1,3.5-1.6,5.2c0.5,1.5,0.9,2.9,1.3,4.4c0.8-1,1.3-2.2,2.2-3.2
				c0.3,2.4,0.5,4.8,0.7,7.2c0,0.5,0.1,0.9,0.2,1.3c0.8-2,0.9-4.1,0.9-6.3C96.8,147.6,96.5,145.1,95.9,142.7z"/>
			<path class="st78" d="M56.1,150c-0.6-0.7-1.1-1.4-1.7-2.2c-0.3,2.2-0.4,4.4-0.2,6.6c0.4,1.6,0.5,3.3,0.4,5
				c-0.2,1.6-0.1,3.2-0.2,4.8c-0.9-1.2-1.7-2.4-2.6-3.5c-0.2,1.9-0.4,3.8-0.7,5.7c-1.8-1.5-2.6-3.8-2.9-6.1
				c-0.2-1.9-0.3-3.9-0.2-5.8c-1.2,0.7-2.5,1.4-3.7,2c1,3.5,1.5,7.2,1.1,10.9c1.3-0.8,2.2-2,3.4-2.8c0.2,1.8,0.3,3.6,0.5,5.4
				c0.1,1,0,2,0.4,2.9c0.9,2.3,3,3.8,4.7,5.4c2.2,2.3,3.9,5.1,6.3,7.1c0.4,0.1,0.8,0.2,1.1,0.2c0-1.3-0.2-2.6-0.2-3.9
				c-0.3-0.7-0.6-1.4-0.7-2.2c-0.8-3.9-1-8-0.5-11.9c-0.2,0.2-0.3,0.4-0.5,0.6c-0.9,2.1-2,4.1-3.1,6.1c-0.5-2.8-0.8-5.7-0.9-8.6
				c-0.2-0.6-0.2-1.3-0.2-1.9c-0.1-2.4-0.2-4.9-0.1-7.3C55.6,154.4,55.9,152.2,56.1,150z"/>
			<path class="st78" d="M104.1,149c-1.6,0.4-3,1.1-4.6,1.6c0,0.1-0.1,0.3-0.1,0.3c1.9,2.9,1.1,6.6,0.2,9.6c0.6-0.2,1.1-0.3,1.7-0.4
				c0.1,1.8,0,3.6,0.1,5.5c0.1,0.7,0.2,1.3,0.3,2c1.7-4.3,1.8-8.9,2.2-13.4C103.9,152.4,104.5,150.7,104.1,149z"/>
			<path class="st78" d="M83.3,155.2c-0.3-1.2-0.4-2.4-0.7-3.5c-0.3,0.8-0.6,1.6-0.8,2.4c-0.4,1.5-0.7,2.9-1.2,4.4
				c-0.8,0.2-1.6,0.3-2.4,0.4c-0.9,2-1.3,4.2-2.3,6.2c0.4,0.3,0.9,0.6,1.4,0.8c0.5-2,1-4,1.8-5.9c0.4,0.6,0.6,1.4,0.8,2.1
				c0.8-0.2,1.5-0.4,2.3-0.3c0.5-0.1,1-0.2,1.5-0.4c0.5-2.1,1.2-4.2,1.7-6.2C84.8,155.2,84.1,155.2,83.3,155.2z"/>
			<g>
				<path class="st78" d="M107.2,164c0.4-1,0.7-2,1-3.1c1,0.6,2,1.4,3,2.1c0,1,0,2,0,3c-0.7-0.2-1.5-0.4-2.2-0.6
					c2.3,3,4.9,5.9,6.8,9.2c0.9,1.6,1.7,3.3,2.4,5.1c-0.3,0.3-0.6,0.5-0.9,0.8c-1-2-2.3-3.9-3.6-5.7c-0.8,2.9-1.2,5.8-1.7,8.7
					c-0.9,4.5-1.9,9-3.6,13.3c-0.1-0.4-0.2-0.7-0.4-1.1c-1.3,1.3-2.3,2.9-3.2,4.5c-0.8,1.4-1.5,2.9-2,4.5l-0.2,0
					c-1.3-0.3-2.6-0.7-3.8-1.1c0.8-1.8,1.9-3.4,3.1-5c-0.5,0.3-1.1,0.6-1.6,0.9c-0.2-0.3-0.4-0.6-0.6-0.8c-0.1,0-0.4,0.1-0.6,0.1
					c1.3-0.4,1.4-2.1,1.7-3.3c-1,0.3-2.1,0.8-2.6,1.8c-0.3,0.6,0.2,1.1,0.4,1.7c-1.3,1.2-2.2,2.7-3,4.3l0,0
					c-1.4-0.4-2.7-0.7-4.1-1.1c-0.2-0.6-0.3-1.3-0.4-1.9c3.6-2.5,7.8-4.5,9.9-8.5c-2.1,1.1-4.1,2.3-6.1,3.4c2-2.4,4.5-4.4,6.1-7.1
					c1.1-1.8,1.6-4.1,1.2-6.2l0-0.1c1-1.8,1.4-3.8,1.9-5.8c0.7-0.8,1.8-1.2,2.6-1.9c0.3,0.5,0.6,0.9,0.9,1.4
					c-0.8,3.7-1.4,7.6-1.4,11.4c2.7-1.9,3.7-5.6,3-8.8c0.2-0.5,0.6-1,0.3-1.5c-1-2.5-2.2-5-3.5-7.3c0.5-4.7-1.7-9.3-0.6-14
					C105.4,158.3,105.7,161.4,107.2,164z M104.3,191.6c-0.4,0.7-0.9,1.5-1,2.4c1.3-0.3,2.3-1.3,3.1-2.2c0.9-1.2,1.7-2.7,1.5-4.3
					C106.5,188.5,105.4,190,104.3,191.6z"/>
			</g>
			<path class="st78" d="M72.3,156.4c-1,1.2-1.8,2.4-2.7,3.6c0.8,2.3,0,4.8-0.9,7c-1.2,2.7-2.7,5.5-2.5,8.5
				c2.7-3.5,4.4-7.8,7.3-11.2c-0.7,2.7-1.9,5.2-3.2,7.6c0.6,0.2,1.6,1.2,2.1,0.3c1.2-1.9,2.4-3.8,3.2-5.9c-0.3-0.1-0.6-0.2-1-0.3
				c0.4-2.6,1.1-5.2,0.5-7.8c-0.7,0.8-1.4,1.5-2.2,2.2C72.7,159.1,72.5,157.7,72.3,156.4z"/>
			<path class="st78" d="M155.9,160.2c-1.5-0.2-2.9-0.8-4.4-1.2c0.4,2.1,1.1,4.2,1.7,6.3c0.1-0.6,0.3-1.2,0.5-1.7
				c1.5,1.6,3.2,3.1,4,5.2c0.7,2.3,0.4,4.6,0.5,7c0.5-1.2,0.8-2.6,1.3-3.8c-0.7-3.8-2.5-7.3-2.5-11.2
				C156.6,160.6,156.3,160.4,155.9,160.2z"/>
			<path class="st78" d="M148.7,168.6c-1.2-1.3-2.5-2.6-3.7-3.9c-0.7,2.9-1.6,5.7-2.5,8.5c-0.1-0.2-0.2-0.3-0.3-0.5
				c0.3,1.3,0.4,2.7,0.6,4c0.1,0.2,0.2,0.3,0.2,0.5c0.6-1.6,1.2-3.3,1.9-4.9c0.3,0.6,0.3,1.4,0.5,2c0.5,0.5,1.2,0.9,1.8,1.2
				c0.6-1.5,1-3,1.7-4.4l-0.2,0C148.7,170.2,149.4,169.2,148.7,168.6z"/>
			<path class="st78" d="M85.6,164.6c-1.9,2.1-3.4,4.7-4.3,7.4c1.1-0.5,2.2-1.1,3.4-1.5c-0.4,0.7-0.9,1.3-1.4,1.9
				c1,0.7,1.9,1.5,2.7,2.3c1.8-0.9,2-3.3,1.7-5c-0.5,0.4-1,0.8-1.5,1.2C85.8,168.8,85.9,166.7,85.6,164.6z"/>
			<path class="st78" d="M130.2,171.2c-1.2-1.6-2.6-3-3.9-4.4c0.1,0.5,0.1,1.1,0.3,1.6c2.6,4.1,2.6,9.7,0.3,14
				c-0.3-0.4-0.4-1-0.5-1.5c-0.3-1.3-0.6-2.7-0.8-4c-0.5-1.7-1.1-3.3-1.7-4.8c0.1,0.9,0.2,1.8,0.3,2.6c0.1,1,0.2,2,0.2,3.1
				c0.1,3.2,0.3,6.5,0.6,9.7c0.1-0.9,0.3-1.7,0.4-2.6c0.6-0.1,1.2-0.1,1.7-0.3c0.7-1.5,1.3-3,1.9-4.5c0.5-1.1,0.5-2.4,1-3.5
				c0.3,2.2,0.4,4.5,0.8,6.7c0.5-0.9,0.7-1.9,1-2.8c0.6-2,1.3-4.1,2.6-5.8c-0.3-1-0.6-2-1-2.9c-0.5,0.8-1,1.6-1.6,2.3
				C131.1,173.1,130.6,172.1,130.2,171.2z"/>
			<path class="st78" d="M99.9,169.1c-0.8-0.2-1.6-0.4-2.5-0.6c0.8,2.9,2,6,1,9.1c-0.7-2-1.3-4.1-2-6.1c-0.3,0.5-0.5,1-0.8,1.5
				c0.1,3,0,5.9,0.1,8.9c1.6-1.6,3-3.5,4-5.6c0.5-1.1,0.8-2.3,1.3-3.4C100.7,171.6,100.3,170.3,99.9,169.1z"/>
			<path class="st78" d="M161.8,174.4c-0.8-0.3-1.8-0.4-2.2-1.3c-0.1,1.6,0.1,3.3-0.2,4.9c-0.3,2.4-0.6,4.9-1.4,7.3
				c-0.4-1.8-0.6-3.6-0.6-5.4c-0.4,2.8-0.7,5.7-1,8.6c1.1,0,2.2,0,3.3,0.1c0.3-0.3,0.5-0.6,0.8-0.8v0
				C160.2,183.2,161.1,178.8,161.8,174.4z"/>
			<path class="st78" d="M82.7,175.7c-2.1,1.2-3.8,3.2-4.2,5.6c-0.2,0.8,0.5,1.5,1,2.1c1.2-2.1,2.2-4.3,3.3-6.4
				C82.7,176.6,82.7,176.2,82.7,175.7z"/>
			<path class="st78" d="M88.9,176.9c-2.1,2-3.4,4.7-4.5,7.4c-1.6,4.4-3.6,8.6-4.5,13.2c0,0.5,0,0.9,0,1.4c2.7,0.7,5.4,1.3,8.1,2.1
				c0.6-1.8,0.4-3.8,0.6-5.6c-1.6,1.1-2.8,2.5-4.3,3.7c-0.7-1.8-0.6-3.8-0.2-5.7c1-3.4,3-6.3,4.2-9.5c-0.1-0.6-0.2-1.3-0.1-2
				C88.6,180.3,88.6,178.6,88.9,176.9z"/>
			<path class="st78" d="M130.6,185.2c-0.5,2.2-0.3,4.7-1.6,6.8c-1.1,1.9-2.1,3.8-2.9,5.8c0.9,1.5,2.1,2.8,3.2,4.1
				c0.7-0.4,1.4-0.9,2.1-1.3c-1-3,0-6.2,1.2-9C131.9,189.5,131.3,187.3,130.6,185.2z"/>
			<path class="st78" d="M112.8,194.1c-0.5,0-1.2-0.3-1.7,0.2c-0.4,0.6-0.6,1.3-0.9,2c-1.1,2.9-2.3,5.9-2.1,9c0.5,0.2,1,0.4,1.5,0.6
				c0.8-1.8,1-3.7,1.4-5.6C111.6,198.1,112.4,196.2,112.8,194.1z"/>
			<path class="st78" d="M114.6,196.1c-0.6,0.9-0.4,2.1-0.4,3.1c0.1,2.1-0.2,4.3,0.3,6.3c0.3,0.4,0.8,0.6,1.3,0.8
				c0.7,0.1,1.4,0,2.2,0c-0.1-1.8,0.1-3.7,0.1-5.5c-0.6,0.1-1.2,0.2-1.8,0.3C115.7,199.4,115.2,197.7,114.6,196.1z"/>
		</g>
		<g>
			<path class="st79" d="M107.3,21.3c-5,2.1-10.1,4.2-14.8,7c-0.4,0.2-0.8,0.5-1.2,0.9c0.7,0.2,1.3,0.4,2,0.7
				c-0.7,0.4-1.4,0.7-2.1,1.1c0.8,0,1.6,0.2,2.4,0.4c-2.2,2.2-4.7,4.1-6.8,6.4c0.9,0.2,1.7,0.3,2.6,0.5c3.3,0.7,6.4,2.1,9.5,3.2
				c-1.7-2.6-4.7-3.7-7.4-4.9c1-1,2.2-1.9,3.3-2.8c1.6-1.3,0.7-3.6,1.6-5.2c0.3-0.7,1.2-1.5,1.9-0.9c2.1,1.6,3.3,4,4.3,6.3
				c0.6,1.2,1.1,2.6,2,3.6c-0.2-4.1-1.9-8.1-4.4-11.3c1.8-1.6,4.4-1.9,6.7-2.1C107.1,23.2,107.2,22.2,107.3,21.3z"/>
			<path class="st79" d="M121.4,22.6c-3.2-0.4-6.5-0.6-9.7-1c0.4,0.1,0.7,0.2,1.1,0.4c-0.2,0.8-0.3,1.6-0.5,2.4
				c1.9,0.2,3.8,0.4,5.7,0.9c2.7,0.6,5.4,1.6,8.3,1.7c-2.2-1.4-4.7-2.3-7-3.4C120,23.2,120.7,22.8,121.4,22.6z"/>
			<path class="st79" d="M83.7,35.4c-2.9,2.7-5.6,5.7-8.3,8.6c0.1,1.1-0.8,1.8-1.4,2.6c-1.1,1.3-2.1,2.6-3.2,4
				c-1.1,0.6-2.4,0.3-3.5,0.8c-1.1,1.2-1.7,2.8-2.7,4.2c0.2,0.3,0.4,0.6,0.7,0.9c-2.2,4.1-4.2,8.2-6.7,12.1c0.8-0.2,1.6-0.3,2.5-0.5
				c0.5-0.3,1-0.6,1.4-0.9c2.3-1.8,4.2-4.1,6-6.3c2.6-2.8,5.6-5,8.4-7.6c1.2-0.6,2.6-0.5,3.8-0.9c-1-0.9-2.1-1.8-3-2.7
				c2,0,4,0,5.9-0.1c-0.6-1-1.3-2-1.9-3c1.1,0.1,2.2,0.3,3.2,0.7c2.9-0.7,5.9-0.5,8.8-0.2c-2.3-2.2-5.6-2.5-8.5-3.4
				c1.3-0.9,3.1-1.1,4.6-0.8c3.1,0.6,5.7,2.3,8.6,3.5c0.3-0.7-0.1-1.4-0.5-2c-1-1-2.4-1.6-3.8-2c-3.7-0.8-7.4-1.8-11.1-2.6
				c0.2-0.6,0.4-1.2,0.6-1.8C84.2,37.2,83.9,36.2,83.7,35.4z"/>
			<path class="st79" d="M110.5,40.7c-0.7-0.7-1.6-1.2-2.4-1.7c-0.4,1.7-0.4,3.5-0.5,5.2c-1.2-0.7-2.2-1.5-3.5-2.1
				c0.4,3.3,1.3,6.6,2.5,9.7c-0.9-0.2-1.9-0.5-2.8-0.3c-1.2,0.2-2.1-0.8-3.2-1.2c-0.7,0.7-1.3,1.4-1.9,2.1
				c4.5,4.9,7.8,10.8,9.9,17.2c0.4,1.2,0.7,2.5,1.1,3.7c1.9-4.2,1.9-8.9,2.3-13.4c0.9,0.7,1.5,1.7,2.4,2.4c0.4-0.9,0.6-2,1.1-2.8
				c0.8-0.6,1.8-1,2.5-1.8c1.2-1.3,1.9-3,2.5-4.6c0.5,0.6,0.7,1.4,1.2,2.1c0.4,0.7,1.4,1,2.1,0.6c1-0.5,2-1.1,3-1.5
				c-0.9,3.4-3.7,5.9-6.1,8.4c-1.3,1.2-1.2,3.2-2.2,4.6c-0.8,0.5-1.8,0.9-2.6,1.5c-2.3,1.7-3.8,4.4-3.9,7.3c0.2,1,0.9,1.8,1.7,2.4
				c1.4-3.4,2.5-7,5.1-9.6c-0.3,2.8-1.2,5.5-1.6,8.2c0.5-0.3,1.1-0.7,1.6-1c1.1-2.6,1.7-5.5,1.8-8.3c0.1-2.4,1.5-4.5,3-6.3
				c2.3-3.2,5.9-5.1,9.4-6.9c1-0.6,2.2-0.1,3.3,0.1c2.7,0.5,5.7,1.5,8.4,0.4c-1.3-1-2.7-2-4.1-3c1.8,0.2,3.7,0.2,5.5,0.6
				c1.8,1.1,3.3,2.7,4.9,4.2c1.2,1.3,2.5,2.5,3.7,3.9c-0.3,0.3-0.5,0.6-0.8,0.9c-0.6,0.2-1.3,0.3-1.9,0.4c0.6,0.1,1.1,0.2,1.7,0.3
				c0.4,0.4,0.7,0.8,1,1.3c2.4,2.8,4.2,6.2,5.4,9.8c0.5,2.6,0.5,5.2,0.7,7.8c0.3,2.4,0.6,4.8,0.9,7.1c1.4,4.8,3.8,9.3,7.1,13.1
				c-0.1-3.9-1.3-7.7-3-11.2c-0.9-1.7-1.5-3.5-1.3-5.4c2.5,4,4.2,8.5,7.4,12.1c-0.9-6.4-4.5-12-6.1-18.2c-2.2-9.5-7.1-18-9.8-27.3
				c-0.3,2-0.5,4-0.8,6c-1.8-1.6-3.4-3.6-5.7-4.6c-2.8-1-4.6-3.5-7.3-4.7c-2.6-0.5-5.4,0.2-7.8,1.3c0.5,0.4,1,0.7,1.2,1.3
				c-1.4,1.1-2.9,2.1-4.4,3c-0.8-0.5-1.1-1.4-1.6-2.2c-1.5,0.5-2.8,1.3-4.3,1.9c0.1-1.5,0.7-2.8,1.6-4c0.4-0.6,1-1.1,1.3-1.8
				c-2,0.3-3.9,0.9-5.7,1.6c0.2-1,0.4-2.1,0.4-3.2c-0.9,0.2-1.5,0.9-2.1,1.5c-1.5,1.6-2.2,3.7-2.6,5.7c-1,0.4-2.1,0.7-3.1,1.1
				c-0.4-1.6-0.8-3.2-1.2-4.7c0-0.4-0.3-0.6-0.6-0.9c-0.2,1.8-0.3,3.7-0.6,5.5c-1.1-2.7-1.6-5.7-1.8-8.6
				C110.8,43.9,111,42.2,110.5,40.7z"/>
			<path class="st79" d="M146.8,41.8c-1.7-1.5-4.3-2.1-6.4-1.3c0,0.1,0,0.2,0,0.3c2.9,1.4,5.7,2.9,8.6,4.2
				C148.8,43.6,147.8,42.6,146.8,41.8z"/>
			<path class="st79" d="M144.7,44.7c-2.3-1.2-4.8-1.9-7.4-1.9c0.5,0.6,1.3,0.9,2,1.2c1.8,0.9,3.9,1.5,5.2,3.1
				c1.4,1.6,3.3,2.7,5.2,3.4C149.2,47.9,147,46,144.7,44.7z"/>
			<path class="st79" d="M89.4,63.5c-1.4-0.7-2.9-0.9-4.4-1.3c-0.4,0.3-0.7,0.5-1.1,0.8c1.9,0.7,3.9,1.2,5.4,2.6
				c0.8,0.8,1.8,1.7,1.8,2.9c-1.1,0-2.2-0.1-3.3-0.4c0.7,1.2,1.3,2.5,1.7,3.9c-2.2-0.8-4.5-1.6-6.6-2.6c-0.3,0.2-0.5,0.3-0.8,0.5
				c0.4,0.6,0.8,1.1,1.2,1.7c-0.9,0-1.9-0.1-2.8-0.1c-0.4,1-0.6,2-1.1,2.9c-2.4,0.5-4.8,0.7-7.2,1.1c-0.6,0.8-1.2,1.6-1.8,2.5
				c-1.3,2-1.1,4.5-1.2,6.8c3.3-1.1,6.8-1.7,10.2-1.5c0.3-0.4,0.5-0.8,0.8-1.2c-0.9-0.7-1.8-1.3-2.7-2c2,0.3,4,0.9,6.1,1.3
				c0.8-0.3,1.5-0.9,2.2-1.3c1.5-1.3,3.2-2.2,4.8-3.4c0.9-0.6,0.9-1.9,1.9-2.4c1.1-0.6,2.2-1.4,3.2-2.2c0.2,0.2,0.4,0.5,0.6,0.7
				c0.8,0.9,1.8,1.6,2.7,2.3c0-1.4-0.1-2.8-0.5-4.2c-0.4-1.6-1.1-3-1.6-4.6c-0.8-0.2-1.7-0.4-2.5-0.5c0,1.7,0.1,3.4,0.1,5.1
				c-1-1.6-1.8-3.4-2.9-4.9C91,65,90.4,64,89.4,63.5z"/>
			<path class="st79" d="M152.8,88c-2.7-4.7-7.3-8.1-12.2-10.2c0.5,1.1,0.8,2.2,1.4,3.2c1.1,0.8,2.4,1.5,3.5,2.3
				c2.2,1.7,4.2,3.7,6.1,5.7c0.4,0.5,0.9,0.9,1.3,1.4C152.9,89.7,152.7,88.9,152.8,88z"/>
			<path class="st79" d="M94.3,84.2c-3-0.5-5.5-2.5-8.5-3c0.7,2.1,2.9,2.9,4.6,4c0.6,1.8,1.3,3.8,0.3,5.6c-0.9,1.8-2.4,3.3-2.8,5.3
				c0.2,0,0.5-0.1,0.7-0.1c1.2-0.4,2.5-0.8,3.6-1.5c0.9-1.3,0.9-3,1.4-4.4c0.7-2.7,4.1-4.3,6.6-3c0.7,0.4,1.4,0.9,2,1.6
				c0.8,1.2,0.5,2.8,0.6,4.2c-0.5,0.7-1.2,1.2-1.8,1.9c0.5,0.2,1,0.5,1.5,0.7c0.4-1,0.8-2,1.2-3c0.4,1.4,0.5,2.8,0.8,4.1
				c0.7-0.8,1.3-1.7,1.4-2.8c0.2-2.5-1.1-4.8-1.6-7.2c-1-1.7-2.1-3.4-3.1-5.1c0.1,0.6,0.2,1.2,0.3,1.8c0.1,0.8,0.2,1.7,0.3,2.5
				c-1.6-0.6-3.2-1.3-4.9-1.9C96,84.3,95.1,84.3,94.3,84.2z"/>
			<path class="st79" d="M138,83.2c-1.1-0.2-2.1-0.4-3.2-0.6c-3.3,0-5.9,2.3-8.1,4.4c0.8,0,1.5-0.1,2.3-0.1c1.3-0.5,2.9-0.5,4.2,0.2
				c1.6,0.9,2.6,2.5,2.8,4.3c0.1,1.5-0.7,3.1-2,3.8c0.4-0.2,0.9-0.4,1.3-0.6c2.3,0.9,4.6,2,6.4,3.7c3.1,2.7,5.3,6.3,8.8,8.4
				c0.8,0.5,1.7,0.9,2.7,1c-1.7-2.2-3.2-4.6-5-6.8c-2-2.4-5.2-3.3-7.1-5.9c1,0,2,0.1,2.9,0.5c3.4,1.2,5.9,4.3,9.4,5.3
				c0.1,0,0.2-0.1,0.3-0.2c-1.8-2.9-4.5-5.1-7.4-6.8c-2.3-0.5-4.9-0.6-6.8-2.3c-0.9-1.5-1.6-3-2.3-4.6c1-0.2,2-0.3,3-0.6
				c-0.8-0.4-1.6-0.7-2.4-1.1c-0.3-0.1-0.5-0.2-0.8-0.3C137.3,84.4,137.7,83.8,138,83.2z"/>
			<g>
				<path class="st79" d="M118.4,96.9c0.6,0.8,1.1,1.8,1.8,2.7c1.4,1.6,3.2,2.8,4.6,4.4c1.1,1.2,1.9,2.7,2.1,4.4
					c-0.7,1-1.5,1.9-2.4,2.8c2,1,4.1,1.6,6.3,2.1c-0.9-1.3-1.9-2.6-2.8-3.9c1.2,0.4,2.4,0.8,3.5,1.4c6,3.6,12.7,6.8,17,12.6
					c1.5,1.8,1.7,4.1,1.9,6.3c-1.7-1-3.4-2-5-3.1c0-0.5,0.1-0.9,0.2-1.4c0.3-0.9,0.9-2.1,0.1-3c-1.9-2.1-4.4-3.6-7-4.8
					c-0.2,0.2-0.4,0.5-0.6,0.7c-0.4,0.6-0.9,1.2-1.3,1.7c-0.4-0.3-0.9-0.7-1.3-1c0.4,1.7,1,3.4,1.4,5.1c-0.6,0.1-1.3,0.2-1.9,0.3
					c-1-0.8-1.9-1.8-3-2.5c-2.1-1.4-4.4-2.3-6.4-3.8c-0.2-1.3,0.5-2.4,1.4-3.3c-1.4-0.7-2.8-1.6-4.3-2c-0.9-0.2-1.7-0.4-2.6-0.6
					c0.4-1.7,1-3.3,1.4-5.1c-1.3-0.1-2.7,0.2-3.8,1c-0.5,0.3-0.9,0.6-1.4,0.9c-0.4,1.2-0.6,2.4-0.8,3.6c-1.4-1.2-2.9-2.3-4.5-3.1
					c0,0.7-0.1,1.4-0.1,2.1l-0.3-0.2c-0.5-0.3-1.1-0.6-1.7-0.9c0.7-0.2,1.3-0.6,1.8-1c0.3-0.2,0.7-0.5,1-0.7
					c-0.3-1.3-0.6-2.6-0.9-3.9c-0.9-0.1-1.7-0.2-2.6-0.3c0.1,0.7,0.3,1.5,0.4,2.2c-1.9-0.3-2.9-2.3-2.9-4c0.9-0.6,1.8-1.1,2.3-2.1
					c1-1.6,1.4-3.7,1.3-5.6c0-0.2-0.1-0.5-0.2-0.6c2.1,0,4.2,0,6.3,0.1C116.3,95.2,117.4,95.9,118.4,96.9z M114.7,102.6
					c-0.5,1.6-0.9,3.2-1.3,4.8c0.3,0.2,0.6,0.3,1,0.5c1.2-1.7,2.6-3.2,3.9-4.8C117,102.9,115.8,102.8,114.7,102.6z"/>
			</g>
			<path class="st79" d="M67.9,96.8c-2.2,1.5-3.9,3.7-4.9,6.2c0.2,1.2,1,2.3,1.3,3.6c1-1.5,2.2-2.9,3.4-4.3
				C67.7,100.5,67.9,98.7,67.9,96.8z"/>
			<path class="st79" d="M167.1,102.9c-0.5,1.3-0.8,2.7-1.3,3.9c0.3,0.9,0.4,1.9,0.9,2.7c4.6,3.4,7.8,8.3,10.1,13.4
				c0.6,1.4,1.3,2.8,1.7,4.4c-2-2.3-3.3-5.1-5.1-7.6c-0.7,0-1.5,0.1-2.2,0.1c-1.6-1.7-3-3.6-4.2-5.5c-0.5-1-1.9-0.4-2.7-0.8
				c-0.8-1.3-1.4-2.8-2.4-4c-0.8-1-1.8-2.1-3.2-2.3c0.2,0.5,0.4,1,0.6,1.6c1.2,2.8,2.3,5.7,3.8,8.4c3.2,3.4,6.5,6.9,9.2,10.8
				c1.6,2.1,3.2,4.2,4.8,6.3c0.8,1,1.6,1.9,2.4,2.9c0.7-0.2,1.4-0.4,2.1-0.6c-0.3-3.4,0.2-6.9-0.7-10.2c-1.5-4.8-2.6-9.8-4.2-14.6
				c-0.1,0.6-0.3,1.2-0.5,1.9c-0.2,0.6-0.3,1.2-0.5,1.7c-1.4-1.8-2.6-3.7-4-5.4C169.6,108,168.5,105.4,167.1,102.9z"/>
			<path class="st79" d="M95,104.9c-0.5,0.1-1,0.1-1.5,0.2c0.5,0.8,1.1,1.6,1.7,2.4c-2.5,0.9-5.1,1.8-7.2,3.7
				c3.6-0.1,7.1-0.8,10.6-1.3c0.5-1.2,0.9-2.4,1.4-3.5C98.5,105.8,96.7,105.5,95,104.9z"/>
			<path class="st79" d="M178.7,110.1c-0.6,0-1.1,0-1.7,0c2,4.5,2.8,9.4,4.4,14.1c0.5-0.7,1.1-1.2,1.7-1.8c-0.1-1.8-0.3-3.6-0.6-5.4
				C180.5,115.3,179.6,112.6,178.7,110.1z"/>
			<path class="st79" d="M86.1,110.7c-0.4,0.3-0.8,0.6-1.2,0.9c-1.3,1.2-2.7,2.5-3.7,3.9l-0.1,0.2c-0.3,2.8-1.4,5.7-3.7,7.5
				c-0.3,2-0.3,4.1-0.9,6.1c-0.3,1.5-0.7,2.9-1,4.4c1.6-1.4,3.2-2.8,4.8-4.2c-0.2-0.9-0.4-1.8-0.7-2.7c0.6,0.6,1.1,1.8,2.1,1.4
				c1.6-1.9,2.4-4.4,4.2-6.2c2-2.1,4.7-3.3,7.3-4.6c-0.9-0.5-1.9-1-2.8-1.5c0,0,0-0.1,0-0.2c1.4-0.9,3-1.6,4.3-2.6
				c-3,0.1-6,0.9-8.9,1.7C85.9,113.5,86.3,112.1,86.1,110.7z"/>
			<path class="st79" d="M147.4,133.6c-1.6-4-4.6-7.5-8.3-9.7c-0.1,1.1-0.1,2.1-0.2,3.2c0.8,2.5,1,5.2,1.4,7.8
				c0.3,1.6,0.7,3.1,1,4.7c0.8-1.5,1.5-3.2,2.4-4.6c0-0.9,0.1-1.7,0.1-2.6c1.3,2.1,2.5,4.3,3.5,6.6c0.3,0.6,0.6,1.2,1,1.8
				c0.3-1.4,0.7-2.7,1-4.1C148.6,135.7,147.9,134.7,147.4,133.6z"/>
			<path class="st79" d="M167.4,135.8c-0.9-2.6-1.7-5.4-3.8-7.3c0.3,1.7,1.1,3.2,1.5,4.8c-1.1,0-2.3,0-3.3,0.5c0.3,0.3,0.7,0.7,1,1
				c-2.2-0.4-4.3-1-6.3-1.7c0.7,1.8,1.5,3.8,1.2,5.8c0.1,0.4,0.3,0.7,0.4,1.1c0.2,0.5,0.4,1,0.5,1.5c1,0.7,1.5,1.7,2.2,2.6
				c0.9,1.3,1.9,2.4,2.9,3.6c-0.8-0.1-1.7-0.2-2.5-0.2c-0.4,1.8-1,3.5-1.8,5.2c1.7,3,4.3,5.3,6.4,8.1c0.2,0.3,0.3,0.7,0.3,1.1
				c-0.1,1.2-0.2,2.4-0.4,3.7c1.2,5.2,0.5,10.6,0.2,15.8c2.1-1.9,3.8-4.3,4.7-7.1l-0.1-0.1c-1.3-2.1-1.1-4.6-1-7
				c0.8,0.1,1.5,0.3,2.2,0.6c0,0.1,0.1,0.4,0.2,0.5l0,0.1c0.3-2.2,1.4-4.3,1.6-6.6c0-0.3,0-0.6-0.2-0.8c-2-2.7-4-5.4-5.2-8.5
				c0.9,0.6,1.7,1.3,2.3,2.1l0,0c0.1-1.1,1.2-1.8,1.7-2.7c-1.6-1.3-3.4-2.6-4.9-4.1c0.6-0.6,1.3-0.9,2-1.3c1.7,1.7,3.2,3.7,5,5.2
				c0.5,0.4,1.1,0.6,1.6,0.8c0-0.2,0-0.5,0-0.6c-1.1-3.6-1.9-7.2-3.4-10.7c-0.8-1.5-1.7-2.8-2.7-4.2
				C169,136.5,168.1,136.3,167.4,135.8z"/>
			<path class="st79" d="M83.4,129.3c-0.5,0-1.1-0.1-1.5,0.3c-0.9,0.7-1.4,1.8-2.1,2.6c0.2,0.4,0.3,0.8,0.5,1.1
				C81.7,132.4,83.7,131.3,83.4,129.3z"/>
			<path class="st79" d="M66.4,140.2c0-1.1-0.4-2-0.9-3c-0.9,4.5-3,8.7-4.8,12.9c-0.4,1.4-1,2.7-1.4,4.1c-0.1,0.3-0.2,0.8-0.6,1
				c-1,0.6-2.1,1-3.1,1.5c0,2.4,0,4.9,0.1,7.3c0,0.6,0,1.3,0.2,1.9c0.9-2.9,2-5.7,2.8-8.6c0.3,0.2,0.6,0.3,0.9,0.5
				c0.1,0.1,0.4,0.2,0.5,0.2c1.9-3.9,4-7.8,6-11.7c0.1-0.2,0.2-0.4,0.3-0.6C66.2,143.9,66.4,142,66.4,140.2z"/>
			<path class="st79" d="M69.1,153.4c-2.3,1.6-3.8,4.1-4.9,6.6c-0.2,1.6-0.4,3.3-0.6,4.9c0.5-0.7,1-1.4,1.5-2.1
				C67,160,68.3,156.7,69.1,153.4z"/>
			<path class="st79" d="M68.7,167c0.9-2.2,1.7-4.6,0.9-7c-1.1,1.7-2.1,3.4-3,5.2c-1.1,2.4-2,4.8-2.8,7.2c-1.1,3.1-1.5,6.3-2.2,9.5
				c0.1,1.3,0.2,2.6,0.2,3.9c-0.4-0.1-0.8-0.2-1.1-0.2c1,1.1,2.1,2.1,3.2,3.1c0.9-1,2.1-1.8,3.1-2.8c-0.3-1.4-0.6-2.8-0.4-4.2
				c0.5-3.5,2.1-6.8,3.8-9.9c1.3-2.4,2.5-4.9,3.2-7.6c-2.8,3.5-4.5,7.7-7.3,11.2C66,172.5,67.5,169.7,68.7,167z"/>
			<path class="st79" d="M90.3,169.6c0.1-0.6-0.5-1.2-1.1-1c-0.7,0-1.2,0.7-1.6,1.2c0.3,1.8,0.2,4.1-1.7,5c-1.1,0.8-2.2,1.5-3.3,2.2
				c-1.1,2.1-2.1,4.3-3.3,6.4c0.8,1,1.7,2.3,1.3,3.7c-0.8,3.4-1.4,7-0.7,10.5c0.9-4.6,2.8-8.9,4.5-13.2c1.1-2.7,2.3-5.4,4.5-7.4
				C89.4,174.5,90.1,172,90.3,169.6z"/>
			<path class="st79" d="M142.2,172.6c-0.3-1.4-0.9-2.9-1.8-4c-0.3,2.4-0.2,4.8-0.3,7.2c0,2.9-0.8,5.7-1.5,8.5
				c-0.2,0.8-0.3,1.7-1.1,2.2c-1.9,1.4-3.5,3.1-4.8,5c-1.2,2.8-2.3,6-1.2,9c1.6-1,3.1-2.1,4.8-3l0,0c0.4-1.7,1.2-3.2,1.9-4.7
				c0.6-1.3,1.1-2.6,1.9-3.7c0.4,0.6,0.8,1.3,0.8,2c0.1,1.4,0,2.9-0.1,4.3c1.6-0.6,3.2-1.2,4.8-1.7c-0.9-0.1-1.8-0.2-2.5-0.8
				c-0.6-0.5-0.3-1.6,0.5-1.7c1.5-0.3,2.4,1.1,3,2.2c0.9-0.1,2,0.2,2.8-0.3c-0.3,0-0.6-0.1-0.9-0.1c-0.5-0.7-1-1.5-1.4-2.3
				c1.2,0.1,2.3,0.6,3.5,0.8c1.1-1.8,2.4-3.5,3.3-5.4c0.1-0.9-0.3-1.8-0.1-2.7c0.2-1.6,0.3-3.1,0.4-4.7c-1.2,1.4-1.9,3.1-3,4.5
				c-0.5-2.5-0.2-5.3-2-7.3c-0.2,4.8-3.1,9.7-7.5,11.7c-0.1-2.3,0.2-4.6,0.7-6.9c0.2-1.3,0.8-2.6,0.6-4
				C142.6,175.3,142.4,174,142.2,172.6z"/>
			<path class="st79" d="M72,175.3c-1.2,2-2.4,4.1-3,6.4c-0.5,1.8-0.3,3.7-0.3,5.6c0,1.4,0.7,2.8,2.1,3.2c0.2-1.8,0.5-3.6,0.8-5.4
				C71.9,181.9,72.1,178.6,72,175.3z"/>
			<path class="st79" d="M128.9,186.6c0-2.2,0.1-4.3-0.1-6.5c-0.7,1.5-1.2,3-1.9,4.5c-0.5,0.2-1.1,0.2-1.7,0.3
				c-0.1,0.9-0.3,1.7-0.4,2.6c0,1,0,1.9,0,2.9c0.2,4.7-2.3,8.9-3.7,13.3c2.2-1.4,4-3.4,5-5.8c0.9-2,1.8-3.9,2.9-5.8
				C128.7,190.2,129,188.4,128.9,186.6z"/>
			<path class="st79" d="M102.4,182c-0.7-0.1-1.3-0.2-2-0.3c-1,2.4-1.6,5-2.6,7.3c-1.4-0.7-2.7-1.6-4.2-2.3c-0.3,0.8-0.7,1.5-1,2.3
				c-0.4,1.5-1.1,2.9-1.5,4.4c-0.6,2.3-0.8,4.8,0.2,7c3.6-2.5,7.8-4.5,9.9-8.5c-2.1,1.1-4.1,2.3-6.1,3.4c2-2.4,4.5-4.4,6.1-7.1
				C102.3,186.3,102.8,184.1,102.4,182z"/>
		</g>
		<g>
			<path class="st80" d="M85.2,47.3c-1-0.4-2.1-0.6-3.2-0.7c0.6,1,1.3,2,1.9,3c-2,0.1-4,0.1-5.9,0.1c1,1,2,1.8,3,2.7
				c2.6-0.9,5.5-0.6,8,0.6c3.2,1.5,5.9,3.9,8.4,6.3c1,1.5,1.8,3.1,2.5,4.7c0.6,1.4,1.2,2.8,1.2,4.3c-1.3-0.8-2.6-1.7-4.1-2.2
				c0.5,1.6,1.3,3,1.6,4.6C99,72.1,99,73.6,99,75c1.4-0.6,2.6-1.5,4-2.1c0.4,1.4,0.4,2.9,0.1,4.3c-0.1,0.7-0.4,1.5-0.3,2.2
				c0.7,1.7,1.3,3.4,1.8,5.2c0.9,0.5,1.8,1,2.6,1.5c1.6-2.6,3-5.4,5.5-7.3c0.4,2.3,0.1,4.7,0.5,7.1c0.4,0.9,1.1,1.5,1.7,2.3
				c0.5-0.4,0.9-0.9,1.4-1.3c0,1.7,0,3.4,0,5c0.3-0.5,0.6-1,1-1.5c0.4-0.7,0.9-1.4,1.4-2c2-2.7,3.1-5.9,4.5-9c0.1-0.3,0.3-0.7,0.4-1
				c-2.3,0.9-4.1,2.8-6.3,3.8c0.4-2.2,1-4.3,1.7-6.4c-0.5,0.3-1.1,0.7-1.6,1c0.4-2.8,1.3-5.4,1.6-8.2c-2.6,2.6-3.8,6.3-5.1,9.6
				c-0.8-0.6-1.5-1.4-1.7-2.4c0.1-2.8,1.6-5.6,3.9-7.3c0.8-0.6,1.7-1,2.6-1.5c1-1.4,1-3.3,2.2-4.6c2.4-2.5,5.2-4.9,6.1-8.4
				c-1.1,0.4-2,1-3,1.5c-0.7,0.4-1.7,0-2.1-0.6c-0.4-0.7-0.7-1.4-1.2-2.1c-0.6,1.6-1.3,3.3-2.5,4.6c-0.7,0.8-1.6,1.2-2.5,1.8
				c-0.5,0.9-0.7,1.9-1.1,2.8c-0.9-0.7-1.5-1.7-2.4-2.4c-0.4,4.5-0.4,9.2-2.3,13.4c-0.5-1.2-0.7-2.5-1.1-3.7
				c-2-6.3-5.4-12.3-9.9-17.2c-1.1-1.3-2.8-2-4.5-2.2c-1.7-0.3-3.3,0.1-5,0.1C87.9,49.3,86.6,48.3,85.2,47.3z"/>
			<path class="st80" d="M135.6,50.4c-0.2-0.6-0.7-1-1.2-1.3c-1.5,0.9-3.1,1.7-4.8,2.2c0.4,0.8,0.8,1.6,1.6,2.2
				C132.7,52.5,134.2,51.5,135.6,50.4z"/>
			<path class="st80" d="M134.5,57.2c-2.8,0.1-5.5,1.5-7.5,3.4c0.6,0.1,1.2,0.1,1.8,0.2C130.6,59.6,132.5,58.4,134.5,57.2z"/>
			<path class="st80" d="M85.1,58.4c-3.1-1-6.5-0.3-9.4,1.2c-3,1.6-5.6,4.1-7,7.2c-0.8,1.8-1.8,3.5-2.6,5.3c0,0.7,0,1.4,0,2
				c0.6-0.7,1.2-1.3,1.8-2c0.4-0.5,0.8-1,1.3-1.4c0.3,1.3,0.4,2.6,0.7,3.8c0.3-0.6,0.5-1.1,0.8-1.7c1.2-3.6,3.7-7.1,7.3-8.6
				c0.9-0.5,1.9,0,2.6,0.5c1.5,1,2.4,2.5,3.8,3.7c-0.1,0.1-0.3,0.2-0.4,0.2c-0.4,0.2-0.7,0.5-1.1,0.8c2.1,1,4.4,1.9,6.6,2.6
				c-0.4-1.3-1.1-2.6-1.7-3.9c1.1,0.3,2.2,0.4,3.3,0.4c0-1.2-1-2.1-1.8-2.9c-1.5-1.4-3.6-1.9-5.4-2.6c0.4-0.3,0.7-0.5,1.1-0.8
				c-1.8-0.4-3.5-0.8-5.2-1.2c3.2-0.2,6.4,0.3,9.5,1c-0.1-0.4-0.1-0.9-0.2-1.3C87.8,59.7,86.6,58.9,85.1,58.4z"/>
			<g>
				<path class="st80" d="M142.9,59.8c1.3,0.8,2.5,1.5,3.8,2.2c0.8-0.3,1.5-0.6,2.2-1c0.9,0.5,1.9,0.7,3,0.9
					c0.6,0.1,1.1,0.2,1.7,0.3c0.4,0.4,0.7,0.8,1,1.3c-0.4,0-0.8,0.1-1.2,0.1c1.9,3.4,3,7.6,6.4,9.8l0.2-0.2c0.5,2.6,0.5,5.2,0.7,7.8
					c0.3,2.4,0.6,4.8,0.9,7.1c-0.6-0.8-1.3-1.6-2-2.4c-1.1-2.4-2.3-4.8-3.9-7c-2.5-4-5.7-7.5-8.4-11.5c-0.6-1-1.7-1.6-2.6-2.2
					c-1.2-0.8-2.2-1.8-3.5-2.3c-2.7-1-5.7-0.5-8.5,0.1c-0.8,0.1-1.6,0.5-2.4,0.3c1.9-2.5,4.7-4.3,7.8-5c0.8-0.1,1.6,0,2.4,0.2
					C141.3,58.8,142.1,59.3,142.9,59.8z M154.4,70.1c0.7,1.7,1.4,3.3,2.6,4.7c0.5,0.1,0.4-0.6,0.6-1C157.9,72,156.3,69.9,154.4,70.1
					z"/>
			</g>
			<path class="st80" d="M150.2,75.7c-3-3.6-6.3-7.1-9.3-10.7c-1.9,0.4-3.9,0.8-5.8,1c0,0.5,0,1,0,1.5c2.2,0,4.3-0.4,6.4-0.3
				c-3.9,2.3-7.7,4.9-11.6,7.3c-1,0.6-2.1,1.1-2.9,1.9c-1.2,1.2-1.9,2.6-2.5,4.1c-0.3,0.9-0.5,1.8-0.8,2.6c1.5-1.8,3.2-3.6,5.3-4.7
				c1.1-0.7,2.1-1.4,2.8-2.5c0.9-1.2,1.6-2.6,2.9-3.4c0.7-0.5,1.6-0.4,2.4-0.4c1.9-0.3,3.9-0.1,5.7,0.8c3.8,1.8,6.4,5.1,9.8,7.4
				C151.8,78.8,151,77.2,150.2,75.7z"/>
			<path class="st80" d="M64.1,69.7c-0.2-0.4-0.5-0.8-0.7-1.2c-1.3,1.2-2.6,2.3-3.9,3.6c-2.9,3.1-6.9,4.8-10.8,6.3
				c0.7-1.4,1.8-2.5,3-3.3c1.1-0.8,2.3-1.2,3.3-2.1c-1.8,0.4-3.5,0.9-5.2,1.4c0-0.4-0.1-0.9-0.1-1.3c-1.1,2-1.9,4.1-2.6,6.3
				c-0.4,0.9,0.4,1.8,0.7,2.6c-3,3.1-4.4,7.3-4.8,11.4c3.3-3.8,6.3-7.8,9.7-11.4c-2.6,5.3-5.4,10.5-7.8,15.9
				c0.1,3.1,0.2,6.1,0.8,9.1c0.7-0.9,0.8-2.1,1.2-3.2c1.3-4.2,1.7-8.6,3.6-12.6c0.7-1.3,1.5-2.5,2.6-3.5c-0.5,2.7-1.4,5.4-1.7,8.1
				c1.2-1.1,1.9-2.6,3-3.8c0,3.1,0.2,6.2-0.6,9.2c-0.5,1.2-1.3,2.4-1.7,3.7c-0.3,1-0.5,2-0.8,3c0.2,2.6-0.3,5.3,0.3,7.9
				c0.1-0.1,0.3-0.2,0.3-0.3c1.1-2.4,2-5,2.9-7.6c0-1.1-0.6-2.1-0.2-3.2c0.4-1.4,0.8-2.9,1.3-4.3c0-4.2,1.3-8.3,2.6-12.3
				c-1.5-0.4-3.1-0.7-4.7-1c2.4-3.8,4.9-7.5,7.1-11.4c0.2,0.3,0.4,0.7,0.7,1c0.1,0.1,0.4,0.4,0.5,0.6C62.6,74.8,63.5,72.3,64.1,69.7
				z"/>
			<path class="st80" d="M95.8,72c-1,0.8-2.1,1.6-3.2,2.2c-1,0.5-1,1.8-1.9,2.4c-1.6,1.2-3.3,2.1-4.8,3.4c2.4-0.5,4.9,0,7.4,0.2
				c0.1-1-0.1-2-0.1-3.1c0.3-0.8,0.9-1.5,1.3-2.3c0.4,0.4,0.7,0.8,1.1,1.2c0.3-1.1,0.3-2.3,0.8-3.3C96.2,72.4,96,72.2,95.8,72z"/>
			<path class="st80" d="M144.6,74.8c-1.6-1.1-3.5-1.9-5.5-2.3c-0.1,0-0.4,0-0.6-0.1c-1.3,1.1-2.3,2.7-3.5,4
				c1.3-0.3,2.6-0.8,3.8-1.2c0.8,0.6,1.4,1.5,2.5,1.6c5,1,9.1,4.6,12.3,8.4c-0.2,1-0.5,1.9-0.9,2.8c-0.1,0.8,0.1,1.6,0.1,2.4
				c1.1,1.1,2.2,2.1,3.4,3.1c0.9,0.6,0.9,1.8,1.3,2.7c0.5,0.3,1.2,0.4,1.3,1c1,2.8,2.5,5.5,4.6,7.7c0.8,0.5,1.5,1.2,2.2,2
				c0.5-1.3,0.8-2.7,1.3-3.9c-1.4-2.1-2.9-4.2-4.6-6.1c-0.8-1-1.8-1.9-2.4-3c-2.6-4.3-4.5-9-8.2-12.5
				C149.5,79.1,147.3,76.6,144.6,74.8z"/>
			<path class="st80" d="M131,82c0.3-0.8,0.7-1.6,1-2.5c-0.2,0.1-0.5,0.2-0.7,0.2c-1,0.3-2,0.9-2.8,1.6c-1.8,1.6-2.9,3.9-4.2,5.9
				c-0.5,0.7-0.3,1.6-0.5,2.5c0.9,0.4,2,0.8,2.4,1.8c-0.1-2,1.6-3.5,2.9-4.7c-0.8,0.1-1.5,0.1-2.3,0.1c2.3-2.1,4.9-4.4,8.1-4.4
				C133.6,82.4,132.3,82.3,131,82z"/>
			<path class="st80" d="M83.6,85.1c-0.3-0.1-0.6-0.3-0.9-0.4c-1.6,0.1-3.3-0.3-4.7,0.6c0.3,0.4,0.7,0.8,1.2,0.9
				C80.7,86.6,82.4,86.2,83.6,85.1z"/>
			<path class="st80" d="M89.2,88.7c-0.9-0.8-1.7-1.7-2.6-2.6c-0.5,0.2-1,0.5-1.5,0.7c-0.1,0.1-0.3,0.3-0.3,0.5c1,0.5,2.1,1,3.1,1.5
				c-2.9,2-5.6,4.3-8,6.9c-1.4,1.6-3.4,2.5-5.4,3c-0.3,0.5-0.6,1-0.9,1.5c-0.4,0.7-0.9,1.3-1.2,2.1c0.3,0.6,0.9,1.1,0.9,1.8
				c-0.5,1.1-1.2,2.1-1.8,3.1c-0.1,0.4-0.2,0.7-0.3,1.1c0.1,0.3,0.3,0.6,0.4,0.8c1.8-2.3,3.6-4.7,5.5-7c2.6-3.3,4.6-7.1,7.7-10
				c0.6,0.1,1.3,0.2,1.9,0.2C87.7,91.3,88.6,90.1,89.2,88.7z"/>
			<path class="st80" d="M127.8,95c-0.3-0.2-0.6-0.5-0.8-0.7c0,0.1,0,0.3,0,0.4c-0.2,0-0.5,0-0.6,0c1.3,1.8,2.6,3.5,3.5,5.5
				c1.9,0.3,3.6,1,5.5,1.4c-1.4-1.2-2.9-2.3-4.2-3.7c-0.4-0.4-0.9-0.7-1.4-0.9C129.1,96.2,128.5,95.6,127.8,95z"/>
			<path class="st80" d="M138.9,98.7c-1.6-1.8-4-3-6.5-2.5c1.6,2.3,4,3.7,6.2,5.3c1.1,0.3,2.1,0.5,3.2,0.6
				C141.1,100.8,140,99.8,138.9,98.7z"/>
			<path class="st80" d="M87,97.4c-1.2-0.3-2.5-0.5-3.7-0.7c-1.5,2.1-2.7,4.3-4,6.4c-1.3,2-3,3.8-4.3,5.8c-0.7,0.9-1.1,1.9-1.8,2.7
				c-1.1,1-2.6,1.3-4.1,1.7c-2.1,3.2-3,7.2-2.6,11c1.2-0.6,2.3-1.3,3.5-1.9c0-1.1,0.4-2.1,0.8-3.1c1.1-2.7,2.6-5.3,4.2-7.7
				c1.3-2.1,3.1-3.9,5.2-5.2c1.6-1,3.3-1.9,4.9-2.8c1.6-1,3.4-2,4.3-3.7c-2.2,0.5-4.2,1.8-6.2,2.9c0-0.4-0.2-0.9,0.2-1.2
				C84.5,100.2,85.9,99,87,97.4z"/>
			<path class="st80" d="M123.8,97.8c-0.7-0.4-1.6,0-2.3,0.2c3.2,3.2,7,5.6,10.8,8.1c1.4,0.6,2.8,1,4.2,1.5c-1.3,0.3-2.6,0.3-4,0.5
				c0.7,1.2,1.7,2.1,2.8,2.9c2.9,2,6.4,2.8,9.2,5c2,1.6,3.7,3.6,5.4,5.5c0.4-0.7,0.7-1.5,1-2.2c-0.5-1.2-1.4-2.4-1.2-3.8
				c0.1-1.9-0.4-4,0.6-5.8c-1-1.6-2.3-3-3.8-4.2c0.1,1.5,0.4,2.9,0.7,4.4c-1.1-1-2.4-1.9-3.9-2.4c-2.3-0.9-4.8-1.3-7.1-2
				c-2-1-4-2.1-5.4-3.9c-0.2-0.3-0.4-0.5-0.7-0.6c-0.4-0.2-0.9-0.4-1.3-0.7C127.1,99.6,125.4,98.6,123.8,97.8z"/>
			<path class="st80" d="M105,98.4c-0.5-0.1-1-0.3-1.5-0.4c-1.3,1-2.7,2.1-3.9,3.3c-0.7,0.8-1.1,1.8-1.8,2.6c-0.9,0.3-1.8,0.6-2.7,1
				c1.7,0.6,3.4,0.9,5.1,1.4C101.7,103.7,103.4,101.1,105,98.4z"/>
			<path class="st80" d="M62.4,105.1c-1.6,1.1-3.2,2.2-4.8,3.3c-0.5,0.4-1,0.6-1.6,0.9c-0.5,3.5-2.9,6.3-3.5,9.8
				c0.5,2.7,0.3,5.5,0.4,8.2c-0.1,4.4-0.1,8.9,1.4,13c0.1,0.4,0.4,0.6,0.6,0.9c1-2.3,2.7-4.2,4.7-5.7c1.5-1.9,3-3.7,4.3-5.7
				c0.1-1.2,0-2.3,0.1-3.5c0-1.9,0.1-3.7,0.2-5.6c-1.4,1-2.8,2.1-4.4,3c0.9-3.4,3.4-6.1,4.3-9.4c0.2-1,0.5-2.1,0.1-3.2
				c-1.1,0.9-2.3,1.8-3.5,2.6c0.5-1.6,1.3-3.2,2-4.7C62.4,107.7,62.4,106.4,62.4,105.1z"/>
			<path class="st80" d="M85.3,106.9c-0.9-0.1-2-0.7-2.8,0c-0.7,1.5-1.4,3.1-2,4.6c0.6,0,1.2,0,1.9,0
				C83.3,110,84.3,108.4,85.3,106.9z"/>
			<path class="st80" d="M121.4,106.8c-1.3-0.1-2.7,0.2-3.8,1c0,1.3-0.2,2.6-0.2,3.9c0.9,0.1,1.8,0.1,2.7,0.2
				C120.4,110.2,121,108.5,121.4,106.8z"/>
			<path class="st80" d="M162.7,118.7c-1.6-1.9-3.9-3.3-6.3-3.7c0.6,1.4,1.6,2.6,2.3,3.9c1.9,3.2,3.6,6.7,4,10.4
				c-0.8-0.2-1.6-0.3-2.4-0.3c0.5,1.6,0.9,3.3,1.6,4.8c1-0.5,2.2-0.5,3.3-0.5c-0.5-1.6-1.2-3.2-1.5-4.8c2.1,1.9,2.9,4.8,3.8,7.3
				c0.7,0.5,1.6,0.8,2.4,1.2c0.8,0.1,1.5,0.2,2.3,0.3C170.8,130.2,164.6,125.5,162.7,118.7z"/>
			<path class="st80" d="M47.6,129.1c-2.1-4-1-8.7-2.2-12.9c-0.4,2.5-1.1,5.1-1.5,7.6c-0.1,1.8,0.1,3.5,0.1,5.3
				c0.8,4,2.2,7.9,3.3,11.8c0.1,0.1,0.2,0.3,0.3,0.4c1-1.5,1.1-3.4,1.4-5.2c-0.6,0.1-1.2,0.1-1.9,0.1c-0.5-2.4,0.2-4.7,0.6-7
				L47.6,129.1z"/>
			<path class="st80" d="M145.7,122c-1.9-2.1-4.4-3.6-7-4.8c-0.2,0.2-0.4,0.5-0.6,0.7c2.6,2.3,5.2,4.5,7.5,7
				C145.9,124,146.5,122.8,145.7,122z"/>
			<path class="st80" d="M98.6,118.4c-4.1,1.2-8.5,2.2-12.1,4.6c-0.9,1.2-1.3,2.6-1.9,4l0.3,0c1.7,0.1,3.5-0.3,5.2,0.1
				c0.9,0.2,1.5,0.9,2,1.7c1-0.8,1.9-1.6,2.9-2.3c0-0.3-0.1-0.6-0.1-0.9c-1.7,0-3.5,0-5.2,0c0.5-0.8,0.8-2.4,2-2.1c2,0,4,0.3,6,0.3
				c0.2-0.9,0.3-1.8,0.5-2.7l0.1-0.3C98.5,119.9,98.5,119.2,98.6,118.4z"/>
			<g>
				<path class="st80" d="M139.4,130.8c-1.4,0.2-3-0.6-4.3,0.3c-0.6,0.4-0.8,1.3-0.3,1.9c1.2,1.5,2.5,3,3.5,4.6
					c1.2,1.9,1.6,4.1,2.5,6.1c0.1-1.4,0.4-2.8,0.5-4.2c0.8-1.5,1.5-3.2,2.4-4.6c0.7,2.8,1.9,5.4,3,8.1c-0.8,0.1-1.5,0.2-2.3,0.4
					c-0.3,1.2-0.6,2.4-0.9,3.6c-0.1,0.3-0.2,0.7,0,1c1,1.5,2,2.9,2.9,4.5c-0.9,0.4-1.7,0.8-2.6,1.2c0.3,1.9,0.7,3.8,0.3,5.7
					c-3-3.7-4.5-8.3-7.7-11.8c0.1,4.6,3.6,7.9,5.2,12c-0.9-0.1-1.9-0.3-2.8-0.4c-0.1,1.3-0.1,2.6-0.2,4c-2.4-3.2-3.2-7.1-5-10.5
					c-0.3,2.7,0.4,5.4,1.2,7.9c-0.9-0.4-1.8-1.1-2.8-1.1c-0.1,1-0.1,2.1-0.2,3.1c-1.2-1.5-2.3-3-3.5-4.6c0.1,2.3,0.1,4.5,0.1,6.8
					c-1.9-2-3.5-4.3-4.6-6.8c-0.6-1.6-1-3.3-1.7-4.8c-0.9,0.8-1.2,2.1-1.1,3.3c0.1,1.1,0.4,2.2,0.5,3.3c-0.9-0.9-2.4-1.8-2.2-3.3
					c0.4-2.7,1.5-5.2,1.6-7.9c0.1-1.3,0.3-2.7,0.4-4c0.1-0.7,0.1-1.3,0.5-1.9c0.6-0.9,1.1-1.9,1.6-2.9c0.5,1.1,1,2.1,1.5,3.2
					c1.2,2.4,3.1,4.3,5.2,5.9c-0.1-1.2-0.1-2.4-0.2-3.5c0-0.5,0-1.1,0-1.6c1.3,1,2.5,2.1,3.9,3c-0.5-2.2-1.4-4.3-2.4-6.3
					c-0.4-1.8-0.8-3.6-1.1-5.5c1.6,2.7,2.8,5.6,4.6,8.2c0.3-3.9-0.5-7.8-1.5-11.6c-0.6-1-1.6-1.8-2.5-2.6c-1.2-1.5-2.6-2.7-3.9-4
					c-0.6-0.6-0.6-1.5-0.7-2.3c1.5-0.5,3-0.9,4.5-1.4c2.2,2.3,5.3,3.7,7.2,6.3C138.8,128.6,139.4,129.7,139.4,130.8z M134.4,128.3
					c-0.3,0.3-0.7,0.8-0.6,1.3c0.3,0.3,0.8,0.5,1.3,0.5c0.7-0.1,0.8-0.8,1-1.3C135.6,128.4,135,128.1,134.4,128.3z"/>
			</g>
			<path class="st80" d="M70,123c0,0.9,0,1.8-0.4,2.6c-0.9,2.1-2.7,3.5-4.4,5l-0.1,0.1c0,2.2,0.3,4.4,0.4,6.5c0.5,0.9,0.9,1.9,0.9,3
				c0,1.9-0.2,3.7,0.1,5.6c0.3-0.3,0.6-0.6,0.9-0.9c1.3-3.8,3.7-7.1,5.3-10.8c0.8-1.9,2.3-3.5,4-4.7c0.5-2,0.6-4.1,0.9-6.1
				c-2.6,2.2-4.6,5-7,7.4c-0.8,1.2-1,2.6-1.6,3.9c0-0.6-0.2-1.3,0.1-1.8c1.2-2.8,2.6-5.5,3.6-8.3C71.6,124.2,70.4,124,70,123z"/>
			<path class="st80" d="M119,124.1c0-0.5-0.5-0.7-0.9-0.9c-0.3,0.1-0.5,0.1-0.8,0.2c0.1,0.4-0.1,0.9,0.3,1.2
				C118.2,124.9,118.8,124.6,119,124.1z"/>
			<path class="st80" d="M79.7,132.2c-1,1.1-2.1,2-3,3.1c-2,2.8-0.8,6.6-2.9,9.3c-1.6,1.9-3.1,3.8-4.6,5.8c0.4,0.7,0.8,1.3,1.2,2
				c1.9-2.7,3.8-5.4,6-7.9c0.2,1.1,0.4,2.2,0.6,3.3c0.8-2,1.6-3.9,2.5-5.9c0.6-0.7,1.8-0.9,2.2-1.9c-0.5-0.2-1.1-0.4-1.6-0.7
				c0.4-1.2,1-2.4,1.5-3.7c-0.5-0.7-1-1.5-1.3-2.4C80.1,132.9,79.9,132.5,79.7,132.2z"/>
			<path class="st80" d="M88.3,132.5c-0.7,1.2-1.3,2.4-1.9,3.6c-0.9,1.8-1.8,3.6-2.3,5.6c-0.8,3.3-0.7,6.7-1.5,10
				c0.3,1.2,0.4,2.4,0.7,3.5c0.7,0,1.5,0,2.2,0c0.3-1,0.4-2.1,0.6-3.2c0.2-1.3,0.4-2.6,0.8-3.8C88.2,143.1,88.6,137.8,88.3,132.5z"
				/>
			<path class="st80" d="M60.6,141.7c0-1-0.6-1.8-1.1-2.6c-0.4,1.3-0.9,2.5-1.2,3.8c-0.7,2.3-1.5,4.7-2.1,7
				c-0.2,2.2-0.5,4.5-0.6,6.7c1-0.5,2.1-0.9,3.1-1.5c0.4-0.2,0.4-0.6,0.6-1c0.5-1.4,1-2.7,1.4-4.1c-0.8,0.2-1.7,0.3-2.5,0.3
				C58.6,147.4,60.9,144.9,60.6,141.7z"/>
			<path class="st80" d="M160.9,144c-0.7-0.9-1.2-2-2.2-2.6c0.3,2.7,0.6,5.5,0.9,8.2c-1,0.8-2.1,1.7-3.2,2.4c-1.5-2.3-3-4.7-4.7-6.9
				c-0.1,0.6-0.2,1.1-0.3,1.7c0.4,1,0.9,2,1.3,3c1.3,3.4,1.5,7.2,3.2,10.6c0.4,0.2,0.7,0.4,1.1,0.6c0.1,3.9,1.9,7.4,2.5,11.2
				c0,0.4,0.1,0.8,0.1,1.2c0.4,0.8,1.4,1,2.2,1.3c0.1,0,0.4,0.1,0.5,0.2c0.3,2.1,0.4,4.3,0.7,6.4c1.5-5.1,1-10.6,2.7-15.6
				c0.1-1.2,0.2-2.4,0.4-3.7c0.1-0.4,0-0.8-0.3-1.1c-2-2.8-4.6-5.1-6.4-8.1c0.8-1.7,1.4-3.4,1.8-5.2c0.8,0,1.7,0.1,2.5,0.2
				C162.8,146.4,161.7,145.3,160.9,144z"/>
			<path class="st80" d="M80.8,144.3c-1.7,3-3.1,6.3-3,9.9c0.7-0.8,1.5-1.7,2.3-2.5C81.5,149.6,81.7,146.7,80.8,144.3z"/>
			<path class="st80" d="M174.3,151.6c-1.8-1.6-3.3-3.5-5-5.2c-0.7,0.4-1.4,0.7-2,1.3c1.5,1.5,3.2,2.7,4.9,4.1
				c-0.5,0.9-1.6,1.6-1.7,2.7c1.2,2.3,2.3,4.7,4.1,6.6c0.9-1.3,1.8-2.6,2.6-3.9l0,0c-0.7-1.3-1.8-2.1-3-3c1.2,0.2,2.3,0.4,3.5,0.6
				c-0.1-0.6-0.2-1.1-0.2-1.7c-0.3-0.2-0.7-0.3-1-0.5c-0.1-0.3-0.2-0.6-0.3-0.9c0,0.2,0,0.5,0,0.6
				C175.3,152.2,174.8,152,174.3,151.6z"/>
			<path class="st80" d="M110.5,150.3c-0.9-1.1-1.5-2.5-2.4-3.6c-0.8,2.2-1.5,4.3-2.1,6.5c-0.1,0.7-0.2,1.4-0.4,2.1
				c-0.2,3,0.1,6.1,1.6,8.7c0.4-1,0.7-2,1-3.1c1,0.6,2,1.4,3,2.1c0.1-1.7,0.1-3.3,0.3-5c0-0.1,0-0.2,0-0.3c0.1-2,0.2-4,0-5.9
				C111.4,151.3,110.9,150.8,110.5,150.3z"/>
			<path class="st80" d="M95.8,147.7c-0.9,0.9-1.5,2.1-2.2,3.2c0.1,1.5-0.1,3,0.2,4.5c0.2,1.3,0.9,2.5,1.9,3.4
				c0.3-0.9,0.7-1.7,1-2.5c-0.1-0.4-0.2-0.9-0.2-1.3C96.3,152.5,96,150.1,95.8,147.7z"/>
			<path class="st80" d="M99.6,160.6c0.9-3.1,1.8-6.8-0.2-9.6c-1,3.6-1.9,7.3-2.9,11c0.3,1.4,0.6,2.9,0.9,4.3
				C98,164.3,98.8,162.4,99.6,160.6z"/>
			<path class="st80" d="M123.1,163c-1.3-1.2-2.8-2.4-4.6-2.5c1.2,1.4,2.3,2.8,3.5,4.3c1.3,1.8,2.5,3.7,3.6,5.7
				c0.4-0.7,0.7-1.4,1-2.2c-0.2-0.5-0.2-1-0.3-1.6C125.2,165.5,124.2,164.2,123.1,163z"/>
			<path class="st80" d="M83.8,161.5c-0.5,0.1-1,0.3-1.5,0.4c-2.3,5.3-5.2,10.3-8.9,14.7c0.7-3.7,2.9-7,4-10.6
				c-0.5-0.3-0.9-0.5-1.4-0.8c-0.2,0.4-0.3,0.8-0.5,1.2c-0.8,2.1-2,4-3.2,5.9c-0.5,0.9-1.5,0-2.1-0.3c-1.7,3.1-3.3,6.3-3.8,9.9
				c-0.2,1.4,0.1,2.8,0.4,4.2c-1,1-2.1,1.8-3.1,2.8c2.3,2.2,4.5,4.5,7,6.5c0-1.6,0-3.1,0.1-4.7c-1.4-0.4-2.1-1.8-2.1-3.2
				c0-1.9-0.2-3.7,0.3-5.6c0.6-2.3,1.7-4.4,3-6.4c0.1,3.3-0.1,6.6-0.4,9.8c0.6,0.7,1.1,1.5,1.2,2.4c0.2,1.9-0.6,3.6-1.1,5.4
				c0.9,0,1.7-0.1,2.6-0.1c-0.1,1.5-0.2,3-0.3,4.5c0.2,0.1,0.5,0.3,0.7,0.4c1.2-2.1,2.3-4.3,3.5-6.5c0,2.4-0.1,4.8-0.1,7.2
				c0.7,0.2,1.3,0.4,2,0.5c0-0.5,0-0.9,0-1.4c-0.7-3.5-0.1-7.1,0.7-10.5c0.4-1.4-0.5-2.7-1.3-3.7c-0.5-0.6-1.2-1.2-1-2.1
				c0.4-2.4,2.2-4.4,4.2-5.6c0,0.4,0,0.8,0,1.2c1.1-0.7,2.2-1.4,3.3-2.2c-0.9-0.8-1.7-1.6-2.7-2.3c-1.6,1.8-3.4,3.4-5.3,4.9
				C79.7,172,82,166.8,83.8,161.5z"/>
			<path class="st80" d="M157.7,168.8c-0.8-2.1-2.5-3.6-4-5.2c-0.2,0.6-0.5,1.1-0.5,1.7c0.4,1.5,0.7,3,1,4.5
				c0.3,1.4-0.1,2.8-0.3,4.1c-1-3.4-2.1-6.9-4-10c-0.3,0.8-0.6,1.6-0.9,2.3c0.3,1.2,0.5,2.4,0.7,3.6c-0.3,0.4-0.6,0.7-0.9,1.1
				c-0.7,1.4-1.1,3-1.7,4.4c-0.6-0.3-1.3-0.6-1.8-1.2c-0.2-0.6-0.2-1.4-0.5-2c-0.7,1.6-1.3,3.3-1.9,4.9c-0.1-0.2-0.2-0.3-0.2-0.5
				c0.1,1.4-0.4,2.7-0.6,4c-0.4,2.3-0.7,4.6-0.7,6.9c4.5-2.1,7.3-6.9,7.5-11.7c1.8,2,1.6,4.8,2,7.3c1.1-1.4,1.8-3.2,3-4.5
				c-0.1,1.6-0.2,3.1-0.4,4.7c-0.1,0.9,0.3,1.8,0.1,2.7c-0.9,1.9-2.2,3.6-3.3,5.4c-1.2-0.2-2.3-0.6-3.5-0.8c0.4,0.8,0.9,1.6,1.4,2.3
				c0.3,0,0.6,0.1,0.9,0.1c2.6-0.1,5.2-0.7,7.7-1.3c1-1,1.8-2.2,2.7-3.2c-1.1-0.1-2.2-0.1-3.3-0.1c0.3-2.9,0.5-5.7,1-8.6
				c0.2-1.4,0.5-2.8,0.8-4.1C158.1,173.4,158.4,171,157.7,168.8z"/>
			<path class="st80" d="M48.7,164.7c-1.2,0.9-2.2,2-3.4,2.8c0.4,2.1,1.5,4.1,3,5.6c0.4-1,0.5-2,0.9-3
				C49,168.3,48.9,166.5,48.7,164.7z"/>
			<path class="st80" d="M171.7,167.6c-0.7-0.3-1.4-0.5-2.2-0.6c-0.1,2.3-0.4,4.9,1,7c0.6-1.9,1-3.9,1.4-5.9
				C171.8,168,171.7,167.8,171.7,167.6z"/>
			<path class="st80" d="M139.9,177.2c-1.6-3.2-2.4-6.6-3.1-10.1c-0.1,5,0.1,10.3-1.9,15c-0.2-2-0.2-4-0.3-6c-0.1-0.5-0.3-1-0.5-1.5
				c-1.3,1.7-2,3.8-2.6,5.8c-0.3,1-0.5,2-1,2.8c-0.4-2.2-0.5-4.5-0.8-6.7c-0.5,1.1-0.5,2.3-1,3.5c0.2,2.2,0.1,4.3,0.1,6.5
				c0,1.8-0.2,3.6,0.1,5.4c1.3-2,1-4.5,1.6-6.8c0.8,2.1,1.3,4.3,2,6.5c1.3-2,2.9-3.7,4.8-5c0.8-0.5,0.9-1.4,1.1-2.2
				c0.7-2.8,1.5-5.6,1.5-8.5C140,176.3,139.9,176.8,139.9,177.2z"/>
			<path class="st80" d="M101,172.9c-0.5,1.1-0.8,2.3-1.3,3.4c-1,2.1-2.4,3.9-4,5.6c-0.8,1.6-1.4,3.3-2.2,4.9
				c1.5,0.6,2.8,1.6,4.2,2.3c1.1-2.4,1.6-4.9,2.6-7.3c0.7,0.1,1.4,0.2,2,0.3l0-0.1c-0.2-1.6-0.3-3.2-0.5-4.8
				C101.6,175.7,101.3,174.3,101,172.9z"/>
			<g>
				<path class="st80" d="M118.7,192.9c-0.1,2.1-0.2,4.3-0.2,6.4c1.6-5.1,2-10.5,3-15.8c0.1-0.3,0.2-0.6,0.3-0.9
					c0.5,1.1,0.9,2.2,1,3.4c0.3,2.4-0.2,4.8-0.1,7.2c0.8-0.9,1.5-1.9,2.2-2.9c0.2,4.7-2.3,8.9-3.7,13.3c2.2-1.4,4-3.4,5-5.8
					c0.9,1.5,2.1,2.8,3.2,4.1c-3.7,1.7-7.6,2.9-11.3,4.4c-0.1-1.8,0.1-3.7,0.1-5.5c-0.6,0.1-1.2,0.2-1.8,0.3c-0.6-1.6-1.1-3.3-1.7-5
					c-0.6,0.9-0.4,2.1-0.4,3.1c0.1,2.1-0.2,4.3,0.3,6.3c0.3,0.4,0.8,0.6,1.3,0.8c-1.8,0-3.6,0-5.4-0.1c-2.7-0.2-5.3-0.7-7.9-1.5
					l0.2,0c1.7-0.1,2.9-1.5,3.5-3c0.7-1.6,1.3-3.3,2-4.9c1.7-4.3,2.7-8.8,3.6-13.3c0.5-2.9,0.9-5.9,1.7-8.7c1.4,1.8,2.6,3.7,3.6,5.7
					C118.8,184.5,119,188.7,118.7,192.9z M111.1,194.3c-0.4,0.6-0.6,1.3-0.9,2c-1.1,2.9-2.3,5.9-2.1,9c0.5,0.2,1,0.4,1.5,0.6
					c0.8-1.8,1-3.7,1.4-5.6c0.4-2.1,1.3-4,1.6-6.1C112.3,194.1,111.6,193.8,111.1,194.3z"/>
			</g>
			<path class="st80" d="M107.9,175.5c-0.8,3.7-1.4,7.6-1.4,11.4c2.7-1.9,3.7-5.6,3-8.8C108.9,177.3,108.4,176.4,107.9,175.5z"/>
			<path class="st80" d="M93.3,178.3c-1.5,1.9-3.1,3.8-4.8,5.6c-1.2,3.3-3.3,6.2-4.2,9.5c-0.5,1.8-0.6,3.9,0.2,5.7
				c1.5-1.1,2.8-2.6,4.3-3.7c-0.3,1.9,0,3.8-0.6,5.6l0,0.1c1.2,0.3,2.4,0.8,3.5,1.1c-0.2-0.6-0.3-1.3-0.4-1.9c-1-2.2-0.8-4.7-0.2-7
				c0.4-1.5,1-2.9,1.5-4.4C92,185.4,93.9,181.9,93.3,178.3z"/>
			<path class="st80" d="M140.8,191.1c0-0.8-0.4-1.4-0.8-2c-0.8,1.2-1.3,2.5-1.9,3.7c-0.7,1.6-1.5,3.1-1.9,4.7
				c1.5-0.8,3-1.5,4.6-2.2C140.8,193.9,140.8,192.5,140.8,191.1z"/>
			<path class="st80" d="M146.5,193.4c-0.6-1.1-1.6-2.6-3-2.2c-0.8,0.1-1.1,1.2-0.5,1.7c0.7,0.6,1.6,0.7,2.5,0.8
				C145.8,193.6,146.1,193.5,146.5,193.4z"/>
			<path class="st80" d="M100.8,195.6c-1,0.3-2.1,0.8-2.6,1.8c-0.3,0.6,0.2,1.1,0.4,1.7c0.1,0,0.3-0.1,0.4-0.2
				C100.4,198.5,100.5,196.8,100.8,195.6z"/>
		</g>
		<g>
			<path class="st81" d="M65,51.3c-0.6-0.3-1.1-0.6-1.7-0.8c-2.7,4.3-5.9,8.3-8.4,12.8c0.4,0.7,0.7,1.4,1,2
				C58.6,60.4,61.2,55.3,65,51.3z"/>
			<path class="st81" d="M94.7,62.7c-0.9-4.7-5.8-8.5-10.6-7.5C87.2,58.2,90.5,61.3,94.7,62.7z"/>
			<path class="st81" d="M62.7,67.2c-0.5,0.3-0.9,0.6-1.4,0.9c-2.6,1.7-5.7,2.4-8.5,3.6c2.2,0.3,4.5,0.4,6.7,0.4
				c1.2-1.2,2.6-2.4,3.9-3.6C63.1,68.1,62.9,67.7,62.7,67.2z"/>
			<path class="st81" d="M117.7,94.4c-1.5-1.9-3.4-3.4-5.5-4.7c-0.9,0.6-1.7,1.4-2.6,2c-0.5,0.1-1.1,0-1.6,0
				c0.3,0.9,0.6,1.7,0.9,2.6c2.1,0,4.2,0,6.3,0.1C116.1,94.4,116.9,94.4,117.7,94.4z"/>
			<path class="st81" d="M118.2,103.1c-1.2-0.1-2.3-0.3-3.5-0.4c-0.5,1.6-0.9,3.2-1.3,4.8c0.3,0.2,0.6,0.3,1,0.5
				C115.5,106.3,116.9,104.7,118.2,103.1z"/>
			<path class="st81" d="M56.9,102.7c-0.8,1.7-1.4,3.5-2,5.3c-0.9,2.6-1.7,5.1-2.9,7.6c-0.4,0.9-0.2,1.9-0.2,2.9
				c0.1,1.9,0,3.7-0.2,5.6c0.3-1.6,0.6-3.3,0.9-4.9c0.5-3.5,3-6.3,3.5-9.8c0.3-1.4,0.5-2.7,0.6-4.1
				C56.8,104.3,56.8,103.5,56.9,102.7z"/>
			<path class="st81" d="M110.6,104.7c-0.9-0.1-1.7-0.2-2.6-0.3c0.1,0.7,0.3,1.5,0.4,2.2c0.6,0.9,1.4,1.7,2.1,2.6
				c0.3-0.2,0.7-0.5,1-0.7C111.2,107.2,110.9,105.9,110.6,104.7z"/>
			<path class="st81" d="M109.2,115.1c-1.5-1.1-3.2-1.8-5-2.2c0.1,1,0.1,2,0.1,3c-0.7,0.5-1.4,1-2.1,1.5c1.4,0,2.9,0,4.3,0
				c1.4,0.1,2.9,0.1,4.3-0.3C110.5,116.4,109.9,115.7,109.2,115.1z"/>
			<path class="st81" d="M122.1,115.2c-1.6-0.3-3.3-0.4-4.9-0.6c0.2,1.3,0.6,2.8,1.8,3.4c4.1,0.7,8.4,1.1,12,3.4
				c2.2,2.3,5.3,3.7,7.2,6.3c0.7,0.9,1.2,2,1.2,3.1c0.1,1.4,0.6,2.7,0.9,4.1c-0.4-2.6-0.6-5.2-1.4-7.8c-1.3-1-2.6-2-4-3.1
				c-1-0.8-1.9-1.8-3-2.5c-2.1-1.4-4.4-2.3-6.4-3.8C124.4,116.9,123.3,115.9,122.1,115.2z"/>
			<path class="st81" d="M114.7,125.3c-0.4,0.8-1,1.6-1.2,2.4c0.8,2.6,1.6,5.2,1.8,7.9c0.2,1.2,0.2,2.3,0.3,3.5
				c0.9-0.1,1.7-0.2,2.6-0.3c0.1-2.7,0.7-5.5,0-8.2C117.3,128.7,115.8,127.2,114.7,125.3z"/>
			<path class="st81" d="M65.2,130.6c-0.4-1.4-0.7-2.9-1.3-4.3c-0.1,1.2,0,2.3-0.1,3.5c-1.3,2-2.8,3.9-4.3,5.7
				c-0.8,2.4-1.9,4.9-1.4,7.4c0.4-1.3,0.8-2.6,1.2-3.8C60.7,135.9,62.8,133.2,65.2,130.6L65.2,130.6z"/>
			<path class="st81" d="M101.1,126.6c-0.6,0.1-1.2,0.1-1.8,0.2c-1.1,0.1-2.1,0.3-3.2,0.4c-1,2.3-2.1,4.7-3.1,7
				c0.7,1.3,0.9,2.9,1.9,4.1c0.4-0.6,0.8-1.2,1.3-1.8c0.1-0.4,0.2-0.8,0.3-1.1c-0.7,0-1.4,0-2.2,0c0.7-2.2,1.6-4.3,2.9-6.2
				c0.3,1.3,0.4,2.7,1.2,3.9c0.5-1.2,1-2.3,1.6-3.4C100.6,128.7,100.8,127.6,101.1,126.6z"/>
			<path class="st81" d="M105,131.2c-0.9-0.4-1.9-0.9-2.9-1.2c-0.3,0.5-0.6,1-0.9,1.5c-0.6,0.9-1.5,1.6-2.5,2.3
				c0.1,0.8,0.1,1.6,0.1,2.4c1.4-1,2.5-2.3,3.9-3.2c-0.4,1.2-0.9,2.2-1.6,3.3c-0.9,1.7-1.9,3.4-2.9,5c2.3-0.5,3.9-2.5,5.2-4.3
				c0.4-0.9,0.8-1.8,1.2-2.7C105.2,133.3,105,132.2,105,131.2z"/>
			<path class="st81" d="M147.4,139c-0.5-0.3-0.9-0.7-1.4-1c0.6,1,1.2,2,1.6,3c1.6,3.6,2.1,7.6,4.4,10.8c0.2-0.7,0.4-1.5,0.7-2.2
				c-0.4-1-0.9-2-1.3-3c-1.1-1.9-2.1-3.9-3.1-5.9C148,140.2,147.7,139.6,147.4,139z"/>
			<path class="st81" d="M179.8,151.1c-1.4-2.4-2.7-4.8-4.4-6.9c0.8,2.9,1.7,5.9,1.9,9c0.1,0.6,0.1,1.1,0.2,1.7
				c-1.1-0.2-2.3-0.4-3.5-0.6c1.1,0.8,2.3,1.7,3,3C178.2,155.2,179.2,153.3,179.8,151.1z"/>
			<path class="st81" d="M149.2,151.1c-0.6-0.7-1-1.5-1.7-2.1c0.6,3.5,2.3,7.5,6,8.7C152.5,155.3,150.8,153.2,149.2,151.1z"/>
			<path class="st81" d="M101.4,165.6c-0.9,0.9-1.6,2.1-1.4,3.5c0.4,1.3,0.8,2.6,1.1,3.9c0.3,1.4,0.6,2.7,0.8,4.1
				c0.4-1.2,1.6-2.4,1.2-3.8c-0.5-1.9-1-3.8-1.3-5.7C101.6,166.9,101.5,166.3,101.4,165.6z"/>
		</g>
		<g>
			<g>
				<path class="st82" d="M97.3,59.5c-0.6,1.8-1.1,3.6-1.8,5.3c-2.3-1.2-4.4-2.6-6.6-4.1c-1.2-0.9-2.4-1.8-3.9-2.2
					c-3.1-1-6.5-0.3-9.4,1.2c-3,1.6-5.6,4.1-7,7.2c-0.1-0.5-0.2-1-0.3-1.6c-1.6,1.3-3,2.9-4.4,4.5c-0.2-0.4-0.5-0.8-0.7-1.2
					c-0.2-0.4-0.5-0.9-0.7-1.3c2.3-1.8,4.2-4.1,6-6.3c2.6-2.8,5.6-5,8.4-7.6c1.2-0.6,2.6-0.5,3.8-0.9c2.6-0.9,5.5-0.6,8,0.6
					C92.1,54.7,94.8,57.1,97.3,59.5z M84.1,55.2c3.1,3,6.4,6.1,10.6,7.5C93.8,58,88.9,54.2,84.1,55.2z"/>
			</g>
			<path class="st82" d="M135.1,66c-1.3,0.1-2.7,0.5-3.7,1.4c-2.1,1.8-3,4.5-4.6,6.7c-1,1.5-2.2,2.9-3.2,4.4c-0.1,0.3-0.3,0.7-0.4,1
				c0.5,0.3,1,0.7,1.4,1.1c0.7-1.5,1.4-3,2.5-4.1c0.8-0.8,1.9-1.3,2.9-1.9c3.9-2.3,7.7-4.9,11.6-7.3c-2.2-0.1-4.3,0.2-6.4,0.3
				C135.1,67,135.1,66.5,135.1,66z"/>
			<path class="st82" d="M66.2,72.1c-0.9,1.6-1.6,3.3-1.9,5.1c-0.2,1.8,0,3.5-0.1,5.3c0.1-0.6,0.4-1.2,0.9-1.6
				c2.4-2.1,3.8-5.6,2.8-8.8c-0.6,0.7-1.2,1.3-1.8,2C66.2,73.5,66.2,72.8,66.2,72.1z"/>
			<path class="st82" d="M135.3,78.2c-1.2-0.6-2.2-1.6-3.4-2.2c-0.7,1-1.8,1.8-2.8,2.5c0.8,0.4,1.6,0.8,2.2,1.3
				c0.2-0.1,0.5-0.2,0.7-0.2c0.2,0,0.5-0.2,0.6,0c1.3,0.8,2.3,2.4,3.9,2.6c1.5-0.1,3-0.8,4.1-1.8C138.8,79.8,137,79.2,135.3,78.2z"
				/>
			<path class="st82" d="M52.6,82c-3.4,3.6-6.5,7.6-9.7,11.4c-0.6,5.3-0.6,10.7-0.4,16c0.8,0.9,1.5,1.9,2.3,2.7
				c-0.3-3.6-1.4-7.1-0.9-10.7c0.1-1.2,0.5-2.4,1-3.6C47.2,92.5,50,87.3,52.6,82z"/>
			<path class="st82" d="M93.5,90c-0.5,1.5-0.5,3.1-1.4,4.4c-1.1,0.7-2.4,1-3.6,1.5c-0.1,0.1-0.4,0.2-0.6,0.3c0.3,0.6,0.6,1.2,1,1.8
				c1.4-0.3,2.7-0.9,4-1.2c0.1,0.2,0.2,0.6,0.2,0.8c-0.9,0.4-2,0.9-2.1,2c0.1,0.7,0.9,0.7,1.5,0.9c-0.8,0.8-1.7,1.7-2.6,2.5
				c0.9-0.1,1.8-0.1,2.6,0c1.8,0.2,3.6,0.1,5.2,1c0.7-0.8,1.2-1.8,1.8-2.6c-1.1-0.2-2.3-0.6-3.3-1.1c0.7-1.4,1.6-2.6,2.6-3.8
				c-2.1,0-4.1-1.2-5.2-3C93.2,92.3,93.3,91.1,93.5,90z"/>
			<path class="st82" d="M61.1,92c-1,3.2-2.9,6.1-5.2,8.5c-0.4,1.4-0.9,2.8-1.3,4.3c-0.3,1.1,0.2,2.1,0.2,3.2c0.6-1.8,1.2-3.6,2-5.3
				c0,0.8-0.1,1.7-0.2,2.5c1.1-0.1,2.1-0.1,3.2-0.2c0.2-2.4,0.4-4.9,1.2-7.3C61,95.8,61.1,93.9,61.1,92z"/>
			<path class="st82" d="M53.8,101.2c-0.7-1.2-1.4-2.5-2.1-3.7c-0.6,1-1.1,2-1.5,3.1c-1.3,2.9-2.4,5.8-2.9,8.9
				c-0.4,1.9-0.2,3.9-0.2,5.9c0.7-0.4,1.4-0.8,2.2-1.2c0.6-2.2,1.5-4.2,2.2-6.3c0.3-1,0.5-2,0.8-3C52.5,103.6,53.3,102.5,53.8,101.2
				z"/>
			<path class="st82" d="M121.4,98c-0.2-0.1-0.3-0.1-0.5-0.2c-0.3,0.6-0.5,1.1-0.8,1.7c1.4,1.6,3.2,2.8,4.6,4.4
				c1.1,1.2,1.9,2.7,2.1,4.4c-0.7,1-1.5,1.9-2.4,2.8c2,1,4.1,1.6,6.3,2.1c-0.9-1.3-1.9-2.6-2.8-3.9c1.2,0.4,2.4,0.8,3.5,1.4
				c-0.1-0.9-0.4-1.7-0.4-2.6c0.3-0.7,0.8-1.3,1.1-1.9C128.5,103.7,124.7,101.2,121.4,98z"/>
			<path class="st82" d="M175.5,99.6c-0.3,0.7-0.7,1.4-1,2.1c1,1.2,1.6,2.6,2.8,3.5c0.7,0.4,1.5,0.8,2.3,0.4
				C178.3,103.7,176.8,101.7,175.5,99.6z"/>
			<path class="st82" d="M71.8,105.2c-0.9,0.8-1.7,1.7-2.5,2.6c-1.4,1.5-3.6,2-5.2,3.3c0.4,1,0.1,2.1-0.1,3.2
				c-0.9,3.4-3.3,6.1-4.3,9.4c1.6-0.9,3-2,4.4-3c-0.1,1.9-0.2,3.7-0.2,5.6c0.6,1.4,0.8,2.9,1.3,4.3c1.6-1.5,3.5-2.9,4.4-5
				c0.4-0.8,0.4-1.7,0.4-2.6c0.5,1,1.6,1.2,2.6,1.3c-1.1,2.8-2.4,5.6-3.6,8.3c-0.3,0.6-0.1,1.2-0.1,1.8c0.6-1.2,0.9-2.7,1.6-3.9
				c2.4-2.3,4.4-5.2,7-7.4c2.3-1.8,3.4-4.7,3.7-7.5c-1.8,1.1-3.5,2.3-5.2,3.6c-0.7,0.6-1.4,1.2-2.2,1.6c-0.1-0.4-0.2-0.7-0.3-1.1
				c-0.1-0.5-0.4-1-0.3-1.5c0.7-2.2,1.8-4.3,1.7-6.7c-1.6,2.5-3.1,5-4.2,7.7c-0.4,1-0.8,2-0.8,3.1c-1.2,0.6-2.3,1.3-3.5,1.9
				c-0.4-3.8,0.5-7.8,2.6-11c0.8-1.6,1.5-3.3,2.1-5c0.1-0.4,0.2-0.7,0.3-1.1C71.7,106.6,71.8,105.9,71.8,105.2z"/>
			<path class="st82" d="M95.4,111.4c-0.3-0.6-1-0.5-1.6-0.5c-0.3,0.4-0.6,0.8-0.7,1.2c0.4,0.3,0.9,0.5,1.4,0.4
				C95,112.4,95.3,111.8,95.4,111.4z"/>
			<path class="st82" d="M157,122.7c-1.1-2-2.7-3.7-4.7-4.7c0.1,2.5,0.8,4.9,1.2,7.4c-0.8-0.2-1.6-0.5-2.3-0.8c0.5,2.4,2,5,4.5,5.7
				c0.4-1.4,0.2-2.9,0.5-4.3c0.5,1,0.9,2,1.7,2.9c0.7,0.8,1.4,1.7,2.2,2.4C159.4,128.3,158.5,125.4,157,122.7z"/>
			<path class="st82" d="M136.1,128.8c-0.5-0.4-1.1-0.6-1.7-0.4c-0.3,0.3-0.7,0.8-0.6,1.3c0.3,0.3,0.8,0.5,1.3,0.5
				C135.7,130,135.9,129.3,136.1,128.8z"/>
			<path class="st82" d="M139.4,130.8c-1.4,0.2-3-0.6-4.3,0.3c-0.6,0.4-0.8,1.3-0.3,1.9c1.2,1.5,2.5,3,3.5,4.6
				c1.2,1.9,1.6,4.1,2.5,6.1c0.1-1.4,0.4-2.8,0.5-4.2c-0.4-1.6-0.8-3.1-1-4.7C140,133.5,139.5,132.2,139.4,130.8z"/>
			<path class="st82" d="M147.7,130.7c-0.4,0.9-0.3,1.9-0.3,2.9c0.6,1.1,1.3,2.1,1.9,3.1c2.3,3,3.5,6.9,6.3,9.5
				c0.6,0.6,1.3,1.1,2.1,1.5c0.3-2.6,0.3-5.2,0.5-7.9c-0.1-0.4-0.3-0.7-0.4-1.1c-1.1-1.4-2-2.9-3-4.4c-0.5-0.7-1.5-0.6-2.2-0.9
				c0.4,1.7,1.1,3.4,1.5,5.1C151.7,136.2,149.6,133.5,147.7,130.7z"/>
			<path class="st82" d="M110,131.4c-0.7,0.3-1.3,0.7-1.8,1.2c-0.1,2.1-0.1,4.2-0.9,6.2c-0.3,1-1.3,1.4-2.1,2
				c-1.3,0.9-2.8,1.6-3.9,2.7c-1.6,2-1.6,4.7-1.9,7.1c1.5-0.5,3-1.2,4.6-1.6c0.4,1.7-0.1,3.4-0.2,5.1c-0.4,4.5-0.5,9.2-2.2,13.4
				c0.3,1.9,0.9,3.8,1.3,5.7c0.5,1.4-0.7,2.5-1.2,3.8c0.2,1.6,0.4,3.2,0.5,4.8c1-1.8,1.4-3.8,1.9-5.8c0.7-0.8,1.8-1.2,2.6-1.9
				c-0.6-0.9-1.2-1.9-1.8-2.8c-0.9-1.3-1-2.9-1.2-4.4c0.8,0.7,1.5,1.5,2.2,2.4c0.5-4.7-1.7-9.3-0.6-14c0.1-0.7,0.3-1.4,0.4-2.1
				c-0.5-0.5-1.4-1-1.3-1.9c-0.1-3.8,2.2-7,3.7-10.3C109.8,138,109.7,134.6,110,131.4z"/>
			<g>
				<path class="st82" d="M146,138c0.6,1,1.2,2,1.6,3c1.6,3.6,2.1,7.6,4.4,10.8c0.2-0.7,0.4-1.5,0.7-2.2c1.3,3.4,1.5,7.2,3.2,10.6
					c-1.5-0.2-2.9-0.8-4.4-1.2c0.4,2.1,1.1,4.2,1.7,6.3c0.4,1.5,0.7,3,1,4.5c0.3,1.4-0.1,2.8-0.3,4.1c-1-3.4-2.1-6.9-4-10
					c-0.3,0.8-0.6,1.6-0.9,2.3c-0.2-0.6-0.5-1.1-0.8-1.6c-0.6,0.2-1.1,0.4-1.7,0.7c-0.8-1.8-1.5-3.7-2.5-5.4c-0.5,1.6,0,3.4,0.9,4.8
					c-0.7,2.9-1.6,5.7-2.5,8.5c-0.1-0.2-0.2-0.3-0.3-0.5c-0.3-1.4-0.9-2.9-1.8-4c-0.3,2.4-0.2,4.8-0.3,7.2c0,0.5-0.1,0.9-0.1,1.4
					c-1.6-3.2-2.4-6.6-3.1-10.1c-0.1,5,0.1,10.3-1.9,15c-0.2-2-0.2-4-0.3-6c0.5-3.2,0.7-6.8-0.9-9.8c-0.4-0.7-0.8-1.5-1.5-1.8
					c-0.8,0.3-1.4,1.1-1.6,2c-0.4,1.5-0.1,3.1-0.3,4.6c-1.2-1.6-2.6-3-3.9-4.4c-1-1.3-2-2.6-3.1-3.8c0.1-1.7,0-3.5,0.8-5.1
					c1.2,2.5,2.8,4.7,4.6,6.8c0-2.3,0-4.5-0.1-6.8c1.2,1.5,2.3,3.1,3.5,4.6c0-1,0.1-2.1,0.2-3.1c1,0,1.9,0.7,2.8,1.1
					c-0.8-2.6-1.5-5.2-1.2-7.9c1.8,3.5,2.6,7.4,5,10.5c0.1-1.3,0.1-2.6,0.2-4c0.9,0.1,1.9,0.3,2.8,0.4c-1.6-4-5.1-7.4-5.2-12
					c3.2,3.5,4.7,8.2,7.7,11.8c0.4-1.9,0-3.8-0.3-5.7c0.9-0.4,1.7-0.8,2.6-1.2c-0.9-1.5-1.9-3-2.9-4.5c-0.2-0.3-0.1-0.7,0-1
					c0.3-1.2,0.6-2.4,0.9-3.6c0.7-0.2,1.5-0.3,2.3-0.4c-1.1-2.7-2.3-5.3-3-8.1c0-0.9,0.1-1.7,0.1-2.6c1.3,2.1,2.5,4.3,3.5,6.6
					C146.9,138.7,146.4,138.3,146,138z M147.5,149c0.6,3.5,2.3,7.5,6,8.7c-1-2.4-2.7-4.5-4.3-6.6C148.7,150.4,148.2,149.6,147.5,149
					z"/>
			</g>
			<path class="st82" d="M179.6,137.2c-0.8-1-1.6-1.9-2.4-2.9c-0.5,1-1.1,2-1.7,3.1c1.8,3.4,4,6.7,5,10.5c0.8-3.9,1-8,2.6-11.7
				c-0.5,0.1-1,0.3-1.5,0.4C181,136.8,180.3,137,179.6,137.2z"/>
			<path class="st82" d="M59.6,135.5c-1.9,1.5-3.7,3.4-4.7,5.7c-0.6,1.6-1,3.3-1.5,4.9c0.3,0.6,0.6,1.1,0.9,1.7
				c0.5,0.7,1.1,1.5,1.7,2.2c0.6-2.4,1.4-4.7,2.1-7C57.7,140.4,58.8,137.9,59.6,135.5z"/>
			<path class="st82" d="M117.4,147.7c-0.2-2.5-0.4-5.2-1.7-7.3c-0.4,2.2-0.6,4.4-0.7,6.6c-0.8,0.2-1.7,0.3-2.6,0.5
				c-0.6-1.6-1.1-3.2-1.7-4.8c-1,1.3-1.8,2.7-2.6,4.1c0.9,1.2,1.4,2.5,2.4,3.6c0.4,0.5,0.9,0.9,1.2,1.5c0.2,2,0,4,0,5.9
				c0.6-1.5,0.1-3.3,1-4.7c0,0.2,0.1,0.6,0.2,0.8c0.5,5.6,1,11.2,2.8,16.5c0.1,0.4,0.2,0.9,0.3,1.4c-1.9-0.8-3.2-2.7-3.7-4.7
				c-0.6-2.9-0.4-6-0.6-8.9c-0.2,1.7-0.3,3.3-0.3,5c0,1,0,2,0,3c-0.7-0.2-1.5-0.4-2.2-0.6c2.3,3,4.9,5.9,6.8,9.2
				c0.9,1.6,1.7,3.3,2.4,5.1c0.7,2.1,1,4.3,1.5,6.4c0.5-1,0.5-2.1,0.6-3.1c0.2-2.6-0.3-5.1-0.7-7.6c1.4,0.2,2.9,0.6,4.3,0.8
				c0-0.5,0.1-1.1,0.1-1.6c-0.1-0.9-0.2-1.8-0.3-2.6c-0.7-1.6-1.5-3.2-2.4-4.7c-0.5-0.8,0.2-1.7,0.6-2.5c-1.1-1.5-2.3-2.9-3.5-4.3
				c-0.5-0.7-1-1.5-1-2.4c-0.1-1.7,0.5-3.4,0.6-5.1C117.5,151.3,117.6,149.5,117.4,147.7z"/>
			<path class="st82" d="M128.3,142.6c-0.6-0.5-1.2-1-1.9-1.4c-0.4,0.6-0.9,1.1-1.3,1.7c1.2,2.4,3.1,4.3,5.2,5.9
				c-0.1-1.2-0.1-2.4-0.2-3.5c-0.1-0.6-0.2-1.3-0.4-1.9c-0.5-0.6-1.1-1.1-1.6-1.7C128.2,141.9,128.3,142.4,128.3,142.6z"/>
			<path class="st82" d="M86.9,148.3c-0.3,1.3-0.5,2.5-0.8,3.8c-0.1,1.6-0.1,3.2,0,4.8c0.1,1.1,0.4,2.2,1.3,2.9
				c0.3-1.5,0.5-3.1,0.9-4.7c0.5,1.3,0.9,2.6,1.4,3.9c0.1-1.6,0.1-3.2,0-4.8C89.3,152,88.4,149.9,86.9,148.3z"/>
			<path class="st82" d="M126.8,182.3c2.3-4.3,2.3-9.8-0.3-14c-0.3,0.7-0.7,1.5-1,2.2c0.6,2,1.1,4.4,0,6.3c0.3,1.3,0.6,2.6,0.8,4
				C126.4,181.3,126.5,181.9,126.8,182.3z"/>
			<path class="st82" d="M95.7,173c-1.1,2-1.3,4.3-1,6.6c0.2,0.8,0.6,1.6,1,2.3C95.7,178.9,95.8,176,95.7,173z"/>
		</g>
		<g>
			<path class="st83" d="M65.4,56.4c-0.2-0.3-0.4-0.6-0.7-0.9c-2.3,4.4-5.2,8.4-7.4,12.8c-0.7,1.2-2.1,1.7-3.3,2.1
				c0.6-1.8,1.2-3.5,1.9-5.2c-0.3-0.7-0.7-1.4-1-2c-1.8,3.3-3.6,6.5-5.2,9.8c0,0.5,0.1,0.9,0.1,1.3c1.8-0.4,3.5-1,5.2-1.4
				c-1,0.8-2.3,1.3-3.3,2.1c-1.3,0.8-2.4,2-3,3.3c3.9-1.5,7.9-3.2,10.8-6.3c-2.2,0-4.5-0.1-6.7-0.4c2.8-1.2,5.9-1.8,8.5-3.6
				c-0.8,0.1-1.6,0.3-2.5,0.5C61.3,64.7,63.3,60.5,65.4,56.4z"/>
			<path class="st83" d="M99.9,64.2c-0.7-1.6-1.5-3.2-2.5-4.7c-0.6,1.8-1.1,3.6-1.8,5.3c-2.3-1.2-4.4-2.6-6.6-4.1
				c0.1,0.4,0.1,0.9,0.2,1.3c-3.1-0.7-6.3-1.2-9.5-1c1.7,0.4,3.5,0.8,5.2,1.2c1.5,0.4,3,0.6,4.4,1.3c1,0.5,1.6,1.5,2.3,2.3
				c1.1,1.6,1.9,3.3,2.9,4.9c0-1.7-0.1-3.4-0.1-5.1c0.8,0.2,1.7,0.3,2.5,0.5c1.5,0.5,2.8,1.5,4.1,2.2C101,66.9,100.5,65.5,99.9,64.2
				z"/>
			<path class="st83" d="M141.2,62.7c-2.7-1-5.7-0.5-8.5,0.1c-0.8,0.1-1.6,0.5-2.4,0.3c-1.2,2.2-2.6,4.4-4.3,6.3
				c0.4,0.5,0.9,1,1.2,1.6c-0.1,1-0.3,2-0.5,3.1c1.6-2.2,2.6-4.9,4.6-6.7c1-0.9,2.3-1.3,3.7-1.4c2-0.2,3.9-0.7,5.8-1
				c3,3.6,6.3,7.1,9.3,10.7c0.1-0.3,0.3-0.6,0.4-0.8c1.5,1.5,2.9,3.4,5.1,3.8c-2.5-4-5.7-7.5-8.4-11.5c-0.6-1-1.7-1.6-2.6-2.2
				C143.5,64.2,142.5,63.1,141.2,62.7z"/>
			<path class="st83" d="M84.1,68.6c-2.6-0.1-5.2-0.4-7.7,0.2c-1.1,0.3-1.8,1.2-2.6,1.9c-0.9,0.8-1.7,1.8-2.9,2.1
				c-0.2,0.6-0.5,1.2-0.8,1.7c-0.3-1.3-0.4-2.6-0.7-3.8c-0.4,0.5-0.9,1-1.3,1.4c0.9,3.2-0.4,6.7-2.8,8.8c-0.5,0.4-0.9,0.9-0.9,1.6
				c-0.5,5.7-1.7,11.3-1.6,17c1-1.6,2-3.2,2.7-5c-0.3-0.8-0.5-1.7-0.6-2.6c1.2-0.7,2.4-1.3,3.6-2c-1.1-4.2-0.1-8.5,0.1-12.8
				c0.7,0.2,1.4,0.4,2.2,0.7c0.6-0.8,1.2-1.6,1.8-2.5c2.4-0.4,4.8-0.6,7.2-1.1c0.4-0.9,0.7-1.9,1.1-2.9c0.9,0,1.9,0.1,2.8,0.1
				c-0.4-0.6-0.8-1.1-1.2-1.7c0.3-0.2,0.5-0.3,0.8-0.5C83.3,69.1,83.7,68.8,84.1,68.6z"/>
			<path class="st83" d="M137.2,72.1c-0.8,0-1.7,0-2.4,0.4c-1.3,0.8-2,2.2-2.9,3.4c1.2,0.7,2.2,1.6,3.4,2.2c1.7,1,3.5,1.6,5.4,2.1
				c-1.1,1-2.6,1.7-4.1,1.8c-1.6-0.3-2.6-1.8-3.9-2.6c-0.2-0.2-0.4,0-0.6,0c-0.2,0.9-0.6,1.6-1,2.5c1.3,0.3,2.5,0.4,3.8,0.6
				c1.1,0.2,2.1,0.4,3.2,0.6c-0.3,0.6-0.7,1.2-1,1.8c0.3,0.1,0.5,0.2,0.8,0.3c2.5-0.8,5-1.9,7.7-2c-1.2-0.8-2.4-1.5-3.5-2.3
				c-0.6-1-0.9-2.2-1.4-3.2c4.9,2.1,9.5,5.5,12.2,10.2c0.4-0.9,0.7-1.8,0.9-2.8c-3.2-3.8-7.3-7.4-12.3-8.4c-1.1-0.1-1.7-1-2.5-1.6
				c-1.3,0.4-2.5,0.8-3.8,1.2c1.2-1.3,2.1-2.8,3.5-4c0.1,0,0.4,0,0.6,0.1C138.5,72.4,137.8,72.3,137.2,72.1z"/>
			<path class="st83" d="M103,72.8c-1.4,0.6-2.6,1.5-4,2.1c-0.9-0.8-1.8-1.5-2.7-2.3c-0.5,1-0.5,2.2-0.8,3.3
				c-0.4-0.4-0.7-0.8-1.1-1.2c-0.5,0.7-1,1.5-1.3,2.3c0,1,0.2,2,0.1,3.1c-2.4-0.3-4.9-0.8-7.4-0.2c-0.7,0.4-1.4,1-2.2,1.3
				c-2-0.4-4-1-6.1-1.3c0.9,0.7,1.8,1.3,2.7,2c-0.3,0.4-0.5,0.8-0.8,1.2c1.1,0.5,2.1,1.1,3.2,1.6c0.3,0.1,0.6,0.3,0.9,0.4
				c1,0.4,2,0.7,3,1.1c0.9,0.8,1.7,1.7,2.6,2.6c0.5-1.1,0.8-2.4,1.2-3.6c-1.7-1.1-3.9-1.9-4.6-4c3,0.5,5.5,2.5,8.5,3
				c0.8,0.1,1.7,0.1,2.5-0.1c-0.6-1.1-1.2-2.2-1.6-3.4c2.1,0.9,4.2,1.6,6.2,2.7c-0.1-0.6-0.2-1.2-0.3-1.8c-0.1-0.4-0.3-0.8-0.4-1.2
				c-0.9,0-1.8,0.2-2.7,0.3c-0.9-1.4-1.7-2.8-2.4-4.4c1.6,0.3,3,1.2,4.1,2.4c0.1-0.8,0.3-1.5,0.4-2.3c0.9,0.9,1.9,1.9,2.6,3
				c-0.1-0.8,0.2-1.5,0.3-2.2C103.4,75.7,103.4,74.2,103,72.8z"/>
			<path class="st83" d="M62.1,77.3c-0.1-0.1-0.4-0.4-0.5-0.6c-0.9,3.9-2,7.7-3.1,11.5c-1.3,4-2.6,8.1-2.6,12.3
				c2.3-2.4,4.2-5.3,5.2-8.5c0.5-3.2,0.4-6.5,0.7-9.8C61.9,80.6,61.8,79,62.1,77.3z"/>
			<path class="st83" d="M85.2,86.9c-1.2,0-2.4,0.3-3.6,0.8c-0.3,0.8-1.2,1-1.7,1.6c-2.6,2.6-3.6,6.3-5.3,9.5c2-0.5,4-1.5,5.4-3
				c0-1.2,0-2.4,0.1-3.6c0-0.7,0.7-1.1,1.1-1.6c1.3-1,2.3-2.3,3.7-3.2C84.9,87.2,85.1,87,85.2,86.9z"/>
			<path class="st83" d="M173.4,94.4c-0.5,0.8-0.9,1.8-0.9,2.8c-0.1,1.7,0.8,3.3,1.9,4.6c0.3-0.7,0.7-1.4,1-2.1
				C174.8,97.9,174.1,96.1,173.4,94.4z"/>
			<path class="st83" d="M141.7,98.3c-1.8-1.7-4.1-2.8-6.4-3.7c-0.4,0.2-0.9,0.4-1.3,0.6c-1.3,0.6-2.4,1.3-3.6,1.9
				c-0.8-0.7-1.7-1.4-2.5-2.2c0,0-0.1,0-0.1,0c0.7,0.6,1.4,1.2,1.8,2c0.5,0.2,1.1,0.5,1.4,0.9c1.3,1.4,2.8,2.5,4.2,3.7
				c-1.8-0.4-3.6-1.1-5.5-1.4c0.1,0.3,0.2,0.6,0.3,0.9c0.3,0.1,0.5,0.4,0.7,0.6c1.3,1.8,3.4,2.9,5.4,3.9c0.8-1.4,1.7-2.7,2.5-4.1
				c-2.2-1.6-4.7-3-6.2-5.3c2.4-0.5,4.9,0.7,6.5,2.5C139.9,98.7,140.8,98.5,141.7,98.3z"/>
			<path class="st83" d="M143.9,95.6c-0.9-0.3-1.9-0.5-2.9-0.5c1.9,2.5,5.1,3.5,7.1,5.9c1.8,2.2,3.3,4.5,5,6.8
				c1.6,0.7,3.3,1.3,5,1.8c-0.2-0.8-0.3-1.6-0.6-2.3c-1.6-1.6-3.4-2.9-5.1-4.4c0.8,0,1.6-0.1,2.4-0.1c-0.3-0.7-0.7-1.4-1.2-2
				c-0.1,0-0.2,0.1-0.3,0.2C149.8,99.9,147.4,96.9,143.9,95.6z"/>
			<path class="st83" d="M173.2,102.5c-1-0.6-2.1-1-3.2-1.2c-0.2,3,1.1,5.8,1.8,8.6c1.4,1.8,2.6,3.7,4,5.4c0.2-0.6,0.3-1.2,0.5-1.7
				c0-0.5-0.2-1-0.5-1.4c-1.5-2.3-2.5-5-2.4-7.7C173.3,103.9,173.5,103.1,173.2,102.5z"/>
			<path class="st83" d="M82.4,106.6c-0.8-0.1-1.5-0.1-2.3-0.1c-2.1,1.3-3.9,3.1-5.2,5.2c0.2,2.4-1,4.5-1.7,6.7
				c-0.1,0.5,0.2,1,0.3,1.5c1.5-2.3,2.8-4.7,4.2-7c1.3,0.8,2.4,1.8,3.6,2.8c1-1.5,2.3-2.7,3.7-3.9c-0.9-0.1-1.8-0.2-2.7-0.1
				c-0.6,0-1.2,0-1.9,0c0.7-1.5,1.4-3.1,2-4.6C82.4,106.9,82.4,106.7,82.4,106.6z"/>
			<path class="st83" d="M108.6,110.2c-1.7-1.5-3.9-2.6-6.2-2.7c-0.1,1.1-0.3,2.2-0.4,3.4c1,0.1,2,0.1,3.1,0.1
				c-1.2,1.5-3,2.4-4.7,3.2c0.4-0.4,0.8-0.8,1.2-1.1c-0.5-0.5-1-1-1.5-1.6c-1.6,0.8-3.3,1.6-4.9,2.5c1.2,0.4,2.5,0.4,3.7,0.9
				c-1.8,0.9-3.7,1.6-5.6,2.5c-2.6,1.3-5.3,2.5-7.3,4.6c-1.8,1.8-2.6,4.3-4.2,6.2c-1,0.4-1.6-0.8-2.1-1.4c0.2,0.9,0.4,1.8,0.7,2.7
				c-1.6,1.4-3.2,2.8-4.8,4.2c0.3-1.5,0.6-2.9,1-4.4c-1.7,1.1-3.2,2.7-4,4.7c-1.6,3.7-4,7-5.3,10.8c2.6-2.3,4.1-5.5,5.9-8.4
				c0.4,2.7,0.5,5.4,0.7,8.2c2.1-2.7,0.9-6.6,2.9-9.3c0.9-1.1,2.1-2,3-3.1c0.8-0.8,1.2-1.9,2.1-2.6c0.4-0.4,1-0.3,1.5-0.3
				c0.3,2-1.7,3.1-3.1,4c0.4,0.8,0.8,1.6,1.3,2.4c1.1-1.8,2.5-3.4,4.1-4.8c-0.8-1.3-1.5-2.5-2.2-3.9c0.4,0,0.7,0,1.1,0.1
				c0.6-1.3,1-2.8,1.9-4c3.6-2.4,7.9-3.5,12.1-4.6c-0.1,0.7-0.1,1.5-0.3,2.2c2.7-0.8,5.6-1.2,8.3-1.8c0-0.5,0-0.9,0-1.4
				c-1.4,0-2.9,0-4.3,0c0.7-0.5,1.4-1,2.1-1.5c0-1-0.1-2-0.1-3c1.8,0.5,3.5,1.2,5,2.2c0.4-0.1,0.7-0.1,1.1-0.2
				c0.1-1.2,0.2-2.3,0.3-3.5c-0.1-0.1-0.2-0.3-0.3-0.3C109.8,110.8,109.2,110.5,108.6,110.2z"/>
			<path class="st83" d="M172.4,128.1c-2.8-3.9-6-7.4-9.2-10.8c-0.2,0.5-0.3,1-0.5,1.4c1.9,6.8,8.1,11.5,9.4,18.5
				c-0.8-0.1-1.5-0.2-2.3-0.3c1,1.4,1.9,2.7,2.7,4.2c0.5-1,1.6-1.8,1.4-2.9c-0.3-2.5-0.6-4.9-1.1-7.4
				C172.7,129.9,172.4,129,172.4,128.1z"/>
			<path class="st83" d="M44,129.2c-0.4-2-0.8-4.2-2.1-5.9c-0.7,3.3,0.1,6.7,1.1,9.8c0.9,2.9,2,5.7,2.4,8.7c0.6,0.3,1.2,0,1.8-0.1
				c0-0.2,0-0.6,0.1-0.8C46.1,137,44.8,133.2,44,129.2z"/>
			<path class="st83" d="M99.4,125.5c-0.3-0.1-0.7-0.2-1.1-0.1c-1.1,0.3-2.2,0.6-3.3,1.1c-1,0.7-1.9,1.6-2.9,2.3
				c-0.5-0.7-1.1-1.5-2-1.7c-1.7-0.4-3.5,0-5.2-0.1c1.4,0.4,2.9,0.7,4.3,1.1c0.5,1,0.6,2.1,1,3.1c1-0.7,2-1.5,3.1-2.1
				c-0.3,4.2-2.2,8-3.2,12c-0.4,1.5,0.6,2.8,1.2,4.1c0.7-3.7,0.7-7.5,1.8-11.1c1-2.4,2.1-4.7,3.1-7c1.1-0.1,2.1-0.3,3.2-0.4
				c-0.2-0.5-0.4-1-0.6-1.4C98.9,125.4,99.2,125.4,99.4,125.5z"/>
			<path class="st83" d="M101.2,131.5c-0.4-0.6-0.7-1.2-1.1-1.8c-0.6,1.1-1.1,2.2-1.6,3.4c0.1,0.2,0.2,0.5,0.3,0.7
				C99.7,133.1,100.6,132.4,101.2,131.5z"/>
			<path class="st83" d="M65.1,130.7c-2.3,2.5-4.5,5.2-5.7,8.4c0.5,0.8,1.2,1.6,1.1,2.6c0.3,3.2-2,5.7-2.4,8.8
				c0.8,0,1.7-0.2,2.5-0.3c1.9-4.2,3.9-8.4,4.8-12.9C65.5,135.1,65.1,132.9,65.1,130.7z"/>
			<path class="st83" d="M101.3,136.2c-1.8,0.7-3.3,1.9-4.9,2.9c-0.1-0.8,0.3-1.8-0.2-2.5c-0.5,0.6-0.9,1.2-1.3,1.8
				c-0.4,0.9-0.7,1.9-1,2.8c0.7,0.5,1.4,0.9,2,1.4c0.7,2.4,0.9,4.9,1.7,7.3c0.6-2.4,1.4-4.7,2.3-7c-1,0.2-2,0.4-2.9,0.6
				c0.5-0.8,1-1.6,1.5-2.4C99.4,139.6,100.3,137.9,101.3,136.2z"/>
			<path class="st83" d="M131.5,142c-1.4-1.5-2.7-3.2-4.1-4.7c0.2,1.5,0.5,2.9,0.8,4.4c0.5,0.6,1.1,1.1,1.6,1.7
				c0.3,0.6,0.3,1.3,0.4,1.9c0-0.5,0-1.1,0-1.6c1.3,1,2.5,2.1,3.9,3c-0.5-2.2-1.4-4.3-2.4-6.3C131.6,141,131.5,141.5,131.5,142z"/>
			<path class="st83" d="M92.2,146.5c-0.2,0.7-0.5,1.4-0.4,2.1c0.2,1.7,0.3,3.4,0.4,5.1c0.1,2.1-0.2,4.2-0.5,6.3
				c-0.3,2.5,1.4,4.5,2.8,6.4c0.2-0.7,0.4-1.3,0.5-2c0-1.9,0-3.8,0.7-5.6c-1.1-0.8-1.8-2-1.9-3.4c-0.3-1.5-0.1-3-0.2-4.5
				C93.1,149.4,92.7,147.9,92.2,146.5z"/>
			<path class="st83" d="M66.1,146.4c-2,3.9-4.1,7.8-6,11.7c-0.1-0.1-0.4-0.2-0.5-0.2c0.3,3.5,0.2,7.1,0.2,10.6
				c0.2-0.2,0.3-0.4,0.5-0.6c-0.5,4-0.4,8,0.5,11.9c0.1,0.8,0.4,1.5,0.7,2.2c0.7-3.2,1.2-6.4,2.2-9.5c0.8-2.5,1.7-4.9,2.8-7.2
				c-0.5-0.7-1-1.5-1.4-2.3c-0.5,0.7-1,1.4-1.5,2.1c0.2-1.6,0.4-3.3,0.6-4.9c-0.5,0.1-0.9,0.3-1.4,0.4c-0.1-0.4-0.3-0.9,0-1.3
				c1.3-2.3,2.8-4.6,3.4-7.2c-0.4-0.3-0.7-0.7-1.1-1C65.5,149.4,66,147.9,66.1,146.4z"/>
			<path class="st83" d="M81.8,154.1c-0.7-0.7-1.2-1.5-1.7-2.3c-0.8,0.8-1.5,1.6-2.3,2.5c-1,1.3-1.8,2.7-2.7,4
				c0.6,2.6-0.2,5.2-0.5,7.8c0.3,0.1,0.7,0.2,1,0.3c0.1-0.4,0.3-0.8,0.5-1.2c0.9-2,1.4-4.2,2.3-6.2c0.8-0.1,1.6-0.3,2.4-0.4
				C81.1,157,81.4,155.5,81.8,154.1z"/>
			<path class="st83" d="M86.1,152.1c-0.2,1.1-0.3,2.1-0.6,3.2c-0.6,2.1-1.2,4.1-1.7,6.2c-1.8,5.4-4.1,10.6-5.9,15.9
				c1.9-1.5,3.7-3.1,5.3-4.9c0.5-0.6,1-1.2,1.4-1.9c-1.1,0.4-2.2,1-3.4,1.5c1-2.7,2.4-5.3,4.3-7.4c0.3,2.1,0.2,4.2,0.5,6.3
				c0.5-0.4,1.1-0.7,1.5-1.2c0.4-0.5,0.8-1.2,1.6-1.2c0.6-0.1,1.2,0.4,1.1,1c-0.2,2.5-0.9,4.9-1.4,7.3c-0.3,1.7-0.3,3.4-0.5,5.1
				c-0.1,0.7,0,1.3,0.1,2c1.6-1.8,3.2-3.7,4.8-5.6c0.6,3.6-1.3,7.1-0.8,10.7c0.4-0.8,0.7-1.5,1-2.3c0.8-1.6,1.3-3.3,2.2-4.9
				c-0.5-0.7-0.9-1.5-1-2.3c-0.3-2.2-0.1-4.6,1-6.6c0.2-0.5,0.5-1,0.8-1.5c-0.2-0.7-0.5-1.4-1-1.9c-0.6-0.2-0.9,0.4-1.3,0.7
				c-1.1-3.9-3.3-7.4-4.5-11.3c-0.5-1.3-0.9-2.6-1.4-3.9c-0.3,1.5-0.5,3.1-0.9,4.7c-0.9-0.6-1.2-1.8-1.3-2.9
				C86,155.3,86,153.7,86.1,152.1z"/>
			<path class="st83" d="M80,162.1c-0.2-0.7-0.4-1.4-0.8-2.1c-0.8,1.9-1.3,3.9-1.8,5.9c-1.1,3.6-3.3,6.8-4,10.6
				c3.7-4.4,6.6-9.4,8.9-14.7C81.5,161.7,80.7,161.9,80,162.1z"/>
			<path class="st83" d="M165.7,165.4c-1.7,5-1.3,10.5-2.7,15.6c-0.3-2.1-0.4-4.3-0.7-6.4c-0.1,0-0.4-0.1-0.5-0.2
				c-0.7,4.4-1.5,8.8-1.3,13.3c1.8-2.2,3.6-4.3,5.4-6.5C166.2,176,166.9,170.6,165.7,165.4z"/>
			<path class="st83" d="M159.5,171.9c-0.5,1.2-0.8,2.6-1.3,3.8c-0.3,1.4-0.6,2.8-0.8,4.1c0,1.8,0.3,3.6,0.6,5.4
				c0.8-2.4,1.1-4.8,1.4-7.3c0.2-1.6,0.1-3.2,0.2-4.9C159.6,172.7,159.6,172.3,159.5,171.9z"/>
			<path class="st83" d="M124.2,177.7c0-1-0.1-2-0.2-3.1c0,0.5,0,1.1-0.1,1.6c-1.4-0.2-2.9-0.6-4.3-0.8c0.5,2.5,0.9,5,0.7,7.6
				c-0.1,1.1-0.1,2.2-0.6,3.1c-0.6-2.1-0.9-4.3-1.5-6.4c-0.3,0.3-0.6,0.5-0.9,0.8c1.6,3.9,1.7,8.2,1.4,12.3
				c-0.1,2.1-0.2,4.3-0.2,6.4c1.6-5.1,2-10.5,3-15.8c0.1-0.3,0.2-0.6,0.3-0.9c0.5,1.1,0.9,2.2,1,3.4c0.3,2.4-0.2,4.8-0.1,7.2
				c0.8-0.9,1.5-1.9,2.2-2.9c0-1,0-1.9,0-2.9C124.5,184.2,124.3,180.9,124.2,177.7z"/>
			<path class="st83" d="M108,187.4c-1.4,1.2-2.6,2.7-3.6,4.2c-0.4,0.7-0.9,1.5-1,2.4c1.3-0.3,2.3-1.3,3.1-2.2
				C107.5,190.5,108.2,189,108,187.4z"/>
			<path class="st83" d="M108,195.9c-1.3,1.3-2.3,2.9-3.2,4.5c-0.8,1.4-1.5,2.9-2,4.5c1.7-0.1,2.9-1.5,3.5-3c0.7-1.6,1.3-3.3,2-4.9
				C108.2,196.6,108.1,196.2,108,195.9z"/>
		</g>
		<g>
			<path class="st84" d="M141.5,57.5c-1.9-0.4-3.9-0.7-5.9-0.6c-0.4,0-0.8,0.1-1.1,0.2c-1.9,1.2-3.8,2.4-5.8,3.5
				c-2,2.2-2.8,5.2-3.2,8c0.1,0.2,0.4,0.5,0.5,0.7c1.7-1.9,3.1-4.1,4.3-6.3c1.9-2.5,4.7-4.3,7.8-5c0.8-0.1,1.6,0,2.4,0.2
				c0.9,0.4,1.7,1,2.5,1.4C142.5,59,142,58.3,141.5,57.5z"/>
			<path class="st84" d="M99.8,78.7c-1.1-1.2-2.5-2.1-4.1-2.4c0.6,1.5,1.5,3,2.4,4.4c0.9-0.1,1.8-0.3,2.7-0.3
				c0.1,0.4,0.3,0.8,0.4,1.2c1.1,1.7,2.2,3.4,3.1,5.1c0.1-0.7,0.3-1.4,0.3-2.1c-0.4-1.8-1.1-3.5-1.8-5.2c-0.7-1.1-1.7-2-2.6-3
				C100.1,77.2,99.9,78,99.8,78.7z"/>
			<path class="st84" d="M129,78.4c-2.1,1.2-3.8,2.9-5.3,4.7c0.3-0.9,0.5-1.8,0.8-2.6c-0.5-0.4-0.9-0.8-1.4-1.1
				c-1.3,3-2.5,6.3-4.5,9c2.8,4.5,7.5,7.4,10.2,11.9c0.4,0.3,0.9,0.5,1.3,0.7c-0.1-0.3-0.2-0.6-0.3-0.9c-0.9-2-2.2-3.7-3.5-5.5
				c0.2,0,0.5,0,0.6,0c0-0.1,0-0.3,0-0.4c-0.5-0.5-0.9-1-1.4-1.4c-1,0.1-1.9-0.2-2.7-0.7c0.3-0.8,0.6-1.5,0.9-2.3
				c0.2-0.8,0-1.7,0.5-2.5c1.3-2,2.4-4.3,4.2-5.9c0.8-0.8,1.8-1.3,2.8-1.6C130.6,79.2,129.8,78.9,129,78.4z"/>
			<path class="st84" d="M149.7,91.1c-2.8-1.2-5.5-2.5-8.2-3.9c0.3,0.7,0.5,1.3,0.8,2c2.7,1.4,5.5,2.5,8.6,2.6
				c2.4,2.9,4.5,6.1,6.9,9.1c1.5,1.9,3.3,3.9,5.8,4.1c-2.1-2.2-3.6-4.8-4.6-7.7c-0.2-0.6-0.8-0.7-1.3-1c-0.5-0.9-0.4-2.1-1.3-2.7
				c-1.2-1-2.3-2-3.4-3.1c-0.4-0.5-0.9-0.9-1.3-1.4C151,89.7,150.3,90.4,149.7,91.1z"/>
			<path class="st84" d="M86.8,92.5c-0.6-0.1-1.3-0.2-1.9-0.2c-3.1,2.9-5.1,6.7-7.7,10c0.7,0.3,1.4,0.6,2.1,0.9
				c1.3-2.1,2.5-4.4,4-6.4C84.4,95.3,85.6,93.9,86.8,92.5z"/>
			<path class="st84" d="M154.5,98.7c-1.8-2.8-5-4.6-8.3-5l0.1,0.3c2.9,1.8,5.6,4,7.4,6.8c0.5,0.6,0.9,1.3,1.2,2
				c-0.8,0-1.6,0.1-2.4,0.1c1.7,1.4,3.5,2.8,5.1,4.4c0.4,0.7,0.4,1.5,0.6,2.3c0.1,0.5,0.3,1,0.4,1.5c0.2-0.7,0.5-1.5,0.7-2.3
				c-0.2-0.5-0.4-1-0.6-1.6c-0.9-1.7-1.9-3.3-2.7-5.1C155.5,101.1,155.2,99.8,154.5,98.7z"/>
			<path class="st84" d="M184.6,127.1c0.3-6.9-0.5-14.2-4.3-20.1c0.9,3.3,2.2,6.6,2.3,10c0.2,1.8,0.5,3.6,0.6,5.4
				c0.3,3.4,0.4,6.8,0.9,10.2C184.5,130.8,184.4,128.9,184.6,127.1z"/>
			<path class="st84" d="M117.6,107.8c-0.5,0.3-0.9,0.6-1.4,0.9c-0.4,1.2-0.6,2.4-0.8,3.6c-1.4-1.2-2.9-2.3-4.5-3.1
				c0,0.7-0.1,1.4-0.1,2.1l-0.3-0.2c0.1,0.1,0.2,0.3,0.3,0.3c-0.1,1.2-0.2,2.3-0.3,3.5c-0.4,0.1-0.7,0.1-1.1,0.2
				c0.7,0.6,1.3,1.2,1.7,2.1c-1.4,0.4-2.9,0.3-4.3,0.3c0,0.5,0,0.9,0,1.4c-2.8,0.6-5.6,1-8.3,1.8l-0.1,0.3l0,0.3
				c3.7-1.4,7.6-0.5,11.4-0.7c1.3-2.2,3.5-3.7,5.6-5.1c-0.7,0.1-1.3,0.2-2,0.2c0.2-0.9,0.2-1.9,0.6-2.6c2.9-0.5,5.9-0.3,8.8-0.6
				c-0.9-0.2-1.7-0.4-2.6-0.6c-0.9-0.1-1.8-0.1-2.7-0.2C117.4,110.4,117.5,109.1,117.6,107.8z"/>
			<path class="st84" d="M177.1,110.1c-0.3-0.6-0.6-1.2-1-1.8c0.2,1.1,0.4,2.3,0.7,3.4c1.6,4.8,2.7,9.8,4.2,14.6
				c0.8,3.3,0.4,6.8,0.7,10.2c0.5-0.1,1-0.3,1.5-0.4c0.2-0.4,0.5-0.8,0.4-1.3c-0.4-3.6-1.3-7.2-2.1-10.7
				C179.9,119.6,179.1,114.6,177.1,110.1z"/>
			<path class="st84" d="M49.2,114.3c-0.7,0.4-1.4,0.8-2.2,1.2c-0.2,4.6,0.9,9.1,0.6,13.7l0,0.2c0,0.4,0,0.7,0,1.1
				c0.4,0.2,0.8,0.4,1.2,0.6c0.5-1,0.6-2.1,0.9-3.1c0.1-0.4-0.1-0.8-0.3-1.2c-0.9-1.9-0.9-4-0.8-6.1
				C48.8,118.5,48.9,116.4,49.2,114.3z"/>
			<path class="st84" d="M120.3,120.2c-0.5-1.3-1.9-1.9-3.2-2c-1.8-0.3-3.7,0.3-5.3,1.1c0.6,0.4,1.3,0.9,2,1.2
				c1.2,0,2.5-0.2,3.7-0.1C118.5,120.5,119.4,120.3,120.3,120.2z"/>
			<path class="st84" d="M119.3,125.8c-0.7-0.1-1.5,0.2-2.2,0.3c0.6,1.7,1.3,3.3,2.2,4.8c0.7,1.2,0.5,2.6,0.7,3.9
				c0.4,4.6,0.3,9.2,1.2,13.7c0.1-1.3,0.3-2.7,0.4-4c0.1-0.7,0.1-1.3,0.5-1.9c-0.1-1.6,0.1-3.2,0.3-4.8c1.2-0.6,2.6-0.9,3.7-1.6
				c0.1-1.7-0.3-3.4-0.3-5.2C123.4,129.6,121.4,127.7,119.3,125.8z"/>
			<path class="st84" d="M172.4,128.1c0,0.9,0.3,1.9,0.5,2.8c0.5,2.4,0.8,4.9,1.1,7.4c0.2,1.2-0.9,2-1.4,2.9
				c1.5,3.4,2.2,7.1,3.4,10.7c0.1,0.3,0.2,0.6,0.3,0.9c0.3,0.1,0.7,0.3,1,0.5c-0.2-3.1-1.1-6-1.9-9c1.7,2.1,3.1,4.6,4.4,6.9
				c0.3-1.1,0.5-2.2,0.8-3.3c-1-3.8-3.2-7.1-5-10.5c0.5-1,1.1-2,1.7-3.1C175.6,132.3,173.9,130.2,172.4,128.1z"/>
			<path class="st84" d="M97.2,129.2c-1.3,1.9-2.1,4-2.9,6.2c0.7,0,1.4,0,2.2,0c-0.1,0.4-0.2,0.8-0.3,1.1c0.5,0.7,0.1,1.7,0.2,2.5
				c1.6-1,3.2-2.2,4.9-2.9c0.6-1,1.2-2.1,1.6-3.3c-1.5,0.9-2.6,2.2-3.9,3.2c0-0.8,0-1.6-0.1-2.4c-0.1-0.2-0.2-0.5-0.3-0.7
				C97.7,131.9,97.6,130.5,97.2,129.2z"/>
			<path class="st84" d="M110.6,131.1c-0.2,0.1-0.4,0.2-0.6,0.3c-0.3,3.3-0.2,6.7-1.6,9.7c-1.4,3.3-3.8,6.5-3.7,10.3
				c-0.1,0.9,0.7,1.4,1.3,1.9c0.6-2.2,1.4-4.4,2.1-6.5c0.8-1.4,1.6-2.8,2.6-4.1c0.6,1.6,1.1,3.2,1.7,4.8c0.9-0.2,1.7-0.3,2.6-0.5
				c0.2-2.2,0.3-4.4,0.7-6.6c1.3,2.2,1.5,4.9,1.7,7.3c0.2,1.8,0.1,3.6,0.6,5.4c0.6-4.7,0-9.5,0.2-14.2c-0.9,0.1-1.7,0.2-2.6,0.3
				c-0.1-1.2-0.2-2.3-0.3-3.5c-0.6-0.3-1.3-0.5-2-0.7c-0.2,0.9-0.5,1.8-0.8,2.7C111.5,135.6,111.3,133.3,110.6,131.1z"/>
			<path class="st84" d="M108.2,132.6c-1.6,2.1-2.3,4.7-3.5,7c-1-0.5-1.3-1.6-1.1-2.7c-1.3,1.8-2.9,3.8-5.2,4.3
				c-0.5,0.8-1,1.6-1.5,2.4c1-0.2,2-0.4,2.9-0.6c-0.9,2.3-1.7,4.6-2.3,7c0,2.1-0.1,4.3-0.9,6.3c-0.3,0.8-0.7,1.7-1,2.5
				c-0.7,1.8-0.7,3.7-0.7,5.6c0.6-0.8,1.2-1.6,1.5-2.5c1-3.6,1.9-7.3,2.9-11c0-0.1,0.1-0.3,0.1-0.3c0.3-2.4,0.3-5.1,1.9-7.1
				c1.1-1.1,2.6-1.8,3.9-2.7c0.8-0.5,1.8-1,2.1-2C108.1,136.9,108.1,134.7,108.2,132.6z"/>
			<path class="st84" d="M73.2,136.4c-1.8,2.9-3.2,6.1-5.9,8.4c-0.3,0.3-0.6,0.6-0.9,0.9c-0.1,0.2-0.2,0.4-0.3,0.6
				c-0.1,1.5-0.6,3-0.9,4.5c0.3,0.4,0.7,0.7,1.1,1c0.5-1.1,1.8-1.7,2.9-1.6c1.5-2,3-3.9,4.6-5.8C73.7,141.9,73.6,139.1,73.2,136.4z"
				/>
			<path class="st84" d="M74.4,152.4c-0.3,0-0.5,0-0.8,0c-0.7,0.8-0.6,2,0,2.9c0.2,0,0.5,0,0.6,0C75,154.6,74.8,153.3,74.4,152.4z"
				/>
			<path class="st84" d="M146.6,165.3c-0.8-1.8-1.5-3.7-2.5-5.4c-0.5,1.6,0,3.4,0.9,4.8c1.2,1.3,2.5,2.6,3.7,3.9
				c0.7,0.7,0,1.6-0.1,2.4l0.2,0c0.3-0.4,0.6-0.7,0.9-1.1c-0.2-1.2-0.5-2.4-0.7-3.6c-0.2-0.6-0.5-1.1-0.8-1.6
				C147.7,164.8,147.1,165.1,146.6,165.3z"/>
			<path class="st84" d="M133.7,166.4c-0.4-0.7-0.8-1.5-1.5-1.8c-0.8,0.3-1.4,1.1-1.6,2c-0.4,1.5-0.1,3.1-0.3,4.6c0.5,1,0.9,2,1.4,3
				c0.5-0.8,1-1.6,1.6-2.3c0.3,1,0.7,1.9,1,2.9c0.2,0.5,0.3,1,0.5,1.5C135.1,173,135.2,169.4,133.7,166.4z"/>
			<path class="st84" d="M121.9,164.8c-0.4,0.7-1.1,1.6-0.6,2.5c0.9,1.5,1.7,3.1,2.4,4.7c0.6,1.6,1.3,3.2,1.7,4.8
				c1.1-1.9,0.6-4.3,0-6.3C124.4,168.5,123.2,166.7,121.9,164.8z"/>
			<path class="st84" d="M106.2,169.4c-0.6-0.9-1.4-1.7-2.2-2.4c0.2,1.5,0.2,3.1,1.2,4.4c0.6,0.9,1.2,1.8,1.8,2.8
				c0.3,0.5,0.6,0.9,0.9,1.4c0.5,0.9,1.1,1.8,1.5,2.7c0.2-0.5,0.6-1,0.3-1.5C108.7,174.2,107.5,171.7,106.2,169.4z"/>
			<path class="st84" d="M72.8,187.5c-0.1-0.9-0.6-1.7-1.2-2.4c-0.3,1.8-0.6,3.6-0.8,5.4c-0.1,1.6,0,3.1-0.1,4.7
				c1,0.7,2.1,1.4,3.2,2.1c0.1-1.5,0.2-3,0.3-4.5c-0.9,0.1-1.7,0.1-2.6,0.1C72.2,191.2,73,189.4,72.8,187.5z"/>
			<path class="st84" d="M78.1,191.2c-1.2,2.1-2.3,4.3-3.5,6.5c1.1,0.3,2.3,0.5,3.4,0.8C78,196,78.1,193.6,78.1,191.2z"/>
			<path class="st84" d="M100.2,199.6c-0.2-0.3-0.4-0.6-0.6-0.8c-0.1,0-0.4,0.1-0.6,0.1c-0.1,0-0.3,0.1-0.4,0.2
				c-1.3,1.2-2.2,2.7-3,4.3C97.2,202.1,98.6,200.7,100.2,199.6z"/>
		</g>
		<g>
			<path class="st85" d="M80.7,64.6c-0.8-0.5-1.8-0.9-2.6-0.5c-3.6,1.5-6,5-7.3,8.6c1.2-0.3,2-1.4,2.9-2.1c0.8-0.7,1.5-1.6,2.6-1.9
				c2.5-0.7,5.2-0.3,7.7-0.2c0.1-0.1,0.3-0.2,0.4-0.2C83.1,67.2,82.1,65.7,80.7,64.6z"/>
			<path class="st85" d="M68.5,65.2c-1.6,1.3-3,2.9-4.4,4.5c-0.5,2.6-1.4,5.1-2,7.7c-0.3,1.6-0.1,3.2-0.2,4.9
				c-0.3,3.3-0.2,6.6-0.7,9.8c0,1.9-0.1,3.8-0.1,5.7c0.2,1.1,0.4,2.3,0.7,3.4c0.4-0.5,0.7-1.1,0.9-1.7c-0.1-5.7,1-11.4,1.6-17
				c0.1-1.8-0.2-3.5,0.1-5.3c0.3-1.8,1-3.5,1.9-5.1c0.8-1.8,1.8-3.5,2.6-5.3C68.7,66.2,68.6,65.7,68.5,65.2z"/>
			<path class="st85" d="M142.8,72.9c-1.7-0.9-3.7-1.1-5.7-0.8c0.6,0.1,1.3,0.3,1.9,0.4c2,0.3,3.8,1.1,5.5,2.3
				c2.7,1.8,4.9,4.3,7.3,6.6c3.6,3.5,5.6,8.2,8.2,12.5c0.6-0.9,0.5-2,0.5-3c-0.1-1.8-0.7-3.4-0.9-5.2c-1.1-2.4-2.3-4.8-3.9-7
				c-2.2-0.4-3.6-2.3-5.1-3.8c-0.1,0.3-0.3,0.6-0.4,0.8c0.8,1.5,1.6,3.1,2.4,4.7C149.2,78,146.6,74.7,142.8,72.9z"/>
			<path class="st85" d="M101.4,83.4c-2-1.1-4.1-1.8-6.2-2.7c0.4,1.2,1,2.3,1.6,3.4c1.6,0.6,3.2,1.3,4.9,1.9
				C101.6,85.1,101.5,84.3,101.4,83.4z"/>
			<path class="st85" d="M116.3,86.8c-0.5,0.4-0.9,0.9-1.4,1.3c-0.2,0.2-0.4,0.4-0.6,0.6c-1-0.4-1.9-0.9-2.9-1.4
				c-0.5,0.6-0.9,1.3-1.3,2c-0.9-0.7-1.8-1.5-2.7-2.2c-1.1,2.8-0.9,5.8-0.8,8.7c0.3-0.1,0.8-0.2,1.1-0.3c0.5-0.3,1-0.4,1.4-0.6
				c0-0.2-0.1-0.5-0.2-0.6c-0.3-0.9-0.6-1.7-0.9-2.6c0.5,0,1.1,0,1.6,0c1-0.5,1.7-1.4,2.6-2c2.1,1.3,3.9,2.8,5.5,4.7
				c-0.8,0-1.7,0-2.5,0c1.1,0.8,2.2,1.5,3.1,2.5c0.6,0.8,1.1,1.8,1.8,2.7c0.3-0.6,0.6-1.1,0.8-1.7c-1.5-2.3-2.6-4.9-3.7-7.4
				c-0.3,0.5-0.6,1-1,1.5C116.3,90.2,116.3,88.5,116.3,86.8z"/>
			<path class="st85" d="M87.9,88.8c-1-0.5-2.1-1-3.1-1.5c-1.4,0.9-2.4,2.2-3.7,3.2c-0.5,0.5-1.2,0.9-1.1,1.6
				c-0.1,1.2-0.1,2.4-0.1,3.6C82.3,93.1,85,90.8,87.9,88.8z"/>
			<path class="st85" d="M79.8,89.3c0.5-0.6,1.4-0.9,1.7-1.6c-4.4,1.1-9.4-0.4-13.3,2.3c-1.2,0.7-2.4,1.3-3.6,2
				c0.1,0.9,0.3,1.8,0.6,2.6c0.6-1.6,2.1-2.7,3.7-3.3c2.1-0.8,4.4-0.8,6.6-1c-2.3,2.6-4.6,5.1-6.6,7.8c0,0.1,0,0.2,0.1,0.2
				c1.5,0.7,3,1.3,4.5,2c0.3-0.5,0.6-1,0.9-1.5C76.2,95.6,77.2,91.9,79.8,89.3z"/>
			<path class="st85" d="M102.5,95.5c-0.5-0.2-1-0.5-1.5-0.7c-0.5,0.5-1,1-1.5,1.6c-0.1,0-0.4,0-0.6,0.1c-1,1.2-1.9,2.4-2.6,3.8
				c1,0.6,2.2,0.9,3.3,1.1c1.2-1.2,2.5-2.3,3.9-3.3c-0.6-0.3-1.2-0.6-1.8-0.8C102,96.6,102.2,96,102.5,95.5z"/>
			<path class="st85" d="M69.4,102.6c-0.6-0.1-1.1-0.2-1.7-0.3c-1.2,1.4-2.4,2.8-3.4,4.3c-0.6,0.8-1.2,1.6-1.7,2.4
				c-0.7,1.6-1.4,3.1-2,4.7c1.2-0.9,2.4-1.7,3.5-2.6c1.6-1.3,3.8-1.8,5.2-3.3c-0.6-0.1-1.2-0.1-1.8-0.2
				C68.1,105.9,68.8,104.3,69.4,102.6z"/>
			<path class="st85" d="M92.6,103c-0.9-0.1-1.8-0.1-2.6,0c-1.5,1.4-3.2,2.5-4.6,3.9c-1,1.5-2,3.1-3,4.6c0.9,0,1.8,0.1,2.7,0.1
				c0.4-0.3,0.8-0.6,1.2-0.9c0.4-1.5,0.6-3.2,1.7-4.3c1.7-1,3.8-1,5.7-1.3c0.5-0.1,1-0.1,1.5-0.2c0.9-0.3,1.8-0.7,2.7-1
				C96.2,103.1,94.3,103.1,92.6,103z"/>
			<path class="st85" d="M44.8,112.2c-0.8-0.9-1.5-1.9-2.3-2.7c0.4,4.4,0.1,8.9-0.1,13.4c0.5,0.4,1,0.7,1.5,1.1
				c0.4-2.5,1.1-5.1,1.5-7.6C45.4,114.9,45.1,113.5,44.8,112.2z"/>
			<path class="st85" d="M81.3,115.6c-1.2-0.9-2.3-2-3.6-2.8c-1.3,2.4-2.6,4.8-4.2,7c0.1,0.4,0.2,0.7,0.3,1.1c0.8-0.4,1.5-1,2.2-1.6
				c1.6-1.3,3.4-2.5,5.2-3.6L81.3,115.6z"/>
			<path class="st85" d="M117.1,122.5c-2.4-0.5-4.9-0.3-7.2,0.3c1.7,0.3,3.4,1,5.2,0.8c0.8,0,1.5,0,2.3-0.2c0.3-0.1,0.6-0.1,0.8-0.2
				C117.8,123,117.5,122.6,117.1,122.5z"/>
			<path class="st85" d="M114.6,125.3c-3,0.1-6-0.1-9-0.1c-0.2,1.1-0.2,2.2-0.4,3.4c-1.9-1.2-3.7-2.6-5.9-3.1
				c-0.2,0-0.5-0.1-0.7-0.1c0.2,0.5,0.4,1,0.6,1.4c0.6-0.1,1.2-0.2,1.8-0.2c-0.3,1-0.5,2.1-1,3.1c0.4,0.6,0.8,1.2,1.1,1.8
				c0.3-0.5,0.6-1,0.9-1.5c1,0.3,1.9,0.7,2.9,1.2c0,1,0.2,2.1-0.3,3c-0.4,0.9-0.8,1.8-1.2,2.7c-0.2,1,0.1,2.2,1.1,2.7
				c1.3-2.3,2-4.9,3.5-7c0.5-0.5,1.1-0.9,1.8-1.2c0.2-0.1,0.4-0.2,0.6-0.3c0.7,2.2,0.9,4.5,1.9,6.6c0.3-0.9,0.6-1.8,0.8-2.7
				c0.7,0.2,1.3,0.5,2,0.7c-0.3-2.7-1-5.3-1.8-7.9C113.7,126.9,114.3,126.1,114.6,125.3L114.6,125.3z"/>
			<g>
				<path class="st85" d="M89.1,128.2c0.5,1,0.6,2.1,1,3.1c1-0.7,2-1.5,3.1-2.1c-0.3,4.2-2.2,8-3.2,12c-0.4,1.5,0.6,2.8,1.2,4.1
					c0.7-3.7,0.7-7.5,1.8-11.1c0.7,1.3,0.9,2.9,1.9,4.1c-0.4,0.9-0.7,1.9-1,2.8c-0.6,1.7-1.1,3.5-1.6,5.2c-0.2,0.7-0.5,1.4-0.4,2.1
					c0.2,1.7,0.3,3.4,0.4,5.1c0.1,2.1-0.2,4.2-0.5,6.3c-0.3,2.5,1.4,4.5,2.8,6.4c0.2-0.7,0.4-1.3,0.5-2c0.6-0.8,1.2-1.6,1.5-2.5
					c0.3,1.4,0.6,2.9,0.9,4.3c0.6-1.9,1.4-3.8,2.2-5.6c0.6-0.2,1.1-0.3,1.7-0.4c0.1,1.8,0,3.6,0.1,5.5c-0.9,0.9-1.6,2.1-1.4,3.5
					c-0.8-0.2-1.6-0.4-2.5-0.6c0.8,2.9,2,6,1,9.1c-0.7-2-1.3-4.1-2-6.1c-0.2-0.7-0.5-1.4-1-1.9c-0.6-0.2-0.9,0.4-1.3,0.7
					c-1.1-3.9-3.3-7.4-4.5-11.3c0.1-1.6,0.1-3.2,0-4.8c-0.2-2.2-1.2-4.3-2.7-5.9c1.4-5.1,1.8-10.5,1.5-15.8
					c-0.7,1.2-1.3,2.4-1.9,3.6c-0.9,1.8-1.8,3.6-2.3,5.6c-0.8,3.3-0.7,6.7-1.5,10c-0.3,0.8-0.6,1.6-0.8,2.4
					c-0.7-0.7-1.2-1.5-1.7-2.3c1.4-2.2,1.6-5,0.7-7.4c-1.7,3-3.1,6.3-3,9.9c-1,1.3-1.8,2.7-2.7,4c-0.7,0.8-1.4,1.5-2.2,2.2
					c-0.2-1.3-0.4-2.7-0.6-4c-1,1.2-1.8,2.4-2.7,3.6c-1.1,1.7-2.1,3.4-3,5.2c-0.5-0.7-1-1.5-1.4-2.3c1.9-2.9,3.2-6.2,4-9.5
					c-2.3,1.6-3.8,4.1-4.9,6.6c-0.5,0.1-0.9,0.3-1.4,0.4c-0.1-0.4-0.3-0.9,0-1.3c1.3-2.3,2.8-4.6,3.4-7.2c0.5-1.1,1.8-1.7,2.9-1.6
					c0.4,0.7,0.8,1.3,1.2,2c1.9-2.7,3.8-5.4,6-7.9c0.2,1.1,0.4,2.2,0.6,3.3c0.8-2,1.6-3.9,2.5-5.9c0.6-0.7,1.8-0.9,2.2-1.9
					c1.6-3.1,3.3-6.3,5.2-9.3c-0.4,0-0.8,0.1-1.2,0.1c-0.8-1.3-1.5-2.5-2.2-3.9c0.4,0,0.7,0,1.1,0.1l0.3,0
					C86.3,127.4,87.7,127.7,89.1,128.2z M73.6,152.5c-0.7,0.8-0.6,2,0,2.9c0.2,0,0.5,0,0.6,0c0.8-0.7,0.6-2,0.2-2.9
					C74.1,152.4,73.9,152.4,73.6,152.5z"/>
			</g>
			<path class="st85" d="M133.6,131.6c-0.6-1-1.6-1.8-2.5-2.6c-0.9,0-1.8,0-2.6-0.2c0.4,1.5,1,2.9,1.4,4.3c-1.4-0.7-2.7-1.4-4.1-2.2
				c0,1.7,0.3,3.4,0.3,5.2c-1.2,0.7-2.5,1-3.7,1.6c-0.2,1.6-0.4,3.2-0.3,4.8c0.6-0.9,1.1-1.9,1.6-2.9c0.5,1.1,1,2.1,1.5,3.2
				c0.4-0.6,0.8-1.2,1.3-1.7c0.6,0.5,1.2,0.9,1.9,1.4c0-0.2-0.1-0.7-0.1-0.9c-0.3-1.5-0.6-2.9-0.8-4.4c1.4,1.5,2.7,3.2,4.1,4.7
				c0-0.5,0.1-1.1,0.1-1.6c-0.4-1.8-0.8-3.6-1.1-5.5c1.6,2.7,2.8,5.6,4.6,8.2C135.3,139.3,134.6,135.4,133.6,131.6z"/>
			<path class="st85" d="M51.9,137.7c-2.7,2.9-3.6,6.9-5.6,10.3c-0.6,0.9-1.1,1.8-2,2.4l-0.1,0.1c-0.3,0.9-0.7,1.9-0.6,2.8
				c0.1,0.8,0.6,1.5,1.3,1.8c1.3-2.1,2.6-4.3,3.7-6.5c-0.1,2-0.1,4-0.8,5.9c-0.1,1.9,0,3.9,0.2,5.8c0.3,2.3,1.1,4.5,2.9,6.1
				c0.3-1.9,0.5-3.8,0.7-5.7c1,1.1,1.8,2.3,2.6,3.5c0-1.6,0-3.2,0.2-4.8c0.2-1.7,0-3.4-0.4-5c-0.2-2.2-0.1-4.5,0.2-6.6
				c-0.3-0.5-0.6-1.1-0.9-1.7c-1,3.3-1.4,6.9-3.7,9.6c0.2-1.9,0.6-3.9,1.1-5.7C52.1,146,51.9,141.8,51.9,137.7z"/>
			<path class="st85" d="M112.8,153.9c0-0.2-0.1-0.6-0.2-0.8c-0.8,1.4-0.3,3.2-1,4.7c0,0.1,0,0.2,0,0.3c0.2,3,0,6,0.6,8.9
				c0.5,2,1.8,3.8,3.7,4.7c-0.1-0.5-0.2-0.9-0.3-1.4C113.8,165,113.3,159.4,112.8,153.9z"/>
		</g>
	</g>
</g>
<g id="_x34_">
</g>
<g id="_x35_">
</g>
<g id="_x36_">
</g>
<g id="_x37_">
</g>
<g id="_x38_">
</g>
<g id="_x39_">
</g>
<g id="_x31_0">
</g>
<g id="_x31_1">
</g>
<g id="_x31_2">
</g>
<g id="_x31_3">
</g>
<g id="_x31_4">
</g>
</svg>
