<?xml version="1.0" encoding="utf-8"?>
<!-- Generator: Adobe Illustrator 21.0.2, SVG Export Plug-In . SVG Version: 6.00 Build 0)  -->
<svg version="1.1" xmlns="http://www.w3.org/2000/svg" xmlns:xlink="http://www.w3.org/1999/xlink" x="0px" y="0px"
	 viewBox="0 0 226.8 226.8" style="enable-background:new 0 0 226.8 226.8;" xml:space="preserve">
<style type="text/css">
	.st0{opacity:0.6;fill:url(#SVGID_1_);}
	.st1{opacity:0.3;fill:url(#SVGID_2_);}
	.st2{fill:#010101;}
	.st3{opacity:0.45;}
	.st4{fill:url(#SVGID_3_);}
	.st5{fill:url(#SVGID_4_);}
	.st6{fill:url(#SVGID_5_);}
	.st7{fill:url(#SVGID_6_);}
	.st8{fill:url(#SVGID_7_);}
	.st9{fill:url(#SVGID_8_);}
	.st10{fill:url(#SVGID_9_);}
	.st11{fill:url(#SVGID_10_);}
	.st12{fill:url(#SVGID_11_);}
	.st13{fill:url(#SVGID_12_);}
	.st14{fill:url(#SVGID_13_);}
	.st15{fill:url(#SVGID_14_);}
	.st16{fill:url(#SVGID_15_);}
	.st17{fill:url(#SVGID_16_);}
	.st18{fill:url(#SVGID_17_);}
	.st19{fill:url(#SVGID_18_);}
	.st20{fill:url(#SVGID_19_);}
	.st21{fill:url(#SVGID_20_);}
	.st22{fill:url(#SVGID_21_);}
	.st23{fill:url(#SVGID_22_);}
	.st24{fill:url(#SVGID_23_);}
	.st25{fill:#D9B14D;}
	.st26{opacity:0.8;}
	.st27{fill:url(#SVGID_24_);}
	.st28{fill:url(#SVGID_25_);}
	.st29{fill:url(#SVGID_26_);}
	.st30{fill:url(#SVGID_27_);}
	.st31{fill:url(#SVGID_28_);}
	.st32{fill:url(#SVGID_29_);}
	.st33{fill:url(#SVGID_30_);}
	.st34{fill:url(#SVGID_31_);}
	.st35{fill:url(#SVGID_32_);}
	.st36{fill:url(#SVGID_33_);}
	.st37{fill:url(#SVGID_34_);}
	.st38{fill:url(#SVGID_35_);}
	.st39{fill:url(#SVGID_36_);}
	.st40{fill:url(#SVGID_37_);}
	.st41{fill:url(#SVGID_38_);}
	.st42{fill:url(#SVGID_39_);}
	.st43{fill:url(#SVGID_40_);}
	.st44{fill:url(#SVGID_41_);}
	.st45{fill:url(#SVGID_42_);}
	.st46{fill:url(#SVGID_43_);}
	.st47{fill:url(#SVGID_44_);}
	.st48{fill:url(#SVGID_45_);}
	.st49{fill:url(#SVGID_46_);}
	.st50{fill:url(#SVGID_47_);}
	.st51{fill:url(#SVGID_48_);}
	.st52{fill:url(#SVGID_49_);}
	.st53{fill:url(#SVGID_50_);}
	.st54{fill:url(#SVGID_51_);}
	.st55{fill:url(#SVGID_52_);}
	.st56{fill:url(#SVGID_53_);}
	.st57{fill:url(#SVGID_54_);}
	.st58{fill:url(#SVGID_55_);}
	.st59{fill:url(#SVGID_56_);}
	.st60{fill:url(#SVGID_57_);}
	.st61{fill:url(#SVGID_58_);}
	.st62{fill:url(#SVGID_59_);}
	.st63{fill:url(#SVGID_60_);}
	.st64{fill:url(#SVGID_61_);}
	.st65{fill:url(#SVGID_62_);}
	.st66{fill:url(#SVGID_63_);}
	.st67{fill:url(#SVGID_64_);}
	.st68{fill:url(#SVGID_65_);}
	.st69{fill:url(#SVGID_66_);}
	.st70{fill:#030303;}
	.st71{fill:#B7A151;}
	.st72{fill:#F3EAB3;}
	.st73{fill:#894B29;}
	.st74{fill:#B66931;}
	.st75{fill:#E6D279;}
	.st76{fill:#C88632;}
	.st77{fill:#F5EDDA;}
	.st78{fill:#A76F48;}
	.st79{fill:#553228;}
	.st80{fill:#814830;}
	.st81{fill:#FAF4E3;}
	.st82{fill:#D6A673;}
	.st83{fill:#BF8D5F;}
	.st84{fill:#F6E0BC;}
	.st85{fill:#E5BF95;}
	.st86{fill:#020202;}
	.st87{fill:#FBFCFC;}
	.st88{fill:#2C457F;}
	.st89{fill:#807F80;}
	.st90{fill:#BBB9BA;}
	.st91{fill-rule:evenodd;clip-rule:evenodd;fill:#E01F27;}
	.st92{fill:#E01F27;}
	.st93{fill:#010101;stroke:#010101;stroke-width:3;}
	.st94{fill:#FFFFFF;}
	.st95{fill:#484848;}
</style>
<g id="FreeVector.com_BG">
</g>
<g id="Visit_FreeVector.com">
</g>
<g id="Starburst1">
</g>
<g id="Starburst2">
</g>
<g id="Stars">
</g>
<g id="_x31_">
</g>
<g id="_x32_">
</g>
<g id="_x33_">
</g>
<g id="_x34_">
</g>
<g id="_x35_">
</g>
<g id="_x36_">
</g>
<g id="_x37_">
</g>
<g id="_x38_">
</g>
<g id="_x39_">
</g>
<g id="_x31_0">
</g>
<g id="_x31_1">
	<g>
		<g>
			<path class="st2" d="M108.8,27.6c-4.6,0.7-8.8,2.6-13.1,4.1c-1.6,0.6-3.4,0.9-4.8,1.8c-2.6,1.6-4.5,4-6.7,6.1
				c-2,1.9-2.7,4.6-4,6.9c-1.7,2.9-3.2,5.9-5.1,8.6c-0.9,1.2-1.5,2.6-2.1,4c0.7-0.4,1.4-0.8,2.1-1.2c0.7,0.2,1.3,0.4,2,0.6
				c0.8-0.6,1.7-1.2,2.5-1.8c0.7,0.2,1.4,0.4,2.1,0.6c1.1-1.3,1.8-3,3-4.1c0.7-0.6,1.6-0.7,2.4-1c0.4-0.3,0.8-0.7,1.1-1.1
				c2-0.1,4.3,0.7,6.1-0.5c3.8-3.1,6.8-7.4,11.2-9.7c1.6-0.9,3.4-1.2,5.1-1.8c7.9-2.3,16.5-1.8,24.3,0.6c1.9,0.6,3.6,1.4,5.5,1.8
				c2.6,0.7,5.3,1.1,7.7,2.4c3.5,2,7.6,2.8,10.9,5.1c2.1,1.5,4,3.3,5.8,5.1c1.2,1.2,1.5,2.9,2,4.5c0.6-0.5,1.2-1.1,1.8-1.6
				c-0.1-0.6-0.2-1.3-0.3-1.9c0.7,0.2,1.3,0.5,2,0.7c0.4-0.6,0.9-1.3,1.3-1.9c-0.3-1.3-0.8-2.6-1.3-3.8c2.5,3.2,3.9,7.2,4.6,11.2
				c-0.9,1.1-2,2-3.2,2.8c0,4.3,0.5,8.6,0.7,13c0.1,5.8-0.6,11.7-0.7,17.5c-0.1,4.6,0.4,9.2-0.1,13.8c0,1.4-0.7,2.8-1.3,4
				c0.2-0.1,0.7-0.2,1-0.3c0.5,1.4,0.9,2.8,1.5,4.1c0.4,0.8,0.8,1.6,0.8,2.5c0.1,1.4-0.3,2.9-0.1,4.3c0.3,2.5,1.6,4.8,2,7.3
				c0.8,4.7,2.1,9.3,2.4,14c0.2,3.1,1.7,6,2.7,8.9c0.5,1.4,0.8,2.8,1.3,4.2c1.4,4,2.4,8.2,2.4,12.5c-1.1-2-1.2-4.3-1.6-6.5
				c-0.6-3.1-2.3-6-2.8-9.1c-0.5-2.8-1.9-5.3-2.4-8.1c-1.5-7.6-1.1-15.6-4.4-22.7c-3.4,3-4.8,7.9-3.8,12.2c0.4,1.8,0.5,3.6,0.8,5.4
				c0.1,0.9,1,1.2,1.8,1.3c1,0.1,2.1,0.3,3,0.9c0.2,2.3,0,4.8-1.7,6.6c0.5,3.4,0.9,6.9,1.5,10.3c0.8,3.4,2.6,6.4,3.4,9.8
				c0.9,0.6,1.7,1.2,2.7,1.6c1.2,0.5,2.6,0.7,3.9,0.9c2.5,0.5,5,0.9,7.6,0.5c0-0.2,0-0.5,0-0.6c0.1,0.3,0.2,0.6,0.3,0.9
				c-3.4,0.2-6.9-0.1-10.2-0.8c0,0.1,0,0.4,0,0.5c0.1,1.2,0.2,2.3,0.4,3.5c0.6,2.2,2.2,3.7,3.5,5.5c-1.6-0.5-3.2-1.3-4.8-2
				c1.3,1.6,2.9,3,4.9,3.8c2.7,1.2,4.9,3.3,6.9,5.4c-0.2,0.4-0.4,0.8-0.7,1.2c0.7,2.1,1.5,4.2,2.3,6.2c1.2,0.9,1.3,2.7,1.9,4
				c-0.6,0-1.2,0-1.9,0c0-0.7,0.1-1.4,0.1-2.1c-0.8,0.5-1.4,1.2-1.7,2.1c-32.4,0-64.8,0-97.2,0c1-1.4,2-3,2.2-4.8
				c-1.5,1.4-2.6,3.1-3.6,4.8c-0.6,0-1.3,0-1.9,0c1.4-2.7,3-5.2,4.3-8c-1.4,1-2.7,2-4.1,3c0-0.9-0.1-1.8-0.1-2.6
				c-1.8-0.3-3.6-0.5-5.4-0.8c0.7-0.4,1.4-0.7,2.1-1.1c-3.3-1-6.6-1.8-10-2.7c0.1,0.4,0.1,0.9,0.2,1.3c-0.7,0.1-1.3,0.2-2,0.4
				c-1.9,2.8-3.6,5.8-5.4,8.7c1.1-2.3,2.2-4.8,1.9-7.4c-2.2,0.6-3.7,2.3-5.2,3.9c0.8-1,1.5-2,2.1-3.2c-0.6-0.3-1.3-0.6-1.9-0.9
				c-2.4,2.8-3.7,6.2-5.3,9.5c-0.7,0-1.5,0-2.2,0c1.2-2.9,2.4-5.8,3.3-8.8c-1.9,0.5-3.8,0.9-5.7,1.6c-1.2,2.2-1.6,4.7-2.3,7.2
				c-0.5,0-1,0-1.5,0c0.7-2.1,1.5-4.2,2.1-6.3c-4.2,0.5-7.6,3.3-10.4,6.3c-5.1,0-10.2,0-15.3,0c1.6-1.1,2.4-3,2.1-4.9v-0.1
				c0.9-0.8,1.9-1.6,2.9-2.3c2.4-0.1,5-0.5,6.8-2.2c2.4-2.5,4.9-5,7.4-7.5c1.2-1.2,2.6-1.9,4-2.9c1.2-0.8,2.1-2.1,3.4-2.8
				c2.1-1.3,4.5-2,6.7-3.2c1.6-0.1,3.3,0,4.9,0c0.1,0.9,0.1,1.8,0.2,2.7c1.9-1.2,3.2-3,4.7-4.6c-0.5,0.1-1.1,0.3-1.6,0.4
				c0.2-0.1,0.5-0.4,0.6-0.5c-0.5-0.6-1.2-0.9-1.9-1.2c0.2-0.1,0.6-0.4,0.8-0.6c2.9,1.7,5.9,3.5,9,4.9c-3.2-2.3-6.5-4.7-10.1-6.4
				c-1-0.5-2.3-0.3-3.3-0.9c-1.5-0.8-3.2-1.4-4.6-2.3c-1.5-0.9-3.1-1.7-4.6-2.5c1.1-0.4,2.3-0.9,3.3-1.5c-0.8-0.4-1.7-0.7-2.5-1.1
				c0.3-0.8,0.7-1.5,0.8-2.3c-1.2-0.8-2.5-1.2-3.9-1.7c0.3,0.6,0.5,1.1,0.8,1.7c-0.6,0.3-1.2,0.5-1.8,0.8c0-0.5,0.1-1.1,0.1-1.6
				c-1.3,0.4-2.5,0.8-3.8,1.2c1.4,0.9,3,0.9,4.6,0.8c0,0.1,0,0.3,0,0.5c-0.8,0-1.6,0.1-2.3,0.1c0.7,0.5,1.3,1,2,1.5
				c0.9-0.6,1.9-1,3-1c-0.3,0.7-0.7,1.5-1.1,2.2c-3-1.6-6-3.2-9-4.6l0.5-0.2c0.8-0.3,1.7-0.6,2.5-0.8c0.9,0,1.7,0.3,2.5,0.4
				c-0.1-0.5-0.2-0.9-0.3-1.3c0.6-0.4,1.1-0.9,1.7-1.3c0.7,0.5,1.3,0.9,2,1.4c0.5-0.5,1-0.9,1.2-1.6c0.2-1.1-0.1-2.1-0.4-3.2
				c3.2-0.8,6.1-2.2,9.2-3.4c2.1-0.9,4.3-1.7,6.1-3.1c-5.4,1.6-10.4,4.4-16,5.7c-2.6-8.3-6.1-16.2-9.1-24.4c1.8-0.6,3.8-0.8,5.7-0.8
				c-1.8-1-3.8-1.6-5.9-1.1c-0.3-1.9-0.9-3.7-1.6-5.5c1.3-1.6,3.2-3,3.5-5.2c0.2-1.7,1.5-2.8,2.6-4c1-1.1,1.9-2.3,2.6-3.5
				c1.7,0.5,3.3,1.2,4.8,2.3c1.2,0.8,1.6,2.2,2.4,3.4c0.7-0.2,1.5-0.5,2.2-0.7c-1-0.7-2.1-1.2-3.2-1.7c0.6-1.9,0.8-3.9,1.2-5.8
				c1.1-2.7,1.5-5.7,1.6-8.6c-0.2-0.7-0.6-1.3-0.9-1.9c-0.5,3-1.2,6.1-2,9c-0.8-1.9,0.5-3.7,0.9-5.5c-0.7,0.4-1.7,0.9-1.7,1.9
				c0.1,1.6,0.3,3.2,0.7,4.7c0.7,1.7-0.2,3.5-0.8,5.2c-1.3-0.9-2.6-1.8-3.9-2.6c0-0.6,0-1.3,0.1-1.9c-0.5-0.1-0.9-0.2-1.4-0.3
				c1-0.2,2.1-0.4,3.1-0.6c-0.4-0.8-0.7-1.7-1.1-2.5c-0.8-0.1-1.6-0.1-2.4-0.1c-0.1,1-0.1,1.9-0.2,2.9c-0.3,0.3-0.6,0.5-0.9,0.8
				c0,1,0.3,2.2-0.4,3c-2.8,4-6.6,7.1-10.3,10.3c-0.5-5.5-0.7-11-1.2-16.5c-0.3-4.5-1-9-0.9-13.5c0-1.1,0.4-2.6,1.8-2.6
				c2-0.1,4,0.4,5.7,1.3c2.4,2.6,5.3,4.7,8,7c0,0.7,0,1.4,0,2.2c1.8,0.3,3.6,0.9,5.3,1.5c0-0.8,0.1-1.5,0.1-2.3
				c0.6-0.6,1.3-1.1,1.7-1.9c1-1.9,3.1-2.9,5.1-3.7c4.2-1.3,8.7,1.2,12.8-0.6c-1.7,0.1-2.8-1.1-4-2.1c2,0.5,3.8-0.5,5.6-1.4
				c1.5-0.8,3.2-0.7,4.6-1.7c1.5-1,2.9-2.4,3.8-4c0.3-1.3,0.4-2.7,0.6-4.1c-3.9-1.5-8-2.1-12.1-2.5c-5.7-0.2-10.7,3.2-15.7,5.4
				c0.5,1.9-0.7,3.6-1.1,5.4c0.9-0.4,1.7-0.8,2.6-1.3c-0.6,0.7-1.1,1.5-1.7,2.2c2.6,0.1,5.1,0.2,7.7,0.2c-4.9,0.4-10.2,0.7-14.2,4
				c0,0.6,0,1.2-0.1,1.7c-0.3-0.1-1-0.2-1.3-0.3c0.3,0.7,0.6,1.4,0.8,2.1c-0.9-0.8-1.8-1.7-2.7-2.5c0.9-0.4,1.7-0.8,2.6-1.2
				c-2,0.3-4.2,0.5-6.1-0.6c0.5-1,0.7-2.2,0.5-3.3c1.8-1,3-2.7,3.8-4.5c-0.5-0.7-1-1.5-1.5-2.2c-0.7,0.5-1.4,1-2,1.5
				c0.6-1,1.2-2.2,2.1-3c0.5-0.4,1.1-0.2,1.7-0.2c-0.1-0.6-0.6-1.4,0-1.9c4.7-6.4,8.9-13.1,13.5-19.6C68.7,57,67,59.3,67,62
				c4-5.2,7.6-10.7,10.7-16.4c2.4-4.1,5.4-7.9,8.8-11.2c1-1,2-2,3.3-2.6c1.6-0.8,3.5-1.2,5.2-1.7c5.5-1.5,11-3.1,16.6-3.8
				c3.6-0.2,7.2-0.2,10.8,0.3C117.9,26.6,113.3,26.6,108.8,27.6z M166.2,65.2c-0.3,2.5-0.8,5-0.3,7.5c0.3,0.8,1.4,0.5,2.1,0.6
				c0.4,4.1,0.9,8.2,0.2,12.2c-0.6,3.3,0,6.7-0.1,10c0.1,2.6-0.4,5.2,0,7.8c0.3,1.9,0.5,3.8-0.2,5.7c-1.4-0.4-2.7-1.1-4.2-0.8
				c1.5,1.6,3.7,2.1,5.5,3.1c0.4-0.9,1.1-1.6,1.2-2.6c0.9-5.5,0.3-11.1,0.6-16.6c0.2-3.5,0.4-7.1,0.5-10.6c0-4.2,0-8.3-0.2-12.5
				c0-1.3,0-2.6-0.6-3.8C169.6,64,167.5,64.2,166.2,65.2z M147.7,72.2c-0.8,2-1.4,5.1-4.2,5c0.1-1.9-1.4-3.2-2.9-4.1
				c-0.4,1.1-0.7,2.2-1.4,3.1c-0.7,0.5-1.5,0.5-2.3,0.7c-1,0.1-1.4,1.2-2.4,1.3c-3.1,0.7-6.3,0.8-9.4,1c-1.3-0.5-2.5-1.3-3.8-1.8
				c-0.1,2.5,1.6,4.5,2.3,6.7c-1.6,0.1-3.2-0.2-4.9-0.4c1.2,1,2.6,1.8,4,2.6c1.3,0.7,2.4,1.8,3.6,2.6c3.5,2.7,7.3,5.1,11.1,7.3
				c1.2,0.6,2.3,1.3,3.6,1.5c1.6,0.4,3.4-1.2,3.2-2.8c-0.1-1.2-0.7-2.2-1.1-3.3c0.8-2.3,0.3-4.7-0.2-7c0.3-2.4,0.5-4.9,0.1-7.4
				c0.6,0.3,1.2,0.5,1.7,0.7c-0.7,2-1.2,4.4,0.4,6.1c2.6-0.9,4.6-2.9,5.9-5.3c0.8,0.2,1.6,0.5,2.5,0.7c1.7-1.7,1-4.1,0.4-6.1
				c-0.5,0.2-1,0.3-1.6,0.5c-0.1-0.2-0.2-0.6-0.3-0.8C150.6,72.9,149.2,72.6,147.7,72.2z M83.6,88.7c-0.5,0.1-1,0.5-1.5,0.8
				c1.1,0.2,2.4,0.6,2.6,1.8l0.2-0.4c1.3,0.6,2.6,1.4,3.4,2.7c0.5,0.9,1.3,1.6,2.2,2.1C88.3,93.3,86.7,90.1,83.6,88.7z M80.9,90
				c0.7,0.5,1.5,0.7,2.3,0.6c0.3,0,0.2-0.3,0.3-0.5C82.6,90.1,81.8,90,80.9,90z M80,93c1.3,0.1,2.6-0.2,3.3-1.4
				C82.1,91.7,80.9,92.1,80,93z M73,92.9c1.4-0.1,2.9-0.2,4.1-1.1C75.7,91.5,73.8,91.3,73,92.9z M54.2,93c0.3,2.5,0.6,5,1.4,7.4
				c0.6-2.4,0.9-5-0.3-7.2C55,93.1,54.6,93.1,54.2,93z M72.8,96c0.9,0.8,2.3-1,1.3-1.6C73.2,93.9,72.1,95.3,72.8,96z M71.7,96.2
				c-1.8,0.8-2.6,2.8-2.7,4.6c-0.1,1.5-0.2,3,0.4,4.4c0.2,0.5,0.7,0.8,1.2,0.9c0-0.6-0.1-1.3-0.2-1.9c-0.3,0-1-0.1-1.3-0.2
				c0.6-0.4,1.3-0.8,1.9-1.2c0.1,1.1-0.1,2.2-0.1,3.3c0.4,0.7,1.1,1.3,1.6,1.9c-0.5-0.3-1.1-0.7-1.6-1c-0.3,1.3,1.1,1.8,2,2.4
				c-0.1-0.7-0.1-1.3-0.2-1.9c0.8,1.4,2.2,2.5,3.8,2.4c-1-2.2-0.8-4.7-0.4-7.1c-0.8,0-1.6,0.2-2.4,0.1c-0.6-0.1-0.6-0.7-0.8-1.2
				c1.2-0.2,2.5-0.2,3.7-0.2c0.2-1.4,0.5-3-0.4-4.2C75,96.4,73.3,96.5,71.7,96.2z M57.1,96.3c-0.1,1.4-0.1,2.8-0.2,4.3
				c1.4,0,2.9,0.1,4.3,0.6c0-0.7-0.1-1.3-0.1-2c-0.5,0.1-1,0.1-1.5,0.2c0.1-1,0.2-1.9,0.3-2.9C59,96.3,58,96.3,57.1,96.3z
				 M79.1,100.4c0.5,0,1.1,0.1,1.6,0.1c-0.2-0.8-0.4-1.5-0.7-2.2C79,98.5,79.1,99.5,79.1,100.4z M142.3,98.5c1.1,1.3,2.8,2,4.4,2.5
				C146,99.3,144.2,98.3,142.3,98.5z M77.1,104.4c0.9-0.1,1.8-0.4,2.6-0.8c0.1-0.7,0.1-1.4,0.1-2.2C78.4,101.8,77.6,103,77.1,104.4z
				 M79.3,106.1c0.8,1.4,2.4,0.5,3.4,0C81.5,106,80.4,106,79.3,106.1z M86.6,111.9c-2,0.3-3.9-0.1-5.9-0.1c-1.3,0-2.5,0.3-3.7,0.5
				c-3.5,0.4-7,0.1-10.4-0.6c-0.5,0.3-0.9,0.6-1.4,0.9c1.7,0,1.8,1.8,2.5,2.9c1.6,1.1,3.3-0.1,4.9-0.6c3.1-0.7,5.9,1.4,8.9,1.3
				c-0.3-1-1-1.8-1-2.8c1.2-0.5,2.5-1,3.8-1c1.8,0,3.5,0.6,5.3,0.7c2-0.7,4.6-1.5,5.3-3.8C92,109.9,89.4,111.4,86.6,111.9z
				 M58.4,115.5c-1.3,0.6-2.1,1.9-3.5,2.4c-1.5,0.5-2.9,1.3-3.6,2.7c2.9,0.5,5.8-0.6,8.7-0.5c1.2,0,2.3,0.5,3.4,0.9
				c0-0.5,0.1-1.1,0.1-1.6c-0.9,0.1-1.9,0.6-2.8,0.3c-1.8-0.5-3.7-0.3-5.5-0.2c1.3-1.3,3.1-1.7,4.8-2.4c4,1.3,8.3,1.3,12.4,1.6
				c1.6,0.4,3.1,1.5,4.9,1.3c1.2-0.7,2.4-1.4,3.8-1.7c-0.6-0.3-1.1-0.6-1.7-0.9c-0.7,0.5-1.5,1-2.4,0.8c-2-0.3-3.7-1.5-5.8-1.3
				c0.5-0.3,1.1-0.6,1.6-0.9c-1.1,0.1-2.1,0.3-3.2,0.4c0.1,0.7,0.2,1.3,0.4,2c-1.3-0.8-2.6-1.5-4.1-1.6c0-0.4,0.1-0.8,0.1-1.2
				c-0.4,0-0.8,0-1.2-0.1c-0.4-0.6-0.9-1.1-1.4-1.7C61.9,114.8,60.2,115.1,58.4,115.5z M72.2,115.3c1,0.8,2.4,0.5,3.5,0.1
				C74.6,114.7,73.3,114.9,72.2,115.3z M77.5,123.8c-0.9,0.1-1.6-0.6-2.3-1c-2.8-1.8-6.2-2-9.2-3c-0.7-0.4-1.2,0.4-1.1,1
				c-0.1,2.8,0.8,5.5,1,8.2c-0.9,0-1.7,0-2.6,0c1.1,1.5,2.5,2.7,3.3,4.3c1.2,2.4,3.3,4.3,4.1,6.9c0.6,1.7,1.2,3.3,1.9,4.9
				c0.3-0.4,0.6-0.7,0.9-1.1c-0.4-1-1.1-2.1-0.6-3.2c1.5-5,2.8-10,3.9-15.1c3.5-0.8,6.9-2.2,10.5-2.5c3-0.3,5.6-1.9,7.8-3.7
				C89.3,120.9,83.5,123.1,77.5,123.8z M90.3,123.5c-2.3,0.4-4.7,0.5-7,1.2c-2,0.6-3.9,1.4-6,1.8c-1.3,5.5-3.1,11-3.8,16.6
				c6.2-2.7,12.3-5.6,18.3-8.6c1.5-4.4,2.5-9,3.4-13.7C93.5,121.7,92.1,123,90.3,123.5z M138.9,127.7c-0.8,2.5-1.2,5.2-0.4,7.7
				c0.4,1.3,1.2,2.4,2.3,3.2c0-1.6-0.8-3-1.5-4.5c0.9-1.8,1.7-4,0.6-5.9C139.8,127.7,139.3,127.8,138.9,127.7z M130.7,131.1
				c-2.3,0.3-4.6,0.4-6.7,1.5c-1.4,3-3.5,5.8-3.3,9.3c0.2,1.2-0.1,2.3-0.3,3.4c0.9-0.1,1.9-0.3,2.5-1.1c-1.2-2.5,0.4-5.6,2.9-6.5
				c1-0.2,2.1,0.2,3.1,0.3c0.9-0.2,1.7-0.7,2.6-1.1c0.8,0.2,1.6,0.4,2.4,0.5c0,0.4-0.1,0.8-0.1,1.1c0.9-0.3,1.8-0.3,2.6,0
				c0.4-0.5,0.8-0.9,1.2-1.4c-0.5-3-1.4-6-0.4-9C134.9,128.9,132.9,130,130.7,131.1z M93.9,136.9c-4.7,2.4-9.2,5.2-13.8,7.7
				c-3.2,1.7-6.6,3-9.7,4.8c-0.6,0.2-0.7,0.9-0.9,1.3c3.4-1.4,6.7-2.9,10.1-4.3c5.7-2.3,10.5-6.2,15.9-9.1c1.6-0.9,3.3-1.9,4.6-3.2
				C97.9,134.6,95.9,135.9,93.9,136.9z M90.6,141c-0.1,0.4-0.3,0.8-0.4,1.2c-2.9,0.7-5.2,2.9-7.7,4.3c4.4,1,8.7-0.6,13-0.9
				c0.5-1.4,1.5-3.2,0.1-4.4c1.7-0.7,2.6-2.6,2.9-4.3C95.8,138.2,93.2,139.6,90.6,141z M144.6,139.7c-0.6,0.8-1.2,1.7-1.7,2.6
				c0.8,0.5,1.9,0.8,2.3,1.8c1,2,0.8,4.7,3,5.8C148,146.2,146.8,142.6,144.6,139.7z M139.6,144.7c-1.5,0.2-3.1,0.4-4.4,1.3
				c-1.7,1.1-3.8,1.4-5.7,2.1c-0.4,1-0.8,2-1.3,2.9c-1.3,0.2-2.5,1.3-2.4,2.8c0.1,1.7,1.7,2.6,2.9,3.4c-0.1-1.2-0.2-2.4-0.3-3.6
				c0.7-0.2,1.4-0.5,2.1-0.7c0.2-0.3,0.4-0.7,0.7-1c1.2-0.4,2.4-0.6,3.7-0.6c-0.1,1-0.1,2-0.2,3c-0.4,0.2-0.8,0.5-1.2,0.7
				c0,1.4-0.3,2.9,0.1,4.3c1.5,1.5,4,1.7,5.9,0.9c1.3,1,2.7,2.1,4.4,2.2c0.7,0,1.2-0.3,1.8-0.7c-0.2,0.4-0.3,0.8-0.5,1.2
				c1.5,0.1,2.9,0.2,4.4,0.3c-0.7-1.5-2.2-2.6-3.8-2.6c-1.1,0-2.1-0.1-3-0.7c-1.3-0.8-2.9-1.1-4-2.3c-0.8-0.8-1.5-1.7-2.3-2.5
				c2-0.3,4.4,0.4,5.9-1.3c-0.5-0.1-1.1-0.1-1.6-0.2C141.3,150.6,141.4,147.3,139.6,144.7z M113,144.7c-0.1,1.1,0,2.3,0,3.4
				c-2.9-0.2-5.4,1.4-8.2,1.6c-7,0.7-13.9,2.8-21,2.9c-5.7,1.1-11.5,1.4-17,3.1c3.3,0.4,6.6-0.1,9.8-0.8c1.1-0.2,2.3-0.6,3.4-0.5
				c1.2,0,2.5,0.3,3.7,0.2c10-0.7,20-2.2,30-3.2c0.9,2.2,1.6,4.5,3.1,6.4c0.6,0.8,1.3,1.5,2.2,1.8c4.7,1.7,9.6,3.1,14.7,3
				c-0.6-0.8-1.4-1.5-2.4-1.7c-3-0.4-6.3-0.2-9.1-1.6c-2.3-1.3-4-3.3-5.4-5.5c0.5-1.4,1-3,0.3-4.4c-0.4-0.8-1.3-0.9-2-1.1
				c-0.3,0.6-0.6,1.1-0.9,1.7C113.8,148.1,113.7,146.3,113,144.7z M99.8,148c-6.4-0.1-12.8,1.3-19.1,2c-6.5,0.8-12.9,2.5-19.4,3.3
				c-0.8,0.2-0.5,1.7,0.3,1.5c6.8-0.9,13.5-2.3,20.3-3.2c9.5-1.1,18.9-2.5,28.2-4.4c0.7-0.1,1.3-0.3,1.9-0.6
				C107.9,146.4,103.9,147.8,99.8,148z M144.4,150.2c-0.3,1.2-0.6,2.4-0.6,3.7c1.5,0.2,3-0.8,3.1-2.4
				C146.1,151,145.3,150.6,144.4,150.2z M62,159c0.3,0.6,0.7,1.2,1,1.8c0.5,0.9,0.4,2,0.6,3c-0.8,0-1.7-0.1-2.5-0.1
				c1,0.8,2.3,1.3,3.6,1.4c0.1,0.4,0.1,0.8,0.2,1.2c0.3,0.2,0.6,0.3,0.9,0.5c0.1-0.4,0.2-0.8,0-1.2C65.2,163.2,63.9,160.8,62,159z
				 M136.4,162.6c-8,0.3-16.2,1.5-23.5,5c0.8,1.5,0.6,3.3-0.5,4.6c2.3,1.3,3.7,3.8,4.1,6.3c-0.3,2-1.5,3.9-1.2,6
				c4.4,0.3,9-0.5,12.9-2.7c1-0.6,0.2-2,0.2-2.9c1.6-0.9,3.4-1.5,5.3-1.5c-0.3,1.1-0.9,2-1.5,2.9c4.1-0.9,8.2-2.3,12.1-4.1
				c-1.5-1.1-3.4-0.6-5.1-0.5c0.2-0.3,0.5-0.5,0.7-0.8c1.9,0.1,3.9,1.1,5.7,0.1c0.7-0.3,0.5-1.1,0.6-1.7c0.1-3.5-1.7-6.7-2.7-10
				c-0.2,0.3-0.5,0.6-0.7,1C140.7,163.6,138.7,162.5,136.4,162.6z M77.5,175.3c0.3,1.2,0.7,2.3,1.1,3.5c0.5,0.2,1,0.4,1.5,0.6
				c0.7-0.2,1.3-0.5,2-0.7c0,0.4,0,0.8,0,1.2c-1.1,0.2-2.3,0.3-3.4,0.5c-0.1,0.4-0.1,0.9-0.2,1.3c-1.8,1.3-1.8,4-0.4,5.6
				c1.6,0.6,3.2,1.1,4.8,1.8c-0.9-1.7-0.8-3.6-0.7-5.4c1.3,0.1,2.7,0.5,4,0.2c1.1-0.5,2.1-1.2,3.1-1.9
				C85.6,179.4,81.6,177.3,77.5,175.3z M97.6,182.4c-2.8,0.2-5.8,0-8.4,1.1c-1,0.3-1.8,1-2.7,1.4c-1.2,0.3-2.4,0.2-3.6,0.3
				c0.1,0.6,0.2,1.3,0.2,1.9c0.6,0.2,1.2,0.4,1.8,0.6c-0.5,0.1-1.1,0.2-1.6,0.3c1.1,1.4,2.9,1.3,4.4,2c0.2-0.2,0.5-0.3,0.7-0.5
				c1,0.5,2.2,0.6,3.3,0.7c-0.7,0.6-1.4,1.2-2.1,1.9c1.5-0.1,3-0.3,4.4-0.8c0.9-0.3,1.7-0.9,2.6-1c3.1-0.6,6.2-1.1,9.1-2.3
				c2.2-0.9,4.6-0.9,6.8-1.4c-0.2-0.5-0.3-0.9-0.5-1.4c0.6,0,1.2,0,1.7,0c-0.6-0.6-1.2-1.1-1.8-1.6c-0.4,0.7-0.8,1.4-1.2,2.1
				c-2.5-0.6-5-1.7-7.6-1.4c-1,0-2.1,0.1-3.1-0.1C99.2,183.9,98.4,183.1,97.6,182.4z M170.3,187.8c4,1.9,8.5,2.8,12.2,5.4
				c1.9,1.5,3.8,3,5.6,4.5c-0.1-0.2-0.4-0.7-0.5-1c1.2,0.1,2.3,0.6,3.5,0.6c0.6,0.1,0.8-0.4,0.8-0.9c-0.3-0.7-1.1-0.9-1.8-1.2
				c-0.4,0.4-0.8,0.7-1.2,1.1c-0.5-1.2-0.7-2.6-1.9-3.3c-1.4-0.7-2.9-1.4-4.3-2.1c1.6,1.6,3.6,2.7,5.4,4.2c-0.3,0.3-0.6,0.7-0.9,1
				c-0.4-0.6-0.8-1.3-1.4-1.8C181.3,191,176,188.3,170.3,187.8z M101.5,191.8c0.9,1.3,1.8,2.6,3.1,3.6c0.1-1.5,0.3-2.9,0.4-4.4
				C103.8,191.3,102.7,191.5,101.5,191.8z"/>
		</g>
		<path class="st2" d="M75.2,86.9c-2.5-0.4-5.1-1.2-7.6-0.7c-2.4,0.5-4.8,1.5-7.1,2.2c-0.2,0.7-0.4,1.4-0.6,2.1
			c1.4,0.6,3,0.9,4.5,0.8c1.4-1.2,2.7-2.4,4.3-3.2C70.7,87.3,73,87.3,75.2,86.9z"/>
		<g>
			<path class="st2" d="M47.9,123.3c0.6,3.7,1.6,7.4,3.1,10.8c-2.3,1.8-3.8,4.3-5.8,6.3c-1.2,1.2-2.4,2.2-3.5,3.5
				c1.1-0.9,2.2-1.8,3.3-2.7c2.4-1.8,4.1-4.4,6.2-6.6c0.7,2,1.5,4.1,2.3,6.1c-0.5,0.4-1.1,0.7-1.4,1.3c-1.4,2.6-2.4,5.3-3.3,8
				c-0.6-0.1-1.2-0.1-1.8-0.1c0.4-2.6,2.4-4.7,2.3-7.4c-1.9,2-2.7,4.7-3.9,7.1c-0.8,0.2-1.6,0.5-2.3,0.7c0.3,0.4,0.4,0.8,0.8,1.1
				c1.1,0.2,2.3-0.2,3.4,0c2.6,0.4,5.2,0.5,7.7,1c-0.5,0.2-0.9,0.5-1.4,0.7c-0.2,0.4-0.3,0.9-0.5,1.3c-4.3-0.5-8.6-0.9-12.8-1.7
				c0.6-0.3,1.3-0.4,1.6-1c0.9-2.1,1.9-4.2,2.5-6.4c-1,1-1.6,2.2-2.6,3.3c-0.5,0.6-1.3,0.6-2.1,0.8c0-1.4,0.7-2.7,1.3-3.9
				c-1.3,1.3-2.4,2.9-4.1,3.9c0.6,0.6,1.3,1.1,1.9,1.7c-0.7,0.6-1.6,1.1-2.5,1.4c1.5,0.5,3,1.1,4.5,1.4c-2,0.2-3.8-1-5.6-1.6
				c-0.2,0.6-0.4,1.1-0.6,1.7c-1.5,0.1-3.1,0.2-4.6-0.3c1.4,0.1,2.8,0.2,4.3,0.2c0-2,2.1-2.7,2.9-4.3c-0.9,0.5-1.7,1.1-2.6,1.6
				c0.1-1.1,0.4-2.2,1.4-2.8c0.8-0.7,2.2-1,2.4-2.2c1.3-4.7,2-9.6,3.1-14.3c0.5-2.1,0.8-4.2,0.9-6.3c0.1-1.5-0.3-3,0.1-4.5
				c0.3-1,0.8-1.9,1.4-2.7c0.8,0.1,1.6,0,2.2,0.6C47.3,120,47.7,121.7,47.9,123.3z M45.7,119.4c-1.4,0.6-2.3,2-3.1,3.2
				c-0.4,0.4-0.2,0.9-0.2,1.4c0.2,1.7,0.3,3.7,1.8,4.9c1.4,0.5,2.9,0.4,4.3,0.6C47.4,126.1,47.6,122.4,45.7,119.4z"/>
		</g>
		<path class="st2" d="M75.4,126.2c-0.1-1.1-0.4-2.1-0.6-3.2c-0.9,0.2-2.1,0.1-2.7,0.9c-0.6,1.8,0.7,3.4,1.2,5.1
			c0.6,1.7-0.2,3.4,0.1,5.1c0.4-1.6,0.5-3.2,1-4.7C74.8,128.3,75.5,127.3,75.4,126.2z"/>
		<path class="st2" d="M55.2,145.2c-0.6-1.4-1.1-2.9-1.5-4.3c-1.2,3.1-3.4,5.9-3.3,9.3c0.6,0,1.4,0.1,1.8-0.5
			c0.8-1.1,0.8-2.5,1.5-3.5C54.1,145.7,54.7,145.5,55.2,145.2z"/>
		<path class="st2" d="M55.3,145.3c-0.9,1.6-1.1,3.4-1.9,5c1.2,0.9,2.6,0.9,4,0.8C56.5,149.3,56,147.3,55.3,145.3z"/>
	</g>
</g>
<g id="_x31_2">
</g>
<g id="_x31_3">
</g>
<g id="_x31_4">
</g>
</svg>
