<?xml version="1.0" encoding="utf-8"?>
<!-- Generator: Adobe Illustrator 21.0.2, SVG Export Plug-In . SVG Version: 6.00 Build 0)  -->
<svg version="1.1" xmlns="http://www.w3.org/2000/svg" xmlns:xlink="http://www.w3.org/1999/xlink" x="0px" y="0px"
	 viewBox="0 0 226.8 226.8" style="enable-background:new 0 0 226.8 226.8;" xml:space="preserve">
<style type="text/css">
	.st0{opacity:0.6;fill:url(#SVGID_1_);}
	.st1{opacity:0.3;fill:url(#SVGID_2_);}
	.st2{fill:#010101;}
	.st3{opacity:0.45;}
	.st4{fill:url(#SVGID_3_);}
	.st5{fill:url(#SVGID_4_);}
	.st6{fill:url(#SVGID_5_);}
	.st7{fill:url(#SVGID_6_);}
	.st8{fill:url(#SVGID_7_);}
	.st9{fill:url(#SVGID_8_);}
	.st10{fill:url(#SVGID_9_);}
	.st11{fill:url(#SVGID_10_);}
	.st12{fill:url(#SVGID_11_);}
	.st13{fill:url(#SVGID_12_);}
	.st14{fill:url(#SVGID_13_);}
	.st15{fill:url(#SVGID_14_);}
	.st16{fill:url(#SVGID_15_);}
	.st17{fill:url(#SVGID_16_);}
	.st18{fill:url(#SVGID_17_);}
	.st19{fill:url(#SVGID_18_);}
	.st20{fill:url(#SVGID_19_);}
	.st21{fill:url(#SVGID_20_);}
	.st22{fill:url(#SVGID_21_);}
	.st23{fill:url(#SVGID_22_);}
	.st24{fill:url(#SVGID_23_);}
	.st25{fill:#D9B14D;}
	.st26{opacity:0.8;}
	.st27{fill:url(#SVGID_24_);}
	.st28{fill:url(#SVGID_25_);}
	.st29{fill:url(#SVGID_26_);}
	.st30{fill:url(#SVGID_27_);}
	.st31{fill:url(#SVGID_28_);}
	.st32{fill:url(#SVGID_29_);}
	.st33{fill:url(#SVGID_30_);}
	.st34{fill:url(#SVGID_31_);}
	.st35{fill:url(#SVGID_32_);}
	.st36{fill:url(#SVGID_33_);}
	.st37{fill:url(#SVGID_34_);}
	.st38{fill:url(#SVGID_35_);}
	.st39{fill:url(#SVGID_36_);}
	.st40{fill:url(#SVGID_37_);}
	.st41{fill:url(#SVGID_38_);}
	.st42{fill:url(#SVGID_39_);}
	.st43{fill:url(#SVGID_40_);}
	.st44{fill:url(#SVGID_41_);}
	.st45{fill:url(#SVGID_42_);}
	.st46{fill:url(#SVGID_43_);}
	.st47{fill:url(#SVGID_44_);}
	.st48{fill:url(#SVGID_45_);}
	.st49{fill:url(#SVGID_46_);}
	.st50{fill:url(#SVGID_47_);}
	.st51{fill:url(#SVGID_48_);}
	.st52{fill:url(#SVGID_49_);}
	.st53{fill:url(#SVGID_50_);}
	.st54{fill:url(#SVGID_51_);}
	.st55{fill:url(#SVGID_52_);}
	.st56{fill:url(#SVGID_53_);}
	.st57{fill:url(#SVGID_54_);}
	.st58{fill:url(#SVGID_55_);}
	.st59{fill:url(#SVGID_56_);}
	.st60{fill:url(#SVGID_57_);}
	.st61{fill:url(#SVGID_58_);}
	.st62{fill:url(#SVGID_59_);}
	.st63{fill:url(#SVGID_60_);}
	.st64{fill:url(#SVGID_61_);}
	.st65{fill:url(#SVGID_62_);}
	.st66{fill:url(#SVGID_63_);}
	.st67{fill:url(#SVGID_64_);}
	.st68{fill:url(#SVGID_65_);}
	.st69{fill:url(#SVGID_66_);}
	.st70{fill:#030303;}
	.st71{fill:#B7A151;}
	.st72{fill:#F3EAB3;}
	.st73{fill:#894B29;}
	.st74{fill:#B66931;}
	.st75{fill:#E6D279;}
	.st76{fill:#C88632;}
	.st77{fill:#F5EDDA;}
	.st78{fill:#A76F48;}
	.st79{fill:#553228;}
	.st80{fill:#814830;}
	.st81{fill:#FAF4E3;}
	.st82{fill:#D6A673;}
	.st83{fill:#BF8D5F;}
	.st84{fill:#F6E0BC;}
	.st85{fill:#E5BF95;}
	.st86{fill:#020202;}
	.st87{fill:#FBFCFC;}
	.st88{fill:#2C457F;}
	.st89{fill:#807F80;}
	.st90{fill:#BBB9BA;}
	.st91{fill-rule:evenodd;clip-rule:evenodd;fill:#E01F27;}
	.st92{fill:#E01F27;}
	.st93{fill:#010101;stroke:#010101;stroke-width:3;}
	.st94{fill:#FFFFFF;}
	.st95{fill:#484848;}
</style>
<g id="FreeVector.com_BG">
</g>
<g id="Visit_FreeVector.com">
</g>
<g id="Starburst1">
</g>
<g id="Starburst2">
</g>
<g id="Stars">
</g>
<g id="_x31_">
	<g>
		<g>
			<path class="st70" d="M106.2,27.1c2.4-1,4.8-1.9,7.4-2.4c4.5,2.6,9.5,4.1,14.2,6.4c6.5,3.4,12.9,7,19.1,10.9
				c7.4,4.5,13.5,10.8,18.3,18c7.2,10.9,11.2,23.6,12.5,36.5c0.6,5.1,1.5,10.3,0.1,15.3c0.9,0.5,1.7,1,2.6,1.5c0.4,4.6,0,9.2-1,13.7
				c-0.2,1-0.7,2-0.6,3.1c0.2,4.4-0.4,8.8-1.6,13c-1,1.4-2.6,2.2-3.8,3.4c-2.2,6-2.5,12.5-5,18.4c-0.7,1.3-2.3,1.7-3.6,2.3
				c0.8,1.2,1.9,2,2.7,3.2c0.7,1,1.2,2.3,1.1,3.6c-0.5,6.4-1.2,12.8-2.6,19.1c-0.6,2.3-2.6,3.8-4.4,5.2c-2.3-1.3-3.6-3.7-5-5.9
				c-2-0.3-4.3-0.6-6.2,0.5c-9.7,4.5-20.1,8.2-30.9,9c-4.1,0.3-8.2,0.1-12.2-0.6c-8.2-1.2-16.1-3.8-23.7-7.1
				c-1.2-0.5-2.4-1.2-3.7-1.4c-3.4-0.7-6.9,0.2-10.3-0.1c-0.3,1.8-1,3.6-2.4,4.7c-0.9,0.8-2,1.1-3.2,1c-1-1-1.9-2.1-2.7-3.3
				c-1-1.4-1-3.1-1.4-4.7c-1.1-6.1-2-12.3-1.7-18.5c0.1-1.8,1.7-2.9,2.9-3.9c0-0.1,0-0.2,0-0.3c-1-0.7-2.2-1.2-2.6-2.4
				c-2-5.3-3-10.8-4.5-16.2c-0.1-0.3-0.1-0.7-0.5-0.9c-1-0.6-2.1-1-3.2-1.5c-0.2-0.1-0.4-0.2-0.4-0.5c-1.1-4.1-2-8.3-2.2-12.6
				c-0.1-0.8,0-1.7-0.3-2.5c-1.6-4.5-1.4-9.3-1.4-13.9c1.4-0.9,2.9-1.7,4.3-2.6C50,100.5,52,86,57.5,72.9
				c2.9-6.8,6.7-13.3,11.7-18.7c6.7-7.5,14.9-13.5,23.2-19.1C96.9,32.3,101.4,29.3,106.2,27.1z"/>
		</g>
		<g>
			<g>
				<path class="st71" d="M113,27.4c0.5-0.2,1.1,0.1,1.6,0.2c-0.3,0.6-1,1.6-1.7,1C112.9,28.2,112.9,27.8,113,27.4z"/>
				<path class="st71" d="M133.9,36.6c3.5,1.7,6.8,3.8,10.1,5.9c8.2,4.4,14.9,11.1,19.9,18.9c2.9,4.5,5.3,9.4,7.1,14.5
					c0.6,1.5,1,3.1,1.6,4.6c-0.7,0.9-1.9,1.9-1.4,3.2c0.9,3,2.1,6,1.8,9.2c-0.1,1.1-1.3,1.3-2.1,1.7c-0.7-11.5-4.3-22.8-10.4-32.7
					c-3.1-5.3-7.9-9.6-13-12.9c-2.7-1.8-5.6-3.1-8.4-4.7c-0.7-0.5-1.4-0.9-2.2-1.3c0.5-0.2,1-0.3,1.5-0.5c-1.7-1.9-4.1-2.7-6.3-3.7
					C132.8,38,133.3,37.3,133.9,36.6z"/>
				<path class="st71" d="M72.6,53.7c1.5-0.3,2.9-0.5,4.4-0.9c-1.1,0.9-2.3,1.8-3.3,2.9c-3.3,3.4-5.4,7.7-7.5,11.8
					c-0.8,0.1-1.6,0.1-2.3,0.2c0.5-1,1-2.1,1.6-3c0.5-0.7,1-1.3,1.5-2c1.7-2.6,2.8-5.6,4.7-8.1C71.9,54.1,72.2,53.8,72.6,53.7z"/>
				<path class="st71" d="M62,84.8c0.4-2.1,1-4.2,2.1-6.1c0.2,1.3,0.7,2.5,1.1,3.8c1.6,5,0.7,10.4,1.9,15.5c0.2,0.7,0.4,1.6,1.1,2
					c1.4,0.6,3,0.2,4.4,0.8c1.2,0.6,2.1,1.6,3.1,2.6c-1.2,1.7-2.3,3.4-3.2,5.2c-0.5,0.1-1.1,0.2-1.7,0.3c-1.1-1.3-2.2-2.6-3.4-3.9
					c-1.1,0.6-2.2,1.3-3.3,1.9c-0.5-1.3-1-2.6-1.6-4c-0.3-0.7-0.6-1.5-0.7-2.3C61.3,95.3,61,90,62,84.8z"/>
				<path class="st71" d="M171.4,95.9c1.2-1.2,2.5-2.2,3.8-3.2c0.5,5.2,1.8,10.4,1.2,15.7c-0.3,1.7-0.5,3.4-1.4,4.9
					c-0.2,0.2-0.3,0.5-0.5,0.7c-0.7,0.1-1.3,0.3-2,0.4c0.2,2.4,0.8,4.9,0.4,7.3c-0.2,1.2-0.5,2.3-0.9,3.5c-0.5-0.5-1.1-1-1.6-1.5
					c-0.2-0.2-0.2-0.6-0.2-0.9c-0.2-3.5,0.2-7,1-10.5c0.4-1.4,0.6-2.7,0.8-4.1c0.3-2.8,0.8-5.6,1.5-8.4
					C174,98.2,172.3,97.1,171.4,95.9z"/>
				<path class="st71" d="M54.3,109.9c0.9,0,1.8,0.1,2.7,0.3c-0.1,0.6,0.1,1.5-0.6,1.9c-0.7,0.4-1.6,0-1.8-0.7
					C54.4,110.9,54.3,110.4,54.3,109.9z"/>
				<path class="st71" d="M158.5,115.9c0.6-0.1,1.3-0.1,1.9-0.1c-0.3,1.4-0.6,2.9-1,4.3c-0.5-1.2-1.4-2.2-2.4-3
					c-0.6,3.3-0.1,6.6-0.5,9.9c-0.3,2.5-0.9,5.1-0.4,7.6c0.1,0.6,0.5,1.2,0.8,1.7c-1.6,10.3-3.7,20.7-7.6,30.4
					c2.6-0.2,5.1-0.5,7.7-0.7c-0.1,0.5-0.3,1.1-0.5,1.6l-0.3,0c-1.5,0.2-2.9,0.5-4.4,0.5c-3.3,0.1-6.8-0.3-10,0.8
					c-1.1,0.3-2.2,0.8-2.7,1.9c-1.4-0.3-2.7-0.4-4.1-0.6c-1.4-0.3-2.7-0.6-4.1-0.9c3.5-1.2,7.2-1.3,10.9-1.6
					c1.1-0.1,2.2-0.1,3.2-0.1c1.8-6.3,4.3-12.5,5.7-18.9c2.5-10.3,4.7-20.9,3.9-31.6C156.1,116.6,157.3,116.2,158.5,115.9z"/>
				<path class="st71" d="M54.6,118.8c0.2-0.4,0.6-0.8,0.9-1.2c1.1,3.4,1.1,7,1.8,10.5c-0.6,0.3-1.1,0.6-1.7,0.9
					c0.6-2.3,0.7-4.7,0-7C55.4,121,54.8,120,54.6,118.8z"/>
				<path class="st71" d="M175,130.3c-0.1-0.7,0.6-1.1,0.9-1.5c0.6,0.5,1.2,1,1.3,1.8c0.2,0.8-0.1,1.6-0.5,2.3
					C176,132.2,175.1,131.4,175,130.3z"/>
				<path class="st71" d="M166.9,146c0.5,0.6,1,1.2,1.5,1.8c-0.4,3-0.9,6-1.3,8.9c-0.8,0.4-1.7,0.9-2.5,1.4
					C165.1,154.1,165.9,150,166.9,146z"/>
				<path class="st71" d="M148.2,169.6l0.2,0.1c0.7,0.7,1.4,1.7,1.3,2.8c-0.1,1.5-0.9,2.7-1.8,3.8c-0.3-0.7-0.7-1.4-1-2.1
					C147.3,172.6,147.6,171.1,148.2,169.6z"/>
				<path class="st71" d="M141.2,172.6c0.9-1.3,2.6-1.6,4-2.1c0.5,1,1,2,1.4,3.1c-0.4,2.8-1.6,5.4-1.7,8.2c-1.2,1-2.4,2.1-3.8,3
					c-0.1-2-0.3-4-0.7-5.9C140.2,176.6,140.2,174.4,141.2,172.6z"/>
				<path class="st71" d="M61.7,178.6c0.4-2.2,0.8-4.3,1.3-6.5c0.5,2.5,1.6,5,3.5,6.8c0,0.1,0,0.4,0,0.5c-1.4-0.1-2.8,0-4.1,0
					c-0.4,1.4-0.7,2.8-1,4.3c-0.9-2-0.8-4.3-0.8-6.4C60.9,177.7,61.3,178.2,61.7,178.6z"/>
				<g>
					<path class="st71" d="M136.5,180.7c0.5-0.4,0.9-0.9,1.4-1.3c0.5,2.4,0.9,4.8,1.7,7.1c0.1,0,0.3,0.1,0.4,0.2
						c0.8,0.4,1.7,0.8,2.5,1.2c-3,3.6-7.4,5.7-11.6,7.7c-0.9,0.4-1.9,1-2.9,1c-0.9-0.4-1.5-1.2-2.4-1.6c-1.3,0.1-2.4,0.9-3.6,1.1
						c-0.6,0.1-1.2-0.2-1.8-0.3c1.2-2.2,3.1-3.8,4.9-5.5c0.8-0.6,1.6-1.2,2.3-1.8c2.8-2.3,4.9-5.2,6.9-8.2
						C135,180.4,135.7,180.5,136.5,180.7z M131.4,186.1c-1.4,1.7-2.9,3.4-4.3,5.1c2.6-0.7,5.3-1.3,8-1.7c0.8-0.2,1.8-0.2,2.3-1.1
						c0.5-1.1,0.4-2.3,0.5-3.5c-1.5-0.2-3-0.5-4.5-0.3C132.4,184.8,131.9,185.5,131.4,186.1z"/>
				</g>
				<path class="st71" d="M161.9,193.1c0.9-1.2,1.6-2.6,2.5-3.8c0.4,2.7-1.3,5.3-3.6,6.6c-0.4-1.8-0.6-3.6-0.6-5.5
					C160.8,191.3,161.3,192.2,161.9,193.1z"/>
			</g>
			<g>
				<path class="st25" d="M99,33c3.7-2.2,7.6-4.7,12.1-4.6c-0.6,1.2-0.9,2.5-1.4,3.8c-0.6,1.1-1.5,2.1-2.2,3.2
					c-0.3-1.6-0.5-3.2-1-4.8c-0.1,2.8,0.3,5.6,0.4,8.4c-1.1-0.7-2.1-1.5-3.1-2.2c0.3,0.6,0.6,1.2,0.9,1.8c-1.6,0.4-3.2,0.8-4.7,1.2
					C99,37.7,99.4,35.2,99,33z"/>
				<path class="st25" d="M119.1,29.5c5.1,2.1,9.9,4.7,14.8,7.1c-0.6,0.7-1.1,1.4-1.7,2.1c2.2,1.1,4.6,1.8,6.3,3.7
					c-0.5,0.2-1,0.3-1.5,0.5c-4.6-2.2-10-2-14.6-4.3c-0.8-0.4-1.5-0.9-2.3-1.1c-0.8,0.1-1.5,0.6-2.2,0.9c0.2-2.6,0.8-5.2,0.6-7.8
					C118.6,30.2,118.9,29.9,119.1,29.5z"/>
				<g>
					<path class="st25" d="M126.9,41.5c2,0.3,4,0.8,5.9,1.5c-1.2,0.6-2.4,1.1-3.7,1.6c0.6,1.2,1,2.4,1.3,3.7c-1.1,0.1-2.4,0-3.3,0.8
						c-0.9,0.7-1.6,1.5-2.5,2.2c-0.9-0.3-1.7-0.5-2.6-0.8c-1.3,3.7-2.5,7.4-4.2,10.9c-2.5,5-2.8,10.8-2.2,16.3
						c0.2,1.7,0.4,3.6,1.4,5c1.7,2.5,4.2,4.3,6.1,6.6c1.7-0.8,3.4-1.6,5.3-1.7c1.5-0.2,3,0.1,4.5,0.5c-0.6,0.5-1.8,0.7-1.8,1.7
						c-0.1,1.3,0.5,2.5,0.6,3.7c0.1,0.9-0.2,1.7-0.3,2.6c-1.9,0.5-3.8,1.3-5.5,2.2c-2.1,1.1-3.9,2.7-5.7,4.3c-2,1.9-4,4-6,5.9
						c-2.1-2.1-4.1-4.3-6.4-6.1c-0.9-0.7-1.7-1.4-2.4-2.3c1.2-0.5,2.5-0.6,3.8-0.2c0.1,1.6,1.1,2.8,2.2,3.8c0.7-4.7-1.5-9.5-5-12.5
						c-1.8-1.7-4-3-6-4.6c0.6-2.7,1.5-5.3,2.2-7.9c-1.1-0.5-2.3-1-3.3-1.8c0.5-0.7,1.1-1.3,1.7-1.8c-0.5-1.6-1.2-3.1-1.4-4.8
						c-0.2-0.9,0.5-1.7,1.1-2.3c1.9-2.1,3.5-4.3,5.2-6.6c2.2-2.9,2.7-6.8,5.2-9.4c2.6-2.8,6.5-3.8,9.6-5.8
						C123,44.8,125.1,43.3,126.9,41.5z M120.2,92.4c-1.3,1.2-2.4,2.5-3.5,3.8c0.7,1.3,1.7,2.8,3.2,3.3c0.9,0.3,1.9,0,2.7-0.5
						c-0.8-0.8-1.8-1.4-2.5-2.3c-0.4-0.4,0-1,0.2-1.4c0.7-1.3,1.7-2.4,2.5-3.7C121.8,91.7,120.8,91.7,120.2,92.4z"/>
				</g>
				<path class="st25" d="M144.6,48.1c4.1,2.4,7.8,5.4,10.9,8.8c3.5,4.1,6.8,8.6,8.4,13.8c-0.4,0.7-0.7,1.5-0.8,2.3
					c-0.1,1.8,0,3.6,0.1,5.4c-0.4-0.5-0.9-1.1-1.3-1.6c-0.2,3.2,0.3,6.3,0.6,9.4c0.1,1.2,0,2.4-0.3,3.6c-0.6,2.3-1.4,4.5-2.7,6.5
					c-1,1.4-2.2,2.7-2.5,4.4c-0.5,2.3-0.6,4.7-0.5,7c-0.8-0.7-1.5-1.4-2.1-2.1c-0.5-0.7-0.9-1.5-1.4-2.2c-0.1-1.2-0.1-2.4-0.4-3.5
					c1.7-1.5,3.6-2.8,4.9-4.7c1.1-1.6,1.5-3.4,2-5.2c1.4-6,1.2-12.3-0.1-18.3c-0.6-2.8-1.1-5.6-1.6-8.4c-0.5,0.2-1,0.3-1.6,0.5
					c1.2,5.4,2.2,11.1,1,16.6c-1,4.2-1.8,8.5-3.8,12.4c-0.4,0.9-1,1.7-1.6,2.4c-1-1.2-2.2-2.4-3.9-2.5c0.8-0.6,1.6-1.1,2.4-1.7
					c1-0.8,1.4-2,1.9-3.1c1.4-3.3,2.7-6.7,2.8-10.4c-0.2-3.2-1.2-6.2-2.2-9.2c-0.9-2.5-1.7-5.1-2.7-7.6c-0.7-1.6-1.6-3.2-3-4.2
					c-0.7-0.5-1.6-0.7-2.5-0.9c0.1-1,0.2-2.1-0.2-3.2c-0.2-0.7-0.6-1.4-0.7-2.2C143.8,49.6,144.2,48.9,144.6,48.1z"/>
				<path class="st25" d="M88.3,89.8c2.4-2.2,5.8-2,8.8-1.9c1.9,1,3.9,2,5.7,3.2c1.8,1.3,3.1,3.7,2.5,5.9c-0.3,1.2-1.6,1.6-2.7,1.9
					c-0.8-0.5-1.7-0.8-2.5-1.2c0.8-1.2,2-2.5,1.8-4.1c0-0.7-0.7-1-1.3-1.3c-1.6-0.7-3.4-0.5-5.1-0.2c-0.2,1.4-0.4,2.7-0.5,4.1
					c-3.2-0.2-6.4-0.1-9.5,0.4C85.7,94.1,86.3,91.4,88.3,89.8z"/>
				<path class="st25" d="M98.6,103c0.8-1,2.1-1.4,3.3-1.8c3.7,1.5,7.4,3.4,10.1,6.5c1,1.1,1.3,2.5,1.3,3.9c0,1.8-0.2,3.5-0.2,5.2
					c0.3-0.2,0.6-0.4,0.9-0.6c0.1,0.7,0.3,1.4,0.5,2.2c-0.1,2-0.4,4.1-0.5,6.1c-0.1,1.4,0,2.9,0.1,4.3c0,0.6,0.1,1.1,0.1,1.7
					c-0.1,0.1-0.2,0.3-0.3,0.4c-0.5-0.4-0.9-0.8-1.4-1.1c-1.5,1.6-2.6,3.5-3.7,5.4c-1.1,2-2.7,3.6-4.2,5.3c-0.9,1.1-1.9,2.3-2.9,3.3
					c-0.4-1.7-0.2-3.5,0-5.2c-0.5,0.6-1.1,1.2-1.6,1.8c-2.7-0.5-5.4-1-8.2-1.3c0.1-2,0.4-4,0.7-6c2.9-0.4,5.8-1.5,7.7-3.8
					c1.4-1.8,2.6-3.8,3-6c0.5-3.3-0.2-6.7-1.8-9.6c-1.2-2-2.9-3.6-5-4.6C96.7,106.9,97.2,104.6,98.6,103z"/>
				<path class="st25" d="M138.6,112.9c0.5-0.5,1.3-0.6,1.9-0.7c0.5,0.1,1.1,0.1,1.6,0.3c0.5,0.4,0.9,0.9,1.3,1.4
					c-0.2,1.1-0.4,2.2-0.6,3.2c-0.9-0.7-1.8-1.4-2.7-2.1c-0.7-0.5-1.7-0.3-2.5-0.4C137.8,114,138.1,113.4,138.6,112.9z"/>
				<path class="st25" d="M151.2,115.5c0.5-0.1,1-0.1,1.4-0.2c0,1.7,0,3.4-0.2,5.1c-0.6,4.5-2.2,8.8-3.1,13.3
					c-1.5,3.7-3,7.3-4.7,10.9c-0.1-0.7-0.3-1.4-0.4-2.1c-1.4,0.9-2.7,1.9-4.2,2.8c-1.4-2.7-1.6-5.8-2.2-8.7
					c-0.2-0.7-0.3-1.4-0.9-1.9c-0.7-0.5-1.6-0.7-2.5-1c-0.1,0-0.4-0.1-0.6-0.2c0.6-0.4,1.2-0.8,1.7-1.2c0.3-0.6,0.6-1.2,0.8-1.9
					c0.4-0.1,0.8-0.2,1.2-0.3c0.1,0.5,0.1,1,0.2,1.5c0.4,0.8,1.7,0.7,2.1-0.1c0.2-0.5,0.2-1,0.3-1.5c0.1,0,0.3,0,0.4,0
					c0.3,0.3,0.7,0.7,1.1,0.9c0.6,0.2,1.4,0,1.8-0.5c0.1-0.5,0.2-1,0.2-1.4c-0.8,0-1.5,0.1-2.3,0.1c-1.6,0-3.3-0.3-4.9-0.6
					c0.1-0.4,0.1-0.8,0.2-1.2c1.3-0.4,2.7-0.9,4-1.4c0.1,0.4,0.1,0.9,0.2,1.3c1.5-0.6,3-1.2,4.5-2c-0.2,1.1-0.4,2.3-0.6,3.4
					c1.3-0.3,3.2,0,3.9-1.5c1.5-3.2,1.7-6.8,1.4-10.2c0-0.1,0.1-0.2,0.2-0.2C150.6,116.4,150.9,115.9,151.2,115.5z"/>
				<path class="st25" d="M82.1,123.7c-0.5-2.5,0.1-5.1,0.5-7.7c0.6,1.3,1.1,2.8,1.3,4.2c0.4,3.4,2.8,7,6.4,7.4c0.6,0.5,1,1,1.4,1.6
					c-1.4,0.2-2.9,0.4-4.3,0.6c-0.8,0.2-1.4-0.6-1.9-1c-0.9-0.8-2-1.2-2.8-2.1C82.3,125.7,82.3,124.7,82.1,123.7z"/>
				<path class="st25" d="M96.7,119.2c1.1-0.3,2.3-0.4,3.5-0.5c0.3,1.9,0.5,3.9,0.1,5.9c-0.2,1.1-1.1,2-2.1,2.5
					c-1.7,0.9-3.7,1.2-5.3,2.4c0.1-0.6,0.2-1.3,0.2-1.9c1-0.9,2-1.7,3-2.5c0.7-0.2,1.8-0.2,1.9-1.2c0.2-0.8-0.6-1.2-1-1.7
					C96.9,121.2,96.8,120.2,96.7,119.2z"/>
				<path class="st25" d="M115.7,153.2c0.4-0.5,1-0.4,1.6-0.4c1.5,0,3,0.2,4.5,0.2c0.7,0.6,1.4,1.1,2,1.7c-1.5,0.4-3,0.9-4,2.1
					c-1.2,1.3-1.7,3.1-1.8,4.8c-1.8-0.1-3.5-0.4-5.2-0.9c-0.1-0.8-0.3-1.6-0.2-2.4c0.2-0.8,0.9-1.5,1.3-2.2
					C114.5,155.1,115,154,115.7,153.2z"/>
				<path class="st25" d="M124.3,171c2-0.2,3.9-0.2,5.9-0.1c0.1,2.9-0.3,5.9-1.7,8.5c0.1-2.2,0-4.3-0.3-6.4
					c-1.5-0.1-2.9-0.3-4.4-0.3C123.9,172.1,124.1,171.5,124.3,171z"/>
				<path class="st25" d="M104.2,171.7c5.9,0.8,11.8-0.1,17.7,0.2c-0.3,0.6-0.5,1.3-0.9,1.7c-0.6,0.1-1.1,0.1-1.7,0.1
					c-2.9,0-5.8,0-8.7-0.2c-2.5-0.2-5-0.1-7.4-0.1C103.5,172.9,103.9,172.3,104.2,171.7z"/>
				<path class="st25" d="M113.5,176.3c2.8-0.7,5.7-0.6,8.5-0.7c-0.5,0.3-1.1,0.6-1.6,0.9c-1.3,0.3-2.7,0.6-3.6,1.6
					c-1.6,1.7-2.3,4.1-2.1,6.4c0.1,1.2,1.3,2,2.4,2.4c1.9,0.5,3.9,0.6,5.9,0.8c-1.4,0.8-2.9,1.5-4.4,2c-2.2,0-4.6,0-6.6-1.1
					c-1.2-0.6-1.2-2.1-1.4-3.3c-0.1-2.5-0.3-5.2,0.9-7.5C111.9,177,112.7,176.5,113.5,176.3z"/>
			</g>
			<g>
				<path class="st72" d="M114.7,29.6c1.5-0.1,3-0.1,4.4-0.1c-0.2,0.4-0.5,0.7-0.7,1.1c-0.7,1.2-1,2.6-1.3,3.9
					c-0.2-0.1-0.5-0.3-0.7-0.4c-0.3-0.2-0.6-0.4-0.9-0.5c-0.8,0.2-1.6,0.4-2.4,0.6c-0.2-1.5-0.2-3,0.2-4.5c0.7,0.8,1.3,1.6,2,2.4
					C115.1,31.3,114.9,30.4,114.7,29.6z"/>
				<g>
					<path class="st72" d="M135.1,50.2c3.4,1.4,6.5,3.4,9.5,5.6c1.8,2.2,3.4,4.5,4.6,7c1.4,3.2,2.4,6.6,3.1,10
						c0.4,2.1,0.4,4.3,0.3,6.4c-0.1,3.9-1.5,7.9-4.4,10.6c-0.8,0.8-1.8,1.7-1.6,3c0.3,2.5,2.3,4.3,3.3,6.5c-0.5-0.1-1.1-0.2-1.6-0.3
						c-1.9-0.9-3.9-1.9-5.9-2.6c-2.2-0.7-4.5-1-6.7-1.3c1-0.7,1.9-1.5,2.9-2.3c-0.6-0.8-1.3-1.6-1.9-2.4c2-1.1,4.2-1.6,6.3-2.6
						c-1.8-0.8-3.6-1.5-5.6-1.7c-2.3-0.3-4.6-0.2-6.9-0.3c-0.1-1.2-0.3-2.4-0.6-3.6c-0.6-2.1-2.1-3.9-2.4-6
						c-0.7-4.1,0.4-8.2,1.6-12.1c0.8-2.4,1.1-5,2.2-7.3C132.4,54.5,133.8,52.4,135.1,50.2z M142,65.2c-1.3,0.3-2.4,1-3.4,1.7
						c-1.1,0.8-2.2,1.6-2.6,2.9c-0.4,1.5-0.5,3-0.3,4.5c0.1,1,0.9,1.7,1.6,2.3c1.5,1.4,2.8,3,4.1,4.6c0.6,0.7,1.2,1.4,2.1,1.6
						c1.4,0.3,2.9-0.5,3.7-1.7c1-1.7,1.9-3.5,2-5.5c0.2-3.1-0.9-6.2-2.8-8.6C145.3,65.9,143.7,64.8,142,65.2z"/>
				</g>
				<path class="st72" d="M165.6,93.9c0.4-1,1.1-1.9,1.8-2.8c0.2,3.5,0,7-0.3,10.4c-0.1,2.7-1,5.3-2,7.7c-1-0.6-2-1.3-3-1.9
					c-0.4,1.2-0.8,2.5-1.1,3.7c-1.2-0.1-2.4-0.2-3.6-0.4c-0.1-0.6-0.3-1.3-0.5-1.9c1.2-1.5,2.1-3.2,3.6-4.5c1-0.4,2.1,0.1,3.1,0.3
					C164.4,101.1,164.2,97.3,165.6,93.9z"/>
				<path class="st72" d="M95.5,92.1c1.7-0.2,3.5-0.5,5.1,0.2c0.5,0.3,1.2,0.6,1.3,1.3c0.2,1.6-1,2.8-1.8,4.1
					c-1.7-0.6-3.3-1.2-5.1-1.6C95.1,94.8,95.3,93.5,95.5,92.1z"/>
				<path class="st72" d="M115.6,110.3c1,0.2,2,0.3,2.8,0.9c1.5,1.2,2.2,3.1,3.2,4.7c1.2-0.3,2.5-0.6,3.7-0.8
					c-0.3,0.8-0.6,1.7-0.9,2.5c-0.4,1.2-0.8,2.4-0.8,3.7c-2.3,0-4.5-0.7-6.8-0.3c-1.3,0.8-1.9,2.4-2.9,3.5c0.1-2,0.3-4.1,0.5-6.1
					C115,115.7,115.3,113,115.6,110.3z"/>
				<path class="st72" d="M136.4,116.8c2.6-0.5,5.1,2.2,4.4,4.7c-0.4,2.2-2.9,3.8-5.1,3c-2.1-0.6-3.4-3.1-2.5-5.2
					C133.7,118,135,117,136.4,116.8z"/>
				<path class="st72" d="M90.1,117c2.6-0.5,5.1,2.1,4.4,4.7c-0.4,2.2-2.9,3.8-5.1,3c-2.1-0.6-3.4-3.1-2.5-5.2
					C87.5,118.2,88.7,117.3,90.1,117z"/>
				<path class="st72" d="M124.8,133.1c0.3-1.5,0.6-3.1,1.1-4.6c2.2,2.2,4.9,4.1,7.9,4.9c0.1,0,0.4,0.1,0.6,0.2
					c-0.3,2.6,0,5.2,0.2,7.9c0.1,1.8,0.5,3.6,0.5,5.4c0,1.2-1,2-1.7,2.7c-1.2-0.7-2.5-1.3-3.7-2c-2.8-2-5.2-4.5-7.5-6.9
					c-2.8-3.3-5.7-6.5-8-10.1c0-0.6,0-1.1-0.1-1.7c2.1,1.5,3.2,4,5.4,5.5c1.2,0.9,2.9,1.4,4.4,1
					C124.4,134.8,124.6,133.9,124.8,133.1z"/>
				<path class="st72" d="M104.1,166.2c5.7,0.1,11.5,0.3,17.2,0.5c0.4,0.7,0,1.6,0.1,2.4c-5.7-0.2-11.4-0.6-17.2-0.5
					C104.2,167.8,104.2,167,104.1,166.2z"/>
				<path class="st72" d="M131.4,186.1c0.5-0.6,1-1.3,1.9-1.4c1.5-0.2,3,0.1,4.5,0.3c-0.1,1.2,0.1,2.4-0.5,3.5
					c-0.4,0.8-1.5,0.9-2.3,1.1c-2.7,0.4-5.4,1-8,1.7C128.5,189.5,129.9,187.8,131.4,186.1z"/>
			</g>
			<g>
				<path class="st73" d="M106.5,30.5c0.5,1.6,0.7,3.2,1,4.8c0.8-1,1.6-2,2.2-3.2c1.2,1.3,2.9,2.2,3.3,4c-0.1,0.3-0.3,0.6-0.4,0.9
					c0.9,0.3,2,0.5,2.9-0.1c0.9-0.5,1.3-1.4,1.5-2.4c0.3-1.3,0.7-2.7,1.3-3.9c0.2,2.6-0.4,5.2-0.6,7.8c0.7-0.3,1.4-0.8,2.2-0.9
					c0.8,0.3,1.6,0.8,2.3,1.1c4.6,2.2,10,2.1,14.6,4.3c0.7,0.4,1.5,0.9,2.2,1.3c0.3,0.4,0.2,0.9,0.3,1.3c-2.2-0.9-4.4-1.8-6.6-2.7
					c-1.9-0.7-3.9-1.2-5.9-1.5c-3.6-0.7-7.2-1.1-10.8-0.6c-1.2,0.5-2.1,1.7-3.1,2.5c-1.7-1.5-3.5-3.5-6-3.4
					c-5.3,0.3-10.2,2.6-15,4.7c-1.5,0.7-3,1.2-4.5,1.9c-1.5,0.8-2.6,2.2-3.9,3.2c-1.1,0.9-2.4,1.6-3.5,2.5c-1.1-0.1-2.1,0.1-3.1,0.4
					c-1.4,0.3-2.9,0.6-4.4,0.9c0.3-0.6,0.6-1.1,1.1-1.6c1.4-1.4,2.8-2.8,4.3-4.1c1.4-1.1,2.6-2.4,4.2-3.3c0.9,0.5,1.8,1,2.9,1.3
					c0.5,0.1,1.1-0.2,1.5-0.4c4.1-2.6,8.6-4.7,13.4-5.7c1.6-0.4,3.2-0.8,4.7-1.2c-0.3-0.6-0.6-1.2-0.9-1.8c1,0.7,2,1.5,3.1,2.2
					C106.8,36.1,106.4,33.4,106.5,30.5z"/>
				<path class="st73" d="M91,39.6c0.9-1,2.1-1.7,3.3-2.2c0.6-0.3,1.2,0.1,1.7,0.4c-1.1,1.2-2.4,2.5-4.1,2.7
					C91.3,40.7,90.5,40.1,91,39.6z"/>
				<path class="st73" d="M88.7,40.6c0.6-0.4,1.5-0.7,2-0.1c0.4,0.7-0.3,1.4-0.9,1.7c-0.6,0.4-1.3,0.2-2,0.1
					C88,41.7,88,40.9,88.7,40.6z"/>
				<path class="st73" d="M88.9,48.9c0.8-0.1,1.6,0.2,2.3,0.7c0.7,0.6,1.5,1.2,1.8,2.1c-0.5,0.9-1.3,1.5-2,2.3
					c-2.3,2.4-4.1,5.3-6.8,7.3c-0.1-2.2,0.6-4.2,1-6.3c-0.7,0.6-1.3,1.1-1.8,1.9c-1.7,2.6-2.2,5.7-3.8,8.3c-0.8,1.4-1.8,2.7-2.5,4.2
					c-1.6,3.2-2.7,6.6-3.1,10.1c-0.1,1.1-0.3,2.2-0.6,3.2c-0.5,2.1-0.9,4.2-0.9,6.3c0.1,2.4-0.1,4.8-0.2,7.3
					c3.3-2.2,5.6-5.6,8.9-7.8c1-0.7,2-1.3,3.1-1.7c0.6-0.2,1.3-0.4,1.9-0.6c-0.5,1.7-2,2.7-3.4,3.6c-4.1,2.7-6.9,7.3-11.6,9.1
					c-1-1.4-2-2.8-2.3-4.5c-0.4-2.7-0.3-5.5-0.3-8.2c0.2-6.4,1.6-12.7,4-18.6c0.4-1,1-2,1.3-3.1c0.3-1.1,0.2-2.2,0-3.3
					c3.1-3.9,6.3-7.8,10.1-11C85.7,49.4,87.3,49,88.9,48.9z"/>
				<path class="st73" d="M63.4,65.2c0.4-0.7,1.3-0.5,2.1-0.6c-0.6,1-1.1,2-1.6,3c0.8,0,1.6-0.1,2.3-0.2c-2.4,4.9-4.5,10-6.1,15.2
					c-0.9,2.3-1,4.7-1.4,7.1c-0.2,1.8-0.6,3.7-0.9,5.5c-0.3,2.1-1,4.2-0.9,6.3c0.1,2.9,0,5.8,0.1,8.6c-0.9-0.2-1.8-0.3-2.7-0.3
					c-0.5-0.8-1.1-1.7-1.1-2.7c-0.1-2,0.1-3.9,0-5.9c-0.3-4.7,0.6-9.3,1.6-13.8c0.3-1.4,1-2.7,1.2-4.1c0.6-3.8,2.4-7.3,3.8-10.8
					C60.8,70,61.8,67.4,63.4,65.2z"/>
				<path class="st73" d="M159.5,79c-0.1-2.4-0.3-4.8-0.2-7.2c1.3,6,1.5,12.3,0.1,18.3c-0.4,1.8-0.9,3.7-2,5.2
					c-1.3,1.9-3.2,3.3-4.9,4.7c-1.1-2.7-3.1-4.8-5.1-6.9c0.1-0.1,0.3-0.2,0.4-0.2c1.7,0.1,2.9,1.3,3.9,2.5c0.7,0.7,1.4,1.6,2.5,1.6
					c0.5-0.4,0.9-0.9,1.3-1.4C158.8,90.7,159.4,84.7,159.5,79z"/>
				<path class="st73" d="M169.5,94.7c0.7,2.4,0.7,5,0.4,7.5c-0.2,1.8,0,3.7-0.2,5.5c-0.2,1.6,0,3.2-0.2,4.8c-0.3,0.1-0.6,0-0.8-0.3
					c-0.8-0.8-1.5-2-1-3.2c1.2-3.2,1.1-6.6,1.3-9.9C169.1,97.6,168.9,96.1,169.5,94.7z"/>
				<path class="st73" d="M59,101.6c0.2-1.6,0.1-3.1,0.5-4.7c0.6,2.3,0.7,4.7,0.8,7c0.1,3.1,0,6.2,0,9.3c-0.7-0.4-1.7-0.9-1.6-1.9
					C58.7,108.1,58.7,104.8,59,101.6z"/>
				<g>
					<path class="st73" d="M73.8,107.1c3-4.9,8.1-8.5,13.7-9.7c-1.1,1.7-2.3,3.3-3,5.2c1-0.4,2-0.9,3-1.3c0.7-0.3,1.4,0.3,1.7,0.9
						c-0.6,1.6-1.8,2.9-2.5,4.4c1.1,0.6,2.2,1.2,3.4,1.4c-0.9,0.9-0.7,2.1-0.3,3.2c-0.5,0.1-1,0.2-1.6,0.3c-1,0.2-2,0.4-3,0.6
						c-0.4-0.2-0.8-0.4-1.2-0.7c-0.2,0.4-0.5,0.7-0.7,1.1c0.3,0.2,0.7,0.3,1,0.5c-0.7,0.8-1.5,1.7-1.9,2.8c-0.3,2.5-1,5.1-0.5,7.7
						c0.2,1,0.2,2,0.6,3c0.8,0.9,1.9,1.3,2.8,2.1c0.6,0.4,1.1,1.2,1.9,1c1.4-0.2,2.9-0.4,4.3-0.6c-0.4-0.6-0.8-1.2-1.4-1.6
						c0.9,0,1.9,0,2.8,0c-0.1,0.6-0.2,1.3-0.2,1.9c1.6-1.2,3.6-1.5,5.3-2.4c1-0.5,1.8-1.4,2.1-2.5c0.4-1.9,0.2-3.9-0.1-5.9
						c-0.2-1.4-1-2.6-2.1-3.5c-1.2-1-2-2.7-3.6-3.2c-1.3-0.4-2.6-0.6-4-0.8c0-1,0-2,0-3c0.4,0,0.7,0.1,1.1,0.1
						c1.6,0.2,3.2,0.3,4.8,0.6c2,1.1,3.8,2.7,5,4.6c1.6,2.9,2.4,6.3,1.8,9.6c-0.4,2.2-1.6,4.3-3,6c-1.9,2.3-4.8,3.4-7.7,3.8
						c-2,0.2-3.9,0.3-5.9,0.6c1.7,1.5,3.7,2.8,5.1,4.6c-1.2,0-2.4-0.1-3.5-0.6c-2-0.9-3.6-2.4-5.1-3.9c-1.2-1.3-2-2.9-2.5-4.6
						c-0.8-2.9-1.4-5.9-2.7-8.7c-0.3,1.8-0.4,3.6-0.4,5.4c-0.3,1-0.9,1.9-1,2.9c-0.1,1,0.2,2,0.2,3c0.5,3.6,0.1,7.3,0.3,11
						c0.7,7.1,2,14.1,4.2,20.9c0.5,1.6,1.2,3.1,1.6,4.7c-1.6-0.3-3.1-0.9-4.3-2.1c-0.4-0.4-0.5-1-0.6-1.5
						c-1.1-6.8-2.9-13.5-3.5-20.3c-0.6-5.5-1-11.1-0.6-16.7c0.1-4.2,0.8-8.4,1.2-12.7c-3.1-0.2-6.3,0.3-9.4,0.3
						c-0.2,3.5,0.2,7.1,0.5,10.6c0.4,3.9,1.4,7.8,2.2,11.7c0.5,2.4-0.3,4.9-1.1,7.2c-0.4,1-0.7,2.1-0.7,3.3
						c-0.2,5.5,2.4,10.7,2.4,16.2c0,0.6-0.2,1.3-0.3,1.9c-1.4-4.6-2.3-9.3-3.2-14c-0.6-3.6-1.2-7.1-1.6-10.7
						c1.1-0.8,2.3-1.5,3.5-2.2c-0.7-2.4-1.6-4.8-2.6-7.1c-0.8-0.2-1.6-0.3-2.3-0.6c-0.4-0.9-0.4-2-0.6-3c-0.3-3.1-0.8-6.1-0.7-9.2
						c0-1.8-0.4-3.7-0.2-5.5c0.7-0.5,1.6-0.7,2.4-0.9c2.8-0.7,5.6-1.3,8.3-2.3c-0.4-0.6-0.8-1.2-1.2-1.8c0.6-0.1,1.1-0.2,1.7-0.3
						C73,108.3,73.4,107.7,73.8,107.1z M93,109.6c-0.1,0.4-0.2,0.7-0.3,1.1c0.5-0.1,1-0.1,1.5-0.1c0-0.3-0.1-0.6-0.1-0.9
						C93.7,109.6,93.3,109.6,93,109.6z M77.4,113.1c-0.5,2.1,0,4.2,0.4,6.2c0.5-1.6,1-3.2,1.5-4.8c0.4-1.1,0.3-2.3,0.3-3.5
						C78.7,111.4,77.7,112,77.4,113.1z"/>
				</g>
				<g>
					<path class="st73" d="M139.1,107.2c0.7-0.1,1.5,0,2.2,0.4c1.5,0.9,2.8,2,4.3,3c0.6-0.2,1.2-0.4,1.8-0.6c0.5,1.9,0.7,4,1.3,5.9
						c0.1,0.8,1.1,0.7,1.7,0.9c0,0.1-0.1,0.2-0.2,0.2c-0.9,0.9-1.9,1.9-2.1,3.2c-0.4,2.3-0.1,4.8,0.7,7c-0.7,1.4-2.5,1.2-3.9,1.5
						c0.1-1.2,0.3-2.3,0.6-3.4c0-0.2,0.1-0.5,0.1-0.7c0.3-2.4,0.8-4.8,0.7-7.3c0-1.7-2.1-2.1-2.9-3.3c-0.4-0.5-0.8-1-1.3-1.4
						c-0.5-0.2-1-0.2-1.6-0.3c0.1-0.9,0.2-1.7,0.3-2.6c-0.8,0.3-1.5,0.7-2.2,1.1c-0.2-0.3-0.3-0.7-0.5-1c-0.3,0.2-0.6,0.3-0.9,0.5
						c-0.1,0.4,0,0.8,0,1.2c-1.7,0.5-3.6,0.4-5,1.6c-0.8,0.6-1.7,1.1-2.6,1.6c-0.1,1.1-0.2,2.2-0.3,3.3c-0.5-0.1-1-0.2-1.4-0.3
						c-0.3,2.6-0.2,5.2-0.7,7.8c-0.7-1.1-1.7-2.1-2-3.4c-0.3-1.4-0.5-2.8-0.6-4.3c0.2-0.9,0.5-1.7,0.9-2.5c0.8-1.4,2-2.7,3-3.9
						c0.9-0.9,1.8-1.8,2.6-2.8C133.8,108.2,136.4,107.6,139.1,107.2z M134.1,109.8c0,0.5,0,1,0,1.5c0.5,0,1,0,1.5,0
						c0-0.4,0.3-1-0.1-1.3C135.1,109.5,134.5,109.8,134.1,109.8z"/>
				</g>
				<path class="st73" d="M172.6,114.5c0.7-0.2,1.3-0.3,2-0.4c0.3,0.3,0.5,0.6,0.8,0.9c-0.7,3.8-1.1,7.6-1.8,11.3
					c-0.5-0.2-1-0.4-1.5-0.6c0-0.1,0.1-0.3,0.1-0.4c0.3-1.1,0.7-2.3,0.9-3.5C173.3,119.4,172.8,116.9,172.6,114.5z"/>
				<path class="st73" d="M161.9,115.7c1.6-0.2,3.3-0.6,4.9-0.3c0.5,0.6,0.5,1.4,0.4,2.1c-0.2,1.2-1.1,2.2-1.4,3.4
					c-0.1,1,0.3,2,0.4,3.1c0.2,2.8,0,5.6-0.5,8.4c-0.9,5.4-1.6,10.9-2.4,16.3c-0.3,2.1-1.1,4.1-1.7,6.1c-0.5,3.8-0.4,7.7-1.9,11.3
					c-0.5,1.2-1.9,1.5-3.1,1.5c0.2-0.5,0.3-1.1,0.5-1.6c0.8-3.9,1-8,2-11.8c0.9-2.9,0.8-5.9,0.9-8.9c0.3-3.7,0.3-7.4,1-11
					c0.2-1.1,0.5-2.2,0.5-3.4c0.2-3.5,1.2-6.8,1.3-10.3C162.9,118.9,162.3,117.3,161.9,115.7z"/>
				<path class="st73" d="M128,126.7c2.9,0.9,5.6,2.5,8.4,3.6c-0.2,0.6-0.5,1.3-0.8,1.9c-1-0.3-2-0.6-3-1c-0.9-0.4-1.5-1.1-2.1-1.7
					C129.7,128.5,128.8,127.7,128,126.7z"/>
				<path class="st73" d="M51.3,128.7c-0.1-0.7,0.4-1.9,1.2-1.5c1.1,0.3,0.5,1.5,0.3,2.2C52.3,129.3,51.6,129.2,51.3,128.7z"/>
				<path class="st73" d="M141.5,129c0.8,0,1.5-0.1,2.3-0.1c-0.1,0.5-0.1,1-0.2,1.4c-0.3,0.6-1.2,0.8-1.8,0.5
					c-0.4-0.2-0.7-0.6-1.1-0.9C141,129.7,141.2,129.3,141.5,129z"/>
				<path class="st73" d="M137.7,130.1c0.9-0.1,1.7-0.2,2.6-0.1c-0.1,0.5-0.1,1-0.3,1.5c-0.4,0.7-1.7,0.9-2.1,0.1
					C137.7,131.1,137.7,130.6,137.7,130.1z"/>
				<path class="st73" d="M55.7,132.4c0.7,0.1,1.3,0.2,2,0.3c0.7,2.8,0.8,5.6,1.3,8.4c-0.6-0.1-1.2-0.2-1.8-0.3
					c-0.3-0.5-0.3-1.2-0.4-1.7C56.7,136.8,56.1,134.6,55.7,132.4z"/>
				<path class="st73" d="M77.5,134.5c0.2-0.9,0.8-1.6,1.4-2.2c1.2,3.4,2.9,6.6,3.6,10.1c1.4,6.5,3.6,12.9,6.9,18.8
					c0.8,1.4,1.4,2.8,2.4,4.1c1.3,1.7,3.2,3,5.2,3.8c-1.7,0-3.3-0.1-5-0.1c-2.1,0-4.1-0.1-6.2-0.6c-1.1-0.2-1.7-1.2-2-2.2
					c-3.6-8.8-5.8-18.3-6.4-27.8C77.4,137.1,77.2,135.8,77.5,134.5z"/>
				<g>
					<path class="st73" d="M123.1,162.9c0.1-0.1,0.2-0.2,0.3-0.3c-0.2,2.2,0.3,4.4,0.8,6.5c0.3,0,0.6,0,0.9,0c2,0,3.9,0,5.9,0.1
						c1.4,0.3,2.7,0.6,4.1,0.9c-1.5,0.8-3.3,1-5,0.8c-2-0.2-3.9-0.1-5.9,0.1c-0.2,0.6-0.4,1.1-0.6,1.7c-0.3,0.8-0.5,1.6-0.8,2.3
						c-2.9,0-5.8,0.3-8.7,0.3c-4,0-8,0.2-12-0.3c-0.2-1.3-0.4-2.6-0.6-4c-2.9-0.4-5.8-0.5-8.7,0c0.9,4.5,2.4,8.8,4.7,12.8
						c2.3,4.1,5.8,7.7,10.1,9.7c1,0.5,2.1,1,3.3,1.3c2.1,0.5,4.3,0.2,6.4,0.2c-3.1,1.1-6.4,0.6-9.6,0.7c0.3,0.6,0.5,1.2,0.8,1.8
						c-0.5,0.4-1.1,0.9-1.7,1.3c-3.4,0-6.6-1.3-9.8-2.2c-2.3-0.8-4.8-1.2-6.8-2.5c3.2-0.6,6.3-1.5,9.4-2.6c-0.9-1.7-2.3-3-3.3-4.7
						c-2.9-4.8-4.2-10.3-6-15.6c-1.4-0.3-2.9-0.4-4.3-0.5c0.4-0.4,0.8-0.8,1.4-0.8c3.4-0.5,6.9,0.1,10.4-0.6
						c1.6-0.2,3.1-0.7,4.6-1.1c0,0.9-0.1,1.9-0.1,2.8c6.9,0.4,13.9,0.6,20.8,0.5C123.1,168.6,123.4,165.7,123.1,162.9z M104.2,171.7
						c-0.4,0.6-0.7,1.1-1.1,1.7c2.5,0,5,0,7.4,0.1c2.9,0.2,5.8,0.1,8.7,0.2c0.6,0,1.1,0,1.7-0.1c0.5-0.5,0.6-1.1,0.9-1.7
						C116,171.6,110.1,172.5,104.2,171.7z"/>
				</g>
				<path class="st73" d="M152,168.1c1.5,0,2.9-0.3,4.4-0.5c-0.1,0.1-0.4,0.3-0.6,0.4c0.7,0.7,1.4,1.4,2.1,2.1
					c-1.3,0.3-2.7,0.6-4,0.8c-0.7,0.1-1.5,0.2-2.1,0.5c-0.6,1.1-0.8,2.4-1.3,3.6c0-1.6-0.1-3.2-0.1-4.8c-0.7-0.2-1.3-0.4-1.9-0.6
					l-0.2-0.1c-0.5,1.5-0.9,3.1-1.2,4.6c-0.1-0.2-0.2-0.5-0.3-0.7c-0.4-1-0.9-2.1-1.4-3.1c-1.4,0.5-3.1,0.8-4,2.1
					c-1,1.9-1,4.1-0.7,6.1c0.3,2,0.5,3.9,0.7,5.9c1.4-0.9,2.5-1.9,3.8-3c0,1.2,0.2,2.5-0.7,3.4c-1,1.4-2.7,1.8-4.3,1.6
					c-0.1,0-0.3-0.1-0.4-0.2c-0.8-2.3-1.1-4.7-1.7-7.1c-0.5,0.4-0.9,0.9-1.4,1.3c-0.8-0.2-1.5-0.3-2.3-0.5c-2,3-4.1,5.9-6.9,8.2
					c-0.7,0.6-1.5,1.2-2.3,1.8c-1.8,0.5-3.6,1.1-5.3,1.7c-0.4-0.7-0.8-1.4-1.1-2.2c1.5-0.6,3-1.2,4.4-2c1.1-0.8,2.1-1.6,3.1-2.6
					c1-0.9,2.2-1.6,3.2-2.6c1.4-1.2,1.3-3.2,2.3-4.6c1.6-2.3,3.8-4,6.2-5.3c0.8-0.4,1.2-1.1,1.6-1.8c0.5-1.1,1.6-1.6,2.7-1.9
					C145.2,167.9,148.6,168.2,152,168.1z"/>
				<path class="st73" d="M159.8,168.1c0.5-0.1,1-0.1,1.4-0.2c0.1,1,0.2,2,0.3,3c0.3,4.2,0.4,8.4,0.4,12.6c1.2,0.1,2.5,0.1,3.8,0.1
					c-0.3,1-0.6,1.9-0.9,2.9c-0.6,0.1-1.2,0.3-1.7,0.2c-1-0.5-1.7-1.3-2.5-2c-0.7,0.4-1.3,0.8-1.9,1.1c0-2.6-0.1-5.2,0.1-7.8
					c0.5-1,1.2-2,1.5-3.1C160.9,172.7,160.8,170.2,159.8,168.1z"/>
				<path class="st73" d="M60.2,173.9c0.3-1.3,0.9-2.4,1.4-3.6c0.6,0.5,1.7,0.9,1.4,1.9c-0.5,2.2-0.9,4.3-1.3,6.5
					c-0.4-0.5-0.8-0.9-1.1-1.4C59.9,176.3,59.9,175,60.2,173.9z"/>
				<path class="st73" d="M66,172.1c0.2-0.7,0.8-1.2,1.3-1.7c0.3,1.9,0.7,3.9,1.9,5.4c0.6,0.9,1.7,1.6,1.8,2.8
					c0.2,2.8,0.8,5.5,0.5,8.3c-1-0.2-1.9-0.5-2.7-1.2c-1.1-0.8-1.5-2.2-2.1-3.3c-0.6,2.1-1.4,4.2-2.6,6c-1.6-1-3.2-2.7-2.9-4.8
					c0.2-1.4,0.6-2.8,1-4.3c1.4,0,2.8-0.1,4.1,0c0-0.1,0-0.4,0-0.5c-0.1-1.1-0.1-2.3-0.3-3.4C66,174.4,65.7,173.2,66,172.1z"/>
				<path class="st73" d="M154.7,190.1c1.2-1.4,2.9-2.2,4.7-2.7c-0.1,1-0.1,2.1-0.2,3.1C157.7,190.4,156.2,190.3,154.7,190.1z"/>
				<path class="st73" d="M70.8,188.1c0.8-0.4,2-0.1,2.4,0.7c0.4,1-0.6,2-1.6,1.8c-0.6-0.2-1.1-0.5-1.6-0.7
					C70.1,189.2,70.1,188.5,70.8,188.1z"/>
				<path class="st73" d="M62.1,189.3c0.9,1.3,1.6,2.7,2.3,4c1.3-0.4,1.9-1.6,2.9-2.3c0.2,2.1-0.4,4.5-2.3,5.8
					c-1.2-1-2.2-2.2-2.7-3.7C62,191.9,62,190.6,62.1,189.3z"/>
			</g>
			<g>
				<g>
					<path class="st74" d="M82.2,44.6c5.2-4.4,11-8.2,16.8-11.6c0.4,2.2-0.1,4.7,0.9,6.8c-4.8,1-9.3,3.1-13.4,5.7
						c-0.5,0.2-1,0.6-1.5,0.4C84,45.7,83.1,45.1,82.2,44.6z M91,39.6c-0.5,0.5,0.4,1.1,0.9,0.9c1.7-0.2,3-1.5,4.1-2.7
						c-0.5-0.4-1.1-0.8-1.7-0.4C93,37.9,91.8,38.6,91,39.6z M88.7,40.6c-0.6,0.3-0.7,1.1-0.9,1.7c0.7,0.1,1.4,0.3,2-0.1
						c0.6-0.3,1.4-1.1,0.9-1.7C90.2,39.8,89.3,40.2,88.7,40.6z"/>
				</g>
				<path class="st74" d="M92,44.7c4.8-2.1,9.7-4.5,15-4.7c2.5-0.1,4.2,1.9,6,3.4c-0.8,0.7-1.5,1.5-2,2.3c-1.4,2.3-1.8,5-3.2,7.4
					c-0.4,0.8-1.3,1.1-2,1.3c-2.5,0.8-5,1.6-7.3,2.8c0.8,0.7,1.8,1.3,2.5,2.1c0.1,0.8-0.6,1.3-1.3,1.6c-1.2,0.6-2.6-0.1-3.8,0.1
					c-0.6,0.3-1.1,0.9-1.5,1.5c-1.2,1.6-2.2,3.4-3.7,4.8c-0.9,0.9-2.2,1.2-3.3,1.5c0.4,0.4,0.7,0.9,1.1,1.3c-1.2,1-2.4,2.2-3,3.7
					c-0.6,1.3-0.7,2.9-1.4,4.2c-0.9,0.7-2.1,0.7-3.2,0.9c0.6-1.1,1.2-2.1,1.9-3.2c-1.1-0.7-2.4-1.8-3.8-1.1c-1.3,1.1-1.2,3-2.2,4.3
					c-0.8,0.5-1.8,0.4-2.7,0.5c0.4-3.5,1.5-7,3.1-10.1c0.7-1.5,1.7-2.8,2.5-4.2c1.6-2.6,2.1-5.7,3.8-8.3c0.5-0.7,1.2-1.3,1.8-1.9
					c-0.4,2.1-1.1,4.1-1,6.3c2.7-2,4.5-4.9,6.8-7.3c0.7-0.8,1.5-1.4,2-2.3c-0.3-0.9-1.1-1.6-1.8-2.1c-0.7-0.5-1.5-0.8-2.3-0.7
					c-1.6,0.2-3.2,0.6-4.7,1.3c-0.2-0.1-0.4-0.2-0.6-0.2c1.3-1.1,2.4-2.4,3.9-3.2C89,45.9,90.5,45.4,92,44.7z"/>
				<path class="st74" d="M67.4,73.6c1.8-4.3,3.5-8.8,6.6-12.4c0.1,1.1,0.3,2.2,0,3.3c-0.3,1.1-0.9,2.1-1.3,3.1
					c-2.4,5.9-3.8,12.2-4,18.6c0,2.7-0.1,5.5,0.3,8.2c0.2,1.7,1.2,3.2,2.3,4.5c4.8-1.8,7.5-6.3,11.6-9.1c1.4-0.9,2.9-1.9,3.4-3.6
					c1.9-0.5,3.8-1,5.7-0.9c2.4,0.1,4.9,0.7,7,2.1c-0.6,0.2-1.3,0.4-1.9,0.6c-3-0.1-6.5-0.3-8.8,1.9c-2,1.6-2.6,4.3-2.8,6.8
					c-3.7,1.6-7.4,3.6-10,6.8c-0.9-1-1.9-2-3.1-2.6c-1.4-0.6-3-0.2-4.4-0.8c-0.7-0.4-0.9-1.3-1.1-2c-1.2-5.1-0.3-10.4-1.9-15.5
					c0.4-0.8,0.9-1.7,1.1-2.6c0.2-1-0.5-2-0.2-3.1C66.4,75.7,67,74.7,67.4,73.6z"/>
				<path class="st74" d="M172.6,80.5c0.3,0.5,0.5,1.1,0.6,1.6c0.9,3.5,1.7,7,2,10.6c-1.4,0.9-2.7,2-3.8,3.2
					c0.9,1.2,2.6,2.4,2.1,4.1c-0.6,2.8-1.2,5.5-1.5,8.4c-0.1,1.4-0.4,2.8-0.8,4.1c0.1-3.3,0.2-6.6,0-9.8c-0.2-1.6-0.1-3.3-0.2-4.9
					c-0.1-1.1-0.1-2.1-0.1-3.2c0.8-0.4,2-0.7,2.1-1.7c0.3-3.2-0.9-6.2-1.8-9.2C170.7,82.4,171.9,81.4,172.6,80.5z"/>
				<path class="st74" d="M72.6,89c-0.1-2.1,0.4-4.2,0.9-6.3c1.7,0.2,3.5,0.5,5.1,1.1c-0.9,0.5-1.9,1-2.8,1.5
					c0.7,0.8,1.4,1.5,2.2,2.1c0.9-1.2,1.8-2.4,2.9-3.5c0.6,0.8,1.2,1.7,1.9,2.4c0.4,0.5,1.1,0.4,1.7,0.4c-1.1,0.4-2.2,1-3.1,1.7
					c-3.3,2.2-5.6,5.7-8.9,7.8C72.5,93.8,72.7,91.4,72.6,89z"/>
				<path class="st74" d="M108.4,96.1c-0.8-1.6-1.6-3.2-1.7-4.9c3.5,3.1,5.7,7.9,5,12.5c-1.1-1-2.1-2.3-2.2-3.8
					C109.2,98.6,109,97.3,108.4,96.1z"/>
				<path class="st74" d="M120.2,92.4c0.7-0.7,1.7-0.7,2.5-0.8c-0.7,1.3-1.7,2.4-2.5,3.7c-0.2,0.4-0.5,1-0.2,1.4
					c0.7,0.9,1.7,1.5,2.5,2.3c-0.8,0.4-1.8,0.8-2.7,0.5c-1.5-0.5-2.5-1.9-3.2-3.3C117.8,94.9,118.9,93.6,120.2,92.4z"/>
				<path class="st74" d="M131.6,96.1c1.4-0.3,2.7-0.6,4.1-0.9c2.3,0.3,4.5,0.6,6.7,1.3c2.1,0.6,4,1.6,5.9,2.6
					c1.6,1.4,3.1,3,4.6,4.4c0.4,0.7,0.9,1.5,1.4,2.2c0.8,2.2,2.2,4.3,1.8,6.7c-0.1,1.1-1,1.9-1.8,2.5c1.4,0.3,2.8,0.6,4.1,1
					c-1.3,0.3-2.5,0.7-3.7,1.1c0.8,10.7-1.5,21.2-3.9,31.6c-1.4,6.5-3.9,12.6-5.7,18.9c-1.1,0-2.2,0.1-3.2,0.1
					c0.8-2.1,1.9-4.2,2.7-6.3c1.5-3.8,2.8-7.8,3.3-11.9c0.2-2.1,0-4.2,0.4-6.2c0.5-2.1,1.2-4.1,1.3-6.2c0.1-1.2-0.2-2.3-0.3-3.4
					c0.9-4.5,2.5-8.8,3.1-13.3c0.3-1.7,0.2-3.4,0.2-5.1c-0.5,0.1-1,0.1-1.4,0.2c-0.1-2,0-3.9-0.1-5.9c-1.2,0.1-2.5,0.1-3.7,0.4
					c-0.6,0.2-1.2,0.4-1.8,0.6c-1.4-1-2.8-2.1-4.3-3c-0.6-0.4-1.4-0.5-2.2-0.4c-2.7,0.3-5.4,1-8.1,1.2c-2.4-0.6-4.9-1.4-6.9-3
					c-1-0.8-2-1.5-3-2.2l0.2-0.1c-0.3-0.2-0.6-0.4-1-0.6c1.7-1.6,3.6-3.2,5.7-4.3C127.8,97.4,129.7,96.6,131.6,96.1z"/>
				<path class="st74" d="M87.5,97.5c3.6-0.3,7.3,0.7,10.6,2.3c-1,0-2,0-2.9,0.3c-0.9,0.4-1.5,1.2-2.1,1.9c-0.7,0.8-1.5,1.7-1.5,2.8
					c-0.1,1.2,0.1,2.4,0.1,3.7c-0.4,0-0.7-0.1-1.1-0.1c-0.1,0-0.3,0-0.5-0.1c-1.2-0.3-2.3-0.8-3.4-1.4c0.7-1.5,1.9-2.8,2.5-4.4
					c-0.3-0.6-1-1.3-1.7-0.9c-1,0.4-2,0.9-3,1.3C85.2,100.7,86.4,99.1,87.5,97.5z"/>
				<path class="st74" d="M88.2,111.7c0.5-0.1,1-0.2,1.6-0.3c0.2,0,0.6-0.1,0.7-0.1c1.3,0.1,2.7,0.4,4,0.8c1.6,0.5,2.4,2.1,3.6,3.2
					c1.1,0.9,1.9,2.1,2.1,3.5c-1.2,0.1-2.3,0.2-3.5,0.5c-0.4-1.7-1.8-2.9-3.2-3.8c-0.7-0.5-1.5-0.8-2.4-0.8c0.7-0.2,1.3-0.4,2-0.6
					C91.5,113.1,89.9,112.3,88.2,111.7z"/>
				<path class="st74" d="M143.4,113.9c0.9,1.2,3,1.6,2.9,3.3c0,2.4-0.4,4.9-0.7,7.3c-0.1-1.6-0.4-3.1-0.8-4.6
					c-0.6,0.8-1.2,1.7-1.7,2.5c0-1.8-0.4-3.5-0.4-5.3C142.9,116,143.2,115,143.4,113.9z"/>
				<path class="st74" d="M148.1,120.2c0.2-1.3,1.2-2.2,2.1-3.2c0.3,3.4,0.1,7-1.4,10.2C148,125,147.7,122.5,148.1,120.2z"/>
				<path class="st74" d="M49,117.3c0.4-0.1,1-0.2,1.1,0.3c0.5,1.1-0.3,2.9-1.7,2.5C47.3,119.6,48,117.6,49,117.3z"/>
				<path class="st74" d="M112.4,129.8c0.5,0.4,0.9,0.7,1.4,1.1c-0.8,1.2-2,2.2-2.4,3.6c0.3,1.1,1.2,1.9,1.4,3
					c-0.4,0.7-1,1.3-1.5,1.9c-1.6,1.9-2.5,4.3-4.3,6c-0.7,0.6-1.5,1.3-2.4,1.4c-0.8,0-1.6-0.4-2.3-0.7c-0.9,0.9-1.6,2-2.7,2.7
					c-0.7,0.4-1.3-0.3-1.9-0.6c1.3-1.5,2.6-2.9,3.9-4.3c1-1.1,2-2.2,2.9-3.3c1.4-1.7,3-3.4,4.2-5.3
					C109.8,133.3,110.9,131.4,112.4,129.8z"/>
				<path class="st74" d="M57.2,140.8c0.6,0.1,1.2,0.2,1.8,0.3c0.1,0.6,0.5,1.3-0.2,1.7c-0.7,0.3-1.7,0.3-2.1-0.4
					C56.6,141.8,57,141.3,57.2,140.8z"/>
				<path class="st74" d="M164.6,158.2c0.8-0.5,1.7-0.9,2.5-1.4c0.3,0.6,0.6,1.2,0.9,1.9c0,1.7-0.2,3.6-1.5,5
					c-0.9,1.1-2.4,1.6-3.8,1.7C163.1,162.9,163.4,160.4,164.6,158.2z"/>
				<path class="st74" d="M159.8,168.1c1,2.1,1,4.6,0.4,6.8c-0.3,1.1-1,2.1-1.5,3.1c-0.4-1.6-0.4-3.2-0.6-4.8
					C158,171.3,159.1,169.7,159.8,168.1z"/>
				<path class="st74" d="M76.7,168.6c1.1,0.5,2.6,0.7,3.2,2c2.6,5.4,2.8,11.5,5.4,16.9c0.9,1.9,2.8,2.9,4.7,3.4
					c-0.9-2-2.5-3.6-3.8-5.3c-1.4-1.7-1.9-4-2.4-6.1c-0.4-2.2-0.7-4.5-0.5-6.8c1.4,1.8,2.2,4.1,3.2,6.2c1.2,2.7,2.4,5.7,4.5,7.8
					c-1-2.2-2.2-4.3-3-6.5c-1.2-3-1.8-6.2-2-9.5c1.4,0.1,2.9,0.2,4.3,0.5c1.7,5.3,3,10.8,6,15.6c1,1.6,2.3,3,3.3,4.7
					c-3,1.1-6.2,2-9.4,2.6c-0.6,0.1-1.1-0.1-1.6-0.3c-4.5-1.8-9-3.5-13.3-5.7c-1.6-0.8-2-2.6-2-4.2c0-0.7,0.5-1.2,0.8-1.7
					c0.6,1.4,0.9,3,1.8,4.3c0.8,0.9,1.9,1.4,2.9,2c2.2,1,4.5,1.9,6.9,2.6c-0.8-1.7-1.7-3.2-2.6-4.8c-1.7-3.2-3.1-6.6-4.3-10.1
					C78.2,173.5,77.3,171.1,76.7,168.6z"/>
				<path class="st74" d="M148.4,169.6c0.6,0.2,1.3,0.4,1.9,0.6c0,1.6,0.1,3.2,0.1,4.8c-0.1,1.7-0.8,3.2-1.3,4.8
					c-2.2,6-5.9,11.7-11.5,15c-2.8,1.3-5.7,2.5-8.8,3.1c-1.1,0.2-2,0.9-3.1,1c-2.9,0.5-5.8,0.4-8.8,0.6c-3.4,0-6.8,0-10.1-0.8
					c0.6-0.4,1.1-0.8,1.7-1.3c-0.3-0.6-0.5-1.2-0.8-1.8c3.2-0.1,6.5,0.4,9.6-0.7c1-0.2,1.9-0.7,2.6-1.3c-2.2-0.4-4.4-0.5-6.6-0.7
					c2.1,0,4.2-0.4,6.3-1c1.8-0.6,3.6-1.1,5.3-1.7c-1.8,1.7-3.7,3.3-4.9,5.5c0.6,0.2,1.2,0.4,1.8,0.3c1.3-0.2,2.4-0.9,3.6-1.1
					c0.9,0.4,1.5,1.2,2.4,1.6c1.1,0,2-0.6,2.9-1c4.2-2,8.5-4.1,11.6-7.7c-0.8-0.4-1.6-0.8-2.5-1.2c1.6,0.2,3.4-0.2,4.3-1.6
					c0.8-0.9,0.7-2.3,0.7-3.4c0.2-2.8,1.3-5.4,1.7-8.2c0.1,0.2,0.2,0.5,0.3,0.7c0.3,0.7,0.6,1.4,1,2.1c0.9-1.1,1.7-2.4,1.8-3.8
					C149.8,171.4,149.1,170.4,148.4,169.6z"/>
			</g>
			<g>
				<path class="st75" d="M116.4,34.1c0.2,0.1,0.5,0.3,0.7,0.4c-0.2,0.9-0.6,1.9-1.5,2.4c-0.9,0.6-2,0.4-2.9,0.1
					c0.1-0.3,0.3-0.6,0.4-0.9C114,35.1,115.2,34.7,116.4,34.1z"/>
				<path class="st75" d="M129.2,44.6c1.2-0.5,2.5-1.1,3.7-1.6c2.2,0.8,4.4,1.8,6.6,2.7c1.8,0.7,3.5,1.6,5.1,2.5
					c-0.4,0.8-0.8,1.6-0.9,2.4c0.1,0.8,0.5,1.4,0.7,2.2c0.4,1,0.3,2.1,0.2,3.2c-3-2.2-6.1-4.2-9.5-5.6c-1.3,2.1-2.6,4.3-3.8,6.5
					c-1.1,2.3-1.4,4.9-2.2,7.3c-1.2,3.9-2.3,8-1.6,12.1c0.4,2.2,1.9,3.9,2.4,6c0.3,1.2,0.4,2.4,0.6,3.6c2.3,0.1,4.6,0,6.9,0.3
					c1.9,0.3,3.8,1,5.6,1.7c-2.1,1-4.3,1.5-6.3,2.6c0.6,0.8,1.3,1.6,1.9,2.4c-1,0.8-1.9,1.5-2.9,2.3c-1.4,0.3-2.7,0.6-4.1,0.9
					c0.1-0.9,0.4-1.7,0.3-2.6c-0.1-1.3-0.7-2.5-0.6-3.7c0-1,1.1-1.2,1.8-1.7c-1.5-0.4-3-0.7-4.5-0.5c-1.9,0.1-3.6,0.9-5.3,1.7
					c-1.9-2.4-4.4-4.2-6.1-6.6c-1-1.5-1.2-3.3-1.4-5c-0.6-5.5-0.3-11.3,2.2-16.3c1.6-3.5,2.9-7.2,4.2-10.9c0.8,0.3,1.7,0.5,2.6,0.8
					c0.8-0.7,1.6-1.6,2.5-2.2c0.9-0.7,2.2-0.6,3.3-0.8C130.2,47,129.7,45.8,129.2,44.6z"/>
				<path class="st75" d="M80.1,52.4c1.1-0.9,2.3-1.6,3.5-2.5c0.2,0.1,0.4,0.2,0.6,0.2c-3.9,3.2-7.1,7.1-10.1,11
					c-3.1,3.6-4.8,8.1-6.6,12.4c-0.4,1.1-1,2.1-1.4,3.2c-0.3,1,0.4,2,0.2,3.1c-0.2,0.9-0.7,1.8-1.1,2.6c-0.4-1.2-0.8-2.5-1.1-3.8
					C66.6,68.6,72.6,59.5,80.1,52.4z"/>
				<path class="st75" d="M144.5,55.8c0.8,0.2,1.7,0.4,2.5,0.9c1.5,1,2.4,2.6,3,4.2c1,2.5,1.8,5.1,2.7,7.6c0.9,3,2,6,2.2,9.2
					c0,3.6-1.4,7.1-2.8,10.4c-0.5,1.1-0.9,2.3-1.9,3.1c-0.8,0.6-1.6,1.1-2.4,1.7c-0.1,0.1-0.3,0.2-0.4,0.2c1.9,2.1,4,4.2,5.1,6.9
					c0.3,1.1,0.4,2.3,0.4,3.5c-1.6-1.5-3-3-4.6-4.4c0.5,0.1,1.1,0.2,1.6,0.3c-1-2.2-3.1-4-3.3-6.5c-0.2-1.2,0.8-2.2,1.6-3
					c2.9-2.7,4.3-6.7,4.4-10.6c0-2.1,0.1-4.3-0.3-6.4c-0.7-3.4-1.7-6.8-3.1-10C147.9,60.3,146.3,58,144.5,55.8z"/>
				<path class="st75" d="M163.2,73.1c0-0.8,0.4-1.6,0.8-2.3c2.2,5.1,3,10.7,3.4,16.2c0.1,1.4,0.3,2.8,0.1,4.2
					c-0.7,0.9-1.4,1.7-1.8,2.8c-1.4,3.4-1.2,7.2-2.1,10.7c-1-0.1-2.1-0.6-3.1-0.3c-1.5,1.3-2.4,3-3.6,4.5c-0.1-0.3-0.2-0.7-0.3-1
					c0-2.3,0-4.7,0.5-7c0.4-1.7,1.6-3,2.5-4.4c1.3-2,2.1-4.2,2.7-6.5c0.3-1.2,0.4-2.4,0.3-3.6c-0.4-3.1-0.8-6.3-0.6-9.4
					c0.4,0.5,0.9,1,1.3,1.6C163.2,76.6,163.1,74.8,163.2,73.1z"/>
				<path class="st75" d="M114.6,109.4c1.1-1.9,2.9-3.3,4.3-4.9c0.8,0.6,1.5,1.3,2.3,2c2.1,2,4.7,3.5,7.3,4.8
					c-1.1,1.2-2.2,2.5-3,3.9c-1.3,0.2-2.5,0.4-3.7,0.8c-1-1.6-1.7-3.5-3.2-4.7c-0.8-0.7-1.8-0.8-2.8-0.9c-0.4,2.7-0.7,5.4-1.2,8.1
					c-0.1-0.7-0.3-1.4-0.5-2.2C113.8,113.9,113.7,111.5,114.6,109.4z"/>
				<path class="st75" d="M174.5,114c0.2-0.2,0.3-0.5,0.5-0.7c1,0,2.1,0.1,2.9,0.8c0.5,0.3,0.4,1,0.6,1.5c-1.1,0-2.2,0-3.2-0.6
					C175.1,114.7,174.8,114.3,174.5,114z"/>
				<path class="st75" d="M85.2,117.6c-0.3-1.4-0.5-3.3,1-4.1c0.9,0.2,1.3,1,1.7,1.8C87,116,86.1,116.8,85.2,117.6z"/>
				<path class="st75" d="M157.1,117.1c1,0.8,1.9,1.8,2.4,3c-0.1,1.6-0.4,3.2-0.6,4.8c-0.6,3.8-1.2,7.6-1.9,11.3
					c-0.4-0.5-0.7-1-0.8-1.7c-0.4-2.5,0.1-5.1,0.4-7.6C157,123.7,156.5,120.4,157.1,117.1z"/>
				<path class="st75" d="M124.5,117.7c0.2,1.4,0.3,2.9,0.6,4.3c0.3,1.3,1.3,2.3,2,3.4c0.3,0.4,0.5,0.9,0.8,1.3
					c0.8,1,1.7,1.8,2.5,2.7c0.6,0.6,1.3,1.4,2.1,1.7c1,0.4,2,0.7,3,1c-0.6,0.4-1.1,0.8-1.7,1.2c-3.1-0.8-5.7-2.7-7.9-4.9
					c-0.8-2.3-1.6-4.7-2.3-7.1C123.8,120.1,124.2,118.9,124.5,117.7z"/>
				<path class="st75" d="M143.1,122.4c0.5-0.9,1.1-1.7,1.7-2.5c0.4,1.5,0.7,3,0.8,4.6c0,0.2-0.1,0.5-0.1,0.7
					c-1.4,0.8-2.9,1.5-4.5,2c-0.1-0.4-0.1-0.9-0.2-1.3C141.6,124.8,142.4,123.6,143.1,122.4z"/>
				<path class="st75" d="M97,122.2c0.5,0.5,1.3,0.9,1,1.7c-0.1,1-1.2,1-1.9,1.2C96.5,124.1,96.8,123.2,97,122.2z"/>
				<path class="st75" d="M130.1,125.5c-0.7-1-0.1-2.1,0.4-3c0.9,1.2,1.7,2.4,2.5,3.6C132.1,126.1,130.7,126.5,130.1,125.5z"/>
				<path class="st75" d="M170.5,123.8c0.5,0.5,1.1,0.9,1.6,1.5c0,0.1-0.1,0.3-0.1,0.4c-0.6-0.3-1.2-0.6-1.8-1
					C170.3,124.4,170.4,124.1,170.5,123.8z"/>
				<path class="st75" d="M134.5,133.6c0.8,0.3,1.7,0.5,2.5,1c0.6,0.4,0.7,1.2,0.9,1.9c0.7,2.9,0.8,6,2.2,8.7
					c1.4-0.9,2.8-1.9,4.2-2.8c0.1,0.7,0.3,1.4,0.4,2.1c-2.1,4.3-4.3,8.6-7.3,12.3c-3.5,4.6-8.1,8.3-12.2,12.3c-0.3,0-0.6,0-0.9,0
					c-0.6-2.1-1-4.3-0.8-6.5c0-0.3,0-0.6,0-0.9c-1.8-0.1-3.6-0.1-5.4-0.3c0.1-1.7,0.5-3.5,1.8-4.8c1-1.2,2.6-1.7,4-2.1
					c0.7,0.6,1.5,1.2,2.3,1.7c-1-1.8-2.3-3.5-3.8-5c1.4-0.8,3-1.2,4.5-1.8c1.1-0.5,2.1-1.2,2.9-2.1c1.2,0.7,2.5,1.4,3.7,2
					c0.7-0.8,1.7-1.6,1.7-2.7c0-1.8-0.4-3.6-0.5-5.4C134.5,138.8,134.2,136.2,134.5,133.6z"/>
				<path class="st75" d="M58.9,148.4c0.4,0.4,0.7,0.9,0.9,1.5c0.8,2.4,1.1,4.8,1.8,7.2c0.4,1.3-0.3,2.6-0.7,3.7
					c-0.3-2.5-0.4-5-0.8-7.5C59.7,151.6,59.2,150,58.9,148.4z"/>
				<path class="st75" d="M118.2,163.2c1.4-0.4,2.9-0.1,4.4,0.3c-1.7,1.8-4.3,1-6.4,1.1C116.7,163.9,117.4,163.4,118.2,163.2z"/>
				<path class="st75" d="M123.7,172.7c1.5,0.1,2.9,0.2,4.4,0.3c0.3,2.1,0.4,4.3,0.3,6.4c-0.8,1.9-1.8,3.7-2.4,5.6
					c-0.9,1-2,1.8-3.1,2.6c-2-0.2-4-0.2-5.9-0.8c-1.1-0.3-2.3-1.1-2.4-2.4c-0.2-2.3,0.5-4.7,2.1-6.4c0.9-1,2.3-1.3,3.6-1.6
					c-2.3,2.2-3.7,5.3-4,8.5c1.9,0.3,3.9,0.6,5.7-0.1c2-0.8,3-2.9,3.6-4.9c0.4-1.6,0.7-3.2,1-4.8c-1.3,0.1-2.7,0.2-4,0.3
					c0.1-0.2,0.2-0.5,0.2-0.6C123.2,174.2,123.4,173.4,123.7,172.7z"/>
			</g>
			<g>
				<path class="st76" d="M113,43.3c1-0.8,1.9-2,3.1-2.5c3.6-0.5,7.3-0.1,10.8,0.6c-1.8,1.8-3.9,3.3-6,4.7c-3.2,2-7,3-9.6,5.8
					c-2.6,2.6-3.1,6.5-5.2,9.4c-1.7,2.3-3.3,4.5-5.2,6.6c-0.5,0.7-1.3,1.4-1.1,2.3c0.3,1.6,0.9,3.2,1.4,4.8
					c-0.6,0.6-1.2,1.2-1.7,1.8c1,0.8,2.2,1.2,3.3,1.8c-0.7,2.7-1.6,5.2-2.2,7.9c2,1.5,4.2,2.8,6,4.6c0.1,1.8,0.9,3.4,1.7,4.9
					c0.6,1.2,0.8,2.5,1,3.8c-1.2-0.4-2.5-0.3-3.8,0.2c-1.2,0.3-2.1-0.7-3-1.2c1.1-0.3,2.4-0.7,2.7-1.9c0.6-2.2-0.7-4.6-2.5-5.9
					c-1.8-1.3-3.8-2.2-5.7-3.2c0.6-0.2,1.3-0.4,1.9-0.6c-2.1-1.4-4.5-1.9-7-2.1c-1.9-0.1-3.9,0.4-5.7,0.9c-0.6,0.2-1.3,0.4-1.9,0.6
					c-0.6,0-1.3,0-1.7-0.4c-0.7-0.7-1.3-1.6-1.9-2.4c-1,1.1-1.9,2.3-2.9,3.5c-0.8-0.7-1.5-1.4-2.2-2.1c0.9-0.5,1.8-1,2.8-1.5
					c-1.6-0.7-3.3-1-5.1-1.1c0.2-1.1,0.4-2.1,0.6-3.2c0.9-0.1,1.9,0,2.7-0.5c1-1.3,0.8-3.2,2.2-4.3c1.3-0.6,2.7,0.5,3.8,1.1
					c-0.6,1-1.3,2.1-1.9,3.2c1.1-0.2,2.3-0.2,3.2-0.9c0.8-1.3,0.8-2.9,1.4-4.2c0.6-1.5,1.7-2.7,3-3.7c-0.4-0.4-0.7-0.9-1.1-1.3
					c1.2-0.3,2.4-0.7,3.3-1.5c1.5-1.4,2.5-3.2,3.7-4.8c0.5-0.6,0.9-1.1,1.5-1.5c1.3-0.2,2.6,0.5,3.8-0.1c0.6-0.3,1.3-0.9,1.3-1.6
					c-0.7-0.9-1.7-1.4-2.5-2.1c2.3-1.2,4.8-1.9,7.3-2.8c0.8-0.3,1.6-0.6,2-1.3c1.3-2.3,1.8-5.1,3.2-7.4
					C111.5,44.8,112.2,44,113,43.3z"/>
				<path class="st76" d="M156.1,63.9c0.5-0.2,1-0.3,1.6-0.5c0.5,2.8,1,5.6,1.6,8.4c-0.1,2.4,0.1,4.8,0.2,7.2
					c-0.1,5.7-0.7,11.8-4,16.6c-0.4,0.5-0.8,1-1.3,1.4c-1.1-0.1-1.8-0.9-2.5-1.6c0.6-0.8,1.2-1.6,1.6-2.4c1.9-3.9,2.8-8.2,3.8-12.4
					C158.3,75,157.3,69.3,156.1,63.9z"/>
				<path class="st76" d="M95.1,100c0.9-0.3,2-0.3,2.9-0.3c1.3,0.5,2.6,1,3.8,1.5c-1.2,0.4-2.4,0.8-3.3,1.8c-1.5,1.7-2,3.9-2.2,6
					c-1.6-0.3-3.2-0.4-4.8-0.6c0-1.2-0.2-2.4-0.1-3.7c0.1-1.1,0.9-2,1.5-2.8C93.6,101.2,94.2,100.4,95.1,100z"/>
				<path class="st76" d="M118.8,104.5c0.6-0.7,1.4-1.1,2.3-1.3c1.1,0.7,2.1,1.4,3,2.2c2,1.6,4.4,2.4,6.9,3c-0.8,1-1.7,1.9-2.6,2.8
					c-2.6-1.2-5.2-2.8-7.3-4.8C120.4,105.8,119.6,105.1,118.8,104.5z"/>
				<path class="st76" d="M138.6,110.7c0.7-0.4,1.5-0.8,2.2-1.1c-0.1,0.9-0.2,1.7-0.3,2.6c-0.7,0.1-1.4,0.2-1.9,0.7
					c-0.5,0.5-0.8,1.2-1.1,1.8c-1.4,0.1-2.8-0.2-4.1,0.1c-1.9,2-3,4.8-2.8,7.6c-0.5,0.9-1.1,2.1-0.4,3c0.6,1.1,1.9,0.7,2.9,0.6
					c1.3,0.3,2.5,0.8,3.8,1.2c-0.1,0.4-0.1,0.8-0.2,1.2c1.6,0.3,3.2,0.6,4.9,0.6c-0.3,0.3-0.5,0.6-0.8,1c-0.1,0-0.3,0-0.4,0
					c-0.9,0-1.7,0-2.6,0.1c-0.4,0.1-0.8,0.2-1.2,0.3c-2.9-1.1-5.5-2.7-8.4-3.6c-0.3-0.4-0.6-0.9-0.8-1.3c0.5-2.6,0.4-5.2,0.7-7.8
					c0.5,0.1,1,0.2,1.4,0.3c0.1-1.1,0.2-2.2,0.3-3.3c0.9-0.4,1.8-1,2.6-1.6c1.4-1.1,3.3-1,5-1.6C137.7,111.2,138.2,111,138.6,110.7z
					"/>
				<path class="st76" d="M85.2,112.3c1-0.2,2-0.4,3-0.6c1.7,0.5,3.3,1.3,4.9,2.3c-0.7,0.2-1.3,0.4-2,0.6c-1.1,0.2-2.1,0.4-3.2,0.7
					c-0.4-0.7-0.8-1.6-1.7-1.8c-1.5,0.8-1.3,2.7-1,4.1c-0.4,0.9-0.8,1.8-1.4,2.6c-0.2-1.5-0.7-2.9-1.3-4.2c0.3-1.1,1.1-2,1.9-2.8
					C84.7,112.9,84.9,112.6,85.2,112.3z"/>
				<path class="st76" d="M175.3,115c1,0.6,2.1,0.6,3.2,0.6c-0.6,0-1.3,0.1-1.9,0.1c0.4,0.4,0.9,0.8,1.3,1.4c0.2,1.9,0,3.7,0.1,5.6
					c0,1.4,0.3,2.8,0.1,4.2c-0.6,0.8-1.4,1.3-2.1,1.9c-0.4,0.4-1,0.8-0.9,1.5c0.1,1.1,1,1.8,1.7,2.6c0.2,1.8,0,3.6-0.5,5.3
					c-0.3,1.2-0.4,2.4-0.8,3.5c-0.8,1.7-3,2.2-4,3.7c-1.3,3.8-1.9,7.8-2.9,11.7c-0.1,0.5-0.3,1-0.6,1.5c-0.2-0.6-0.6-1.2-0.9-1.9
					c0.4-3,0.9-6,1.3-8.9c0-0.5,0.1-1,0.1-1.6c-0.4-0.9-1.5-1.5-1.3-2.6c0.2-2.2,0.6-4.5,0.9-6.7c0.4-2.2,0.7-4.5,1.5-6.7
					c0.7,0.6,1.4,1.4,1.6,2.4c0.6,2.8-0.9,5.5-0.7,8.3c1.8-3.3,1.7-7.2,1.8-10.9c-1.1,0-2.2,0.1-3.3,0.3c0.3-1.9,0.8-3.8,1.1-5.7
					c0.6,0.4,1.2,0.7,1.8,1c0.5,0.2,1,0.4,1.5,0.6C174.2,122.5,174.6,118.7,175.3,115z"/>
				<path class="st76" d="M78,120.5c1.3,2.7,1.9,5.7,2.7,8.7c0.5,1.7,1.3,3.3,2.5,4.6c1.5,1.6,3.1,3.1,5.1,3.9
					c1.1,0.5,2.3,0.5,3.5,0.6c-1.4-1.9-3.4-3.1-5.1-4.6c2-0.3,3.9-0.4,5.9-0.6c-0.3,2-0.6,4-0.7,6c2.7,0.3,5.5,0.8,8.2,1.3
					c0.5-0.6,1.1-1.2,1.6-1.8c-0.2,1.7-0.4,3.5,0,5.2c-1.3,1.5-2.6,2.9-3.9,4.3c0.6,0.3,1.2,1,1.9,0.6c1.1-0.7,1.8-1.8,2.7-2.7
					c0.8,0.3,1.5,0.7,2.3,0.7c1-0.1,1.7-0.8,2.4-1.4c1.8-1.7,2.7-4.1,4.3-6c0.5-0.6,1.1-1.2,1.5-1.9c-0.2-1.1-1.1-1.9-1.4-3
					c0.4-1.4,1.6-2.4,2.4-3.6c0.1-0.1,0.2-0.3,0.3-0.4c2.3,3.6,5.2,6.8,8,10.1c2.3,2.5,4.7,5,7.5,6.9c-0.9,0.8-1.8,1.6-2.9,2.1
					c-1.5,0.6-3.1,1-4.5,1.8c-2.9-2.8-5.6-5.9-8.8-8.2c-3.2,2.3-6,5-8.5,8c-1.3,1.6-2.6,3.2-3.6,5c4.7-2.8,8-7.3,12.1-10.8
					c2.8,2.6,5.5,5.1,8.4,7.6c-1.5,0-3-0.2-4.5-0.2c-0.5,0-1.2-0.1-1.6,0.4c-0.7,0.9-1.2,1.9-1.8,2.8c-0.5,0.7-1.1,1.4-1.3,2.2
					c-0.1,0.8,0.1,1.6,0.2,2.4c1.7,0.5,3.5,0.8,5.2,0.9c1.8,0.1,3.6,0.2,5.4,0.3c0,0.3,0,0.6,0,0.9c-0.1,0.1-0.2,0.2-0.3,0.3
					c-0.2,0.2-0.4,0.3-0.6,0.5c-1.4-0.4-2.9-0.7-4.4-0.3c-0.8,0.2-1.5,0.8-2.1,1.3c-4.5,0.1-9-0.3-13.5-0.6c0,1.4-0.1,2.8-0.2,4.2
					c-1.5,0.4-3.1,1-4.6,1.1c-0.2,0-0.6-0.1-0.7-0.1c-2-0.8-3.9-2.1-5.2-3.8c-1-1.2-1.6-2.7-2.4-4.1c-3.3-5.8-5.6-12.2-6.9-18.8
					c-0.7-3.5-2.4-6.7-3.6-10.1c-0.7-2.1-1.2-4.2-1.4-6.4C77.6,124.1,77.7,122.3,78,120.5z"/>
				<path class="st76" d="M144.6,144.5c1.7-3.6,3.2-7.2,4.7-10.9c0.2,1.1,0.4,2.3,0.3,3.4c-0.1,2.1-0.8,4.1-1.3,6.2
					c-0.5,2-0.2,4.2-0.4,6.2c-0.5,4.1-1.7,8.1-3.3,11.9c-0.8,2.1-1.9,4.1-2.7,6.3c-3.7,0.3-7.4,0.4-10.9,1.6c-2-0.1-3.9-0.1-5.9-0.1
					c4.1-4.1,8.6-7.7,12.2-12.3C140.3,153.1,142.5,148.8,144.6,144.5z"/>
				<path class="st76" d="M135.2,170.1c1.4,0.2,2.7,0.4,4.1,0.6c-0.4,0.7-0.8,1.5-1.6,1.8c-2.4,1.3-4.7,3-6.2,5.3
					c-1,1.4-1,3.4-2.3,4.6c-1,0.9-2.1,1.7-3.2,2.6c0.7-1.9,1.6-3.8,2.4-5.6c1.5-2.6,1.8-5.6,1.7-8.5
					C131.9,171.1,133.6,171,135.2,170.1z"/>
				<path class="st76" d="M92.9,171c2.9-0.5,5.8-0.4,8.7,0c0.2,1.3,0.4,2.6,0.6,4c4,0.5,8,0.3,12,0.3c2.9,0,5.8-0.3,8.7-0.3
					c-0.1,0.2-0.2,0.5-0.2,0.6c-0.2,0-0.5,0.1-0.7,0.1c-2.8,0.1-5.7,0-8.5,0.7c-0.8,0.2-1.6,0.6-2,1.4c-1.2,2.3-1,5-0.9,7.5
					c0.1,1.2,0.2,2.7,1.4,3.3c2,1.1,4.4,1.1,6.6,1.1c0.4,0.7,0.8,1.5,1.1,2.2c-2,0.6-4.2,1-6.3,1c-1.9-0.1-3.8,0-5.7,0.5
					c-4.4-2-7.8-5.6-10.1-9.7C95.3,179.8,93.7,175.4,92.9,171z"/>
				<path class="st76" d="M162,183.5c0-4.2-0.2-8.4-0.4-12.6c0.5,0.1,1.1,0.1,1.6,0.1c-0.3,1-0.4,2.2,0.2,3.1c0.5,1,1.8,1.7,2,2.9
					c0.2,1.2,0.4,2.5,0.5,3.7c0,1-0.1,1.9-0.1,2.9C164.5,183.7,163.3,183.6,162,183.5z"/>
			</g>
			<g>
				<path class="st77" d="M142,65.2c1.7-0.3,3.3,0.7,4.3,1.9c2,2.4,3.1,5.5,2.8,8.6c-0.1,2-1,3.8-2,5.5c-0.7,1.2-2.3,2-3.7,1.7
					c-0.9-0.2-1.5-0.9-2.1-1.6c-1.3-1.6-2.6-3.2-4.1-4.6c-0.7-0.7-1.4-1.3-1.6-2.3c-0.2-1.5-0.1-3.1,0.3-4.5
					c0.4-1.3,1.5-2.2,2.6-2.9C139.7,66.2,140.8,65.5,142,65.2z"/>
				<path class="st77" d="M116.9,121c2.2-0.3,4.5,0.4,6.8,0.3c0.7,2.4,1.4,4.8,2.3,7.1c-0.5,1.5-0.8,3-1.1,4.6
					c-0.2,0.8-0.4,1.7-1,2.3c-1.5,0.3-3.1-0.1-4.4-1c-2.1-1.5-3.2-4.1-5.4-5.5c-0.1-1.4-0.2-2.9-0.1-4.3
					C115.1,123.4,115.6,121.9,116.9,121z"/>
				<path class="st77" d="M163.8,169.1c1,1.2,2.1,2.4,3,3.7c0.3,0.4,0.1,0.9,0,1.4c-0.4,2.2-0.5,4.4-1,6.6c-0.2-1.2-0.3-2.5-0.5-3.7
					c-0.2-1.2-1.4-1.8-2-2.9c-0.6-0.9-0.4-2.1-0.2-3.1C163.4,170.4,163.6,169.8,163.8,169.1z"/>
				<path class="st77" d="M122.7,175.6c1.3-0.1,2.7-0.2,4-0.3c-0.3,1.6-0.6,3.3-1,4.8c-0.5,2-1.6,4-3.6,4.9
					c-1.8,0.7-3.8,0.3-5.7,0.1c0.3-3.2,1.6-6.3,4-8.5c0.5-0.3,1.1-0.6,1.6-0.9C122.2,175.7,122.5,175.6,122.7,175.6z"/>
			</g>
		</g>
	</g>
</g>
<g id="_x32_">
</g>
<g id="_x33_">
</g>
<g id="_x34_">
</g>
<g id="_x35_">
</g>
<g id="_x36_">
</g>
<g id="_x37_">
</g>
<g id="_x38_">
</g>
<g id="_x39_">
</g>
<g id="_x31_0">
</g>
<g id="_x31_1">
</g>
<g id="_x31_2">
</g>
<g id="_x31_3">
</g>
<g id="_x31_4">
</g>
</svg>
