<?xml version="1.0" encoding="utf-8"?>
<!-- Generator: Adobe Illustrator 21.0.2, SVG Export Plug-In . SVG Version: 6.00 Build 0)  -->
<svg version="1.1" xmlns="http://www.w3.org/2000/svg" xmlns:xlink="http://www.w3.org/1999/xlink" x="0px" y="0px"
	 viewBox="0 0 226.8 226.8" style="enable-background:new 0 0 226.8 226.8;" xml:space="preserve">
<style type="text/css">
	.st0{opacity:0.6;fill:url(#SVGID_1_);}
	.st1{opacity:0.3;fill:url(#SVGID_2_);}
	.st2{fill:#010101;}
	.st3{opacity:0.45;}
	.st4{fill:url(#SVGID_3_);}
	.st5{fill:url(#SVGID_4_);}
	.st6{fill:url(#SVGID_5_);}
	.st7{fill:url(#SVGID_6_);}
	.st8{fill:url(#SVGID_7_);}
	.st9{fill:url(#SVGID_8_);}
	.st10{fill:url(#SVGID_9_);}
	.st11{fill:url(#SVGID_10_);}
	.st12{fill:url(#SVGID_11_);}
	.st13{fill:url(#SVGID_12_);}
	.st14{fill:url(#SVGID_13_);}
	.st15{fill:url(#SVGID_14_);}
	.st16{fill:url(#SVGID_15_);}
	.st17{fill:url(#SVGID_16_);}
	.st18{fill:url(#SVGID_17_);}
	.st19{fill:url(#SVGID_18_);}
	.st20{fill:url(#SVGID_19_);}
	.st21{fill:url(#SVGID_20_);}
	.st22{fill:url(#SVGID_21_);}
	.st23{fill:url(#SVGID_22_);}
	.st24{fill:url(#SVGID_23_);}
	.st25{fill:#D9B14D;}
	.st26{opacity:0.8;}
	.st27{fill:url(#SVGID_24_);}
	.st28{fill:url(#SVGID_25_);}
	.st29{fill:url(#SVGID_26_);}
	.st30{fill:url(#SVGID_27_);}
	.st31{fill:url(#SVGID_28_);}
	.st32{fill:url(#SVGID_29_);}
	.st33{fill:url(#SVGID_30_);}
	.st34{fill:url(#SVGID_31_);}
	.st35{fill:url(#SVGID_32_);}
	.st36{fill:url(#SVGID_33_);}
	.st37{fill:url(#SVGID_34_);}
	.st38{fill:url(#SVGID_35_);}
	.st39{fill:url(#SVGID_36_);}
	.st40{fill:url(#SVGID_37_);}
	.st41{fill:url(#SVGID_38_);}
	.st42{fill:url(#SVGID_39_);}
	.st43{fill:url(#SVGID_40_);}
	.st44{fill:url(#SVGID_41_);}
	.st45{fill:url(#SVGID_42_);}
	.st46{fill:url(#SVGID_43_);}
	.st47{fill:url(#SVGID_44_);}
	.st48{fill:url(#SVGID_45_);}
	.st49{fill:url(#SVGID_46_);}
	.st50{fill:url(#SVGID_47_);}
	.st51{fill:url(#SVGID_48_);}
	.st52{fill:url(#SVGID_49_);}
	.st53{fill:url(#SVGID_50_);}
	.st54{fill:url(#SVGID_51_);}
	.st55{fill:url(#SVGID_52_);}
	.st56{fill:url(#SVGID_53_);}
	.st57{fill:url(#SVGID_54_);}
	.st58{fill:url(#SVGID_55_);}
	.st59{fill:url(#SVGID_56_);}
	.st60{fill:url(#SVGID_57_);}
	.st61{fill:url(#SVGID_58_);}
	.st62{fill:url(#SVGID_59_);}
	.st63{fill:url(#SVGID_60_);}
	.st64{fill:url(#SVGID_61_);}
	.st65{fill:url(#SVGID_62_);}
	.st66{fill:url(#SVGID_63_);}
	.st67{fill:url(#SVGID_64_);}
	.st68{fill:url(#SVGID_65_);}
	.st69{fill:url(#SVGID_66_);}
	.st70{fill:#030303;}
	.st71{fill:#B7A151;}
	.st72{fill:#F3EAB3;}
	.st73{fill:#894B29;}
	.st74{fill:#B66931;}
	.st75{fill:#E6D279;}
	.st76{fill:#C88632;}
	.st77{fill:#F5EDDA;}
	.st78{fill:#A76F48;}
	.st79{fill:#553228;}
	.st80{fill:#814830;}
	.st81{fill:#FAF4E3;}
	.st82{fill:#D6A673;}
	.st83{fill:#BF8D5F;}
	.st84{fill:#F6E0BC;}
	.st85{fill:#E5BF95;}
	.st86{fill:#020202;}
	.st87{fill:#FBFCFC;}
	.st88{fill:#2C457F;}
	.st89{fill:#807F80;}
	.st90{fill:#BBB9BA;}
	.st91{fill-rule:evenodd;clip-rule:evenodd;fill:#E01F27;}
	.st92{fill:#E01F27;}
	.st93{fill:#010101;stroke:#010101;stroke-width:3;}
	.st94{fill:#FFFFFF;}
	.st95{fill:#484848;}
</style>
<g id="FreeVector.com_BG">
</g>
<g id="Visit_FreeVector.com">
</g>
<g id="Starburst1">
</g>
<g id="Starburst2">
</g>
<g id="Stars">
</g>
<g id="_x31_">
</g>
<g id="_x32_">
</g>
<g id="_x33_">
</g>
<g id="_x34_">
	<g>
		<g>
			<path class="st86" d="M102.9,22.6c6.7,0,13.4-0.2,20.2-0.3c0.6,0.7,1,1.5,1.6,2.2c6.2,0.7,12.6,0.7,18.4,3
				c6.4,2.6,12.5,5.8,17.7,10.1c3.3,2.7,6.1,5.8,8.3,9.4c3.3,4.9,5.2,10.4,6.4,16.1c1,4.6,1.5,9.3,2,13.9c-0.7,0.5-1.4,1-2.1,1.5
				c0.5,2.1,0.9,4.2,1.7,6.2c1.1,0.8,2.5,1.2,3.7,1.9c0,1.4,0.2,2.8,0.3,4.2c1,1.2,2.4,2.3,2.4,3.9c0,3.3,0.9,6.9-1.2,9.8
				c-0.3,0.4-0.8,0.8-0.8,1.4c-0.5,5.5-0.5,11-0.5,16.5c0,5.3,0.3,10.6,0.3,15.9c3.4,3,6.6,6.2,8.8,10.1c1.6,2.8,2.5,5.8,2.6,9
				c-0.1,2,0.1,4.1,0,6.1c-0.2,0.7-0.5,1.5-0.9,2.1c-4.5,4.8-6.9,11.2-12.5,15.2c-2.3,1.4-3.5,3.8-4.8,6
				c-4.1,6.7-10.1,12.7-17.8,15.8c-5.4,2.1-11.6,2.7-17.1,0.9c-2.6-0.8-4.8-2.5-6.9-4.2c-3.6-3.3-5.2-7.8-7.6-11.9
				c-1.2,1.3-2.1,2.9-3.5,4.1c-4,1.1-8.2,1.1-12.3,0.9c-1.8-0.2-3.6-0.3-5.3-0.8c-0.5-1.1-1-2.2-1.5-3.2c-0.7,0-1.4,0.1-2.1,0.1
				c-1.4,4-3.5,7.9-6.7,10.9c-2.1,2-4.7,3.7-7.6,4.6c-2.9,0.8-6,1.1-9.1,0.7c-4.8-0.5-9.3-2.4-13.3-4.9c-5.2-3.4-9.2-8.2-12.3-13.3
				c-0.8-1.3-1.4-2.8-2.6-3.9c-1.9-2-4.7-3.3-6.2-5.6c-1.9-2.8-4.1-5.4-5.9-8.2c-1.6-2.5-2.9-5.3-3-8.2c-0.5-3.5,0.2-7.1,1.7-10.4
				c2.2-4.5,5.6-8.4,9.5-11.7c0.3-8.8,0.4-17.6,0.2-26.3c0-2.1-0.3-4.2-0.3-6.2c-1.7-1.5-2.3-3.8-2.2-5.9c-0.1-2.3,0.4-4.5,0.4-6.8
				c0.7-0.6,1.4-1.2,2.1-1.8c0.1-1.4,0.2-2.8,0.4-4.2c1-0.9,2.3-1.4,3.5-2c1-2,1.5-4.1,1.7-6.2c-0.5-0.6-1.3-0.9-1.9-1.4
				c0.5-8.7,1.8-17.5,5.6-25.6c2.8-5.8,6.9-11,12.1-14.9c5.1-4,11.1-6.9,17.2-9.3c5.6-2.1,11.7-1.9,17.6-2.8
				C102.2,23.9,102.5,23.2,102.9,22.6z"/>
		</g>
		<g>
			<g>
				<path class="st70" d="M103,22.6c6.7-0.1,13.4,0,20.1-0.3c0.6,0.7,1.1,1.5,1.5,2.2c6.2,0.8,12.6,0.7,18.5,3
					c7.3,3,14.4,6.8,20,12.1c3.7,3.5,6.7,7.8,8.8,12.3c3.6,7.9,4.7,16.5,5.6,24.9c-0.7,0.5-1.4,1-2.1,1.5c0.4,2.1,0.9,4.2,1.7,6.3
					c1.1,0.8,2.5,1.2,3.6,1.8c0.1,1.4,0.1,2.8,0.4,4.2c0.8,1.1,2.1,2,2.3,3.4c0.1,1.5,0.2,3,0.3,4.6c0,2-0.1,4.2-1.4,5.8
					c-0.3,0.4-0.7,0.7-0.7,1.3c-0.9,10.5-0.3,21.1-0.1,31.7c-0.1,0.4,0.1,0.8,0.5,1.1c3.3,2.9,6.4,6.2,8.5,10
					c1.5,2.7,2.4,5.8,2.4,8.8c-0.1,1.9,0.2,3.7,0,5.6c-0.2,1.2-0.8,2.3-1.6,3.2c-3.6,4.1-5.8,9.2-10,13c-1.1,1.1-2.6,1.9-3.7,3.1
					c-1.7,1.9-2.6,4.2-4,6.2c-4.4,6.6-11,12.3-19.1,14.7c-5,1.4-10.6,1.6-15.5-0.3c-2.2-0.8-4-2.3-5.8-3.7
					c-3.5-3.1-5.2-7.4-7.3-11.4c-0.2-0.2-0.2-0.6-0.6-0.6c-1.1,1.2-1.9,2.6-3.1,3.7c-0.3,0.3-0.7,0.4-1.1,0.5
					c-5.5,1.1-11.2,1-16.6-0.1c-0.5-1.1-1-2.1-1.5-3.2c-0.8,0-1.5,0-2.3,0c-2,6.5-6.6,12.6-13.5,15.2c-4.6,1.6-9.8,1.4-14.4,0.1
					c-4.8-1.4-9.3-4-12.9-7.3c-3.1-2.9-5.8-6.3-7.9-9.9c-0.7-1.1-1.2-2.3-2-3.4c-1.5-1.8-3.5-3-5.2-4.5c-1.4-1.2-2.2-2.8-3.3-4.2
					c-2.7-3.6-5.7-7.2-6.8-11.6c-0.7-3.5-0.7-7.3,0.5-10.7c1.9-5.4,5.9-9.9,10.4-13.6c0.2-10.9,0.6-21.8-0.1-32.6
					c-1.7-1.6-2.3-4-2.2-6.2c0-2.2,0.4-4.3,0.4-6.5c0.7-0.6,1.4-1.2,2.1-1.8c0.1-1.4,0.1-2.9,0.5-4.3c0.9-0.8,2.2-1.2,3.2-1.8
					c0.3-0.2,0.4-0.5,0.5-0.8c0.8-1.8,1.2-3.8,1.4-5.7c-0.7-0.4-1.3-0.9-1.9-1.3c0.7-8.9,1.9-18.1,6.1-26.3c1.5-3,3.4-5.8,5.6-8.4
					c6-6.8,14.3-11.4,22.9-14.9c5.7-2.2,11.9-2,17.9-2.9C102.2,24,102.6,23.3,103,22.6z M103.9,23.7c-0.1,11.4,0.4,22.7,0.3,34.1
					c6.1,0.3,12.3,0.2,18.4,0.1c0.2-11.4-0.2-22.7,0-34.1c-5.3,1.2-10.8,0-16.2,0.5c-0.1,10.2,0,20.5-0.1,30.7
					c4.6,0.3,9.2,0.2,13.8,0.2c0-8.5-0.2-17,0.1-25.5c0.1-0.9-0.1-1.9-0.1-2.8c0.5,0.8,0.3,1.7,0.3,2.5c0.4,9.1-0.1,18.1,0.3,27.2
					c-4.8-0.1-9.6,0.1-14.3,0.2c-0.8-11,0-22.1-0.4-33.1C105.1,23.7,104.5,23.7,103.9,23.7z M124.3,27.1c-0.1,0.6-0.2,1.3-0.2,1.9
					c-0.2,2.5-0.1,5.1-0.1,7.6c-0.1,1-0.1,2.1-0.1,3.1c0.1,5.2,0,10.5,0,15.7c0,1.1,0,2.2-0.2,3.3c-0.3,0.2-0.7,0.1-1.1,0.1
					c-6.6,0-13.1,0.2-19.7-0.2c-0.2-5.6-0.1-11.1-0.2-16.7c-0.2-4.9,0.2-9.9-0.2-14.8c-4.7,0.1-9.4,0.4-13.9,1.7
					c-0.7,0.2-1.5,0.3-2.2,0.4c-1.2,0.3-2.2,1.2-3.5,1.2c-1.4,0-2.5,1-3.7,1.6C69.8,36.4,62,43.8,57.1,52.6
					c-3.5,7.3-4.7,15.4-5.2,23.3c3,0.1,6.1,0.3,9.1,1c0.1,1.8,0.1,3.7-0.1,5.5c10.4,0,20.8,0,31.1,0c14.1,0,28.2,0,42.3,0
					c10.5,0,21,0,31.5,0c-0.1-1.8-0.1-3.7-0.1-5.5c2.9-0.9,6.1-1,9.1-1.1c-0.1-5.2-1-10.4-2.3-15.5c-0.6-2.7-1.6-5.4-2.9-7.9
					c-4.7-9.1-13.2-16.2-22.8-20.9l0,0C139.7,28.8,132.1,26.9,124.3,27.1z M167.1,77.7c0,1.5,0,3.1,0.1,4.6c2.2,0,4.4,0,6.7-0.1
					c0-1.6,0-3.1,0-4.7C171.5,77.6,169.3,77.6,167.1,77.7z M52.9,77.7c0,1.6-0.1,3.1-0.2,4.7c2.3,0,4.6,0,7,0c0-1.5,0-3,0-4.5
					C57.4,77.7,55.2,77.6,52.9,77.7z M92.9,85.3c-1.7-0.3-3.5-0.1-5.3-0.2C77,84.8,66.5,85.2,55.9,85c0,6.2-0.3,12.5,0,18.7
					c0.6,0.5,1.1,1,1.7,1.5c0.3-0.3,0.5-0.6,0.4-1c0.1-5.7,0-11.5,0.9-17.1c11.4,0,22.7-0.1,34.1,0.1c11.2,0,22.5,0.1,33.7,0
					c2.1,0,4.1-0.2,6.2,0c11.2-0.1,22.5-0.2,33.7-0.1c0.7,0,1.2,0.5,1.5,1c0.4,0.8,0.4,1.7,0.5,2.6c0,4.3,0.7,8.6,0.2,12.9
					c-0.1,0.7-0.4,1.5-1.1,1.9c-0.9,0.6-2.1,0.4-3.2,0.2c-1.9-0.4-3.8-1.1-5.6-1.7c-8.9-2.9-17.8-5.6-27-7.6l0-0.1
					c-1.5-0.3-3-0.7-4.5-0.8c-1.4-0.1-2.7,0.5-4.1,0.8c-1.4,3.9-2.5,7.8-2.9,11.9c-0.5-0.3-0.9-0.5-1.4-0.8c0.7-6.3,0-12.7,0.4-19.1
					c-1.2,0-2.4-0.1-3.6-0.1v0.2c-0.6,0.7-1.2,1.4-1.3,2.3c-0.4,10.4,0.2,20.8-0.1,31.1c-0.1,1.5,0.8,2.7,1.7,3.9
					c-0.1,0.4-0.3,0.8-0.4,1.2c-2.7-0.9-6.1-0.4-8.3,1.4c-0.9,1.8-1.4,3.8-2.1,5.8c5.2-1.9,11-1.7,16.3-0.3
					c-0.7-1.9-1.3-3.8-1.9-5.7c-0.5-0.1-1.1-0.3-1.6-0.4c-0.1-0.1-0.3-0.2-0.5-0.3c0-0.2,0.1-0.7,0.1-0.9c2,0.6,4,1.2,5.9,1.8
					c0,0.1-0.1,0.4-0.1,0.5c5.2,2.8,10.4,5.5,15.7,8c0.8,0.3,1.4,0.9,2.2,1.3c2.5,1,4.6,2.5,6.9,3.8c0.2-0.1,0.3-0.1,0.5-0.2
					c1.9,1,3.8,1.9,5.7,2.9c-1.7-4-4.4-7.7-4.9-12c0-0.7-0.2-1.5,0.1-2.2c5.2-9.9,11.6-19.6,21.1-26.3c0.4-6.2,0.4-12.5,0.7-18.7
					c-11.6-0.1-23.1-0.3-34.7,0c-0.8,0-1.6-0.1-2.4,0.1c-1.8-0.3-3.6-0.4-5.5-0.5c-8.8,0-17.5,0-26.3,0
					C99.3,85.1,96.1,84.9,92.9,85.3z M172,85.2c0,6.2,0.3,12.3,0.4,18.5c-0.1,1.7-1.2,3.2-1.5,4.8c-0.2,0.7-0.1,1.5-0.1,2.3
					c-0.1,8.5,0,17.1,0.1,25.7c1.7,0.9,3.3,1.8,5,2.7l0,0c0.4,0.2,0.8,0.4,1.2,0.6c7.2,3.9,11.6,11.4,12.3,19c0.4,2.5-0.1,5-0.3,7.5
					c0.5-0.5,1.2-0.8,1.4-1.5c0.6-2,1.2-4,1.2-6c-0.1-1.1-0.5-2-0.8-3.1c-0.2-2.6-1.1-5.2-2.5-7.4c-2.2-3.6-5.3-6.5-8.7-9.1
					c0-8.2,0-16.4,0-24.6c0-1.6-0.3-3.3-0.8-4.8c0.3-0.9,0.9-1.8,1.1-2.7c0.6-2.7-0.1-5.5,0.4-8.2c0.6,1.5,1,3.1,1.7,4.6
					c0.6-3.1,0.9-6.3,0.4-9.4c-0.7-0.5-1.6-0.7-2.4-1c-0.3,1.3-0.5,2.6-1,3.8c0-3.1,0-6.2-0.5-9.2c-1-0.3-1.9-0.7-2.9-0.9
					c-0.5-0.3,0-1.1-0.1-1.6C174.4,85.1,173.2,85.2,172,85.2z M51.1,85.2c0.1,0.4,0.1,0.9,0.2,1.3c-1.3,0.4-2.6,0.9-3.9,1.3
					c-0.5,7.5-0.7,15.1,0.1,22.7c-0.9,9.6-0.1,19.2-0.4,28.8c-3.4,2.5-6.5,5.4-8.7,8.9c-1.5,2.2-2.2,4.8-2.6,7.3
					c-0.6,3.6-0.1,7.4,1.8,10.5c0.1-3.7-0.4-7.4,0.5-11c1.3-6.3,5.7-11.9,11.6-15.1c0-0.1,0-0.4,0-0.6c0.5,0.2,1,0.3,1.4,0.5
					c0-0.2,0-0.5-0.1-0.7c1.7-0.9,3.4-1.9,5-2.8c0-9.5,0.3-19,0.1-28.4c-0.5-1.1-1.8-1.9-1.8-3.3c0.5-6.5,0.4-12.9,0.6-19.4
					C53.7,85.2,52.4,85.2,51.1,85.2z M44.6,95.4c-0.4,2.5,0.3,5,0.2,7.4c0.2,0,0.7,0,0.9,0c0.2-3.3,0.2-6.6,0.1-9.8
					C45.2,93.8,44.8,94.6,44.6,95.4z M98.3,96c-13.2,1.6-25.4,6.8-38.2,10.1c0,0.5-0.2,1.1,0.4,1.4c7.4,6.7,12.8,15,17.2,23.7
					c-0.8,4.8-3,9.2-5.7,13.3c10.7-4.9,20.9-10.7,31.3-15.9l0,0c2.1-1.1,4.7-1.6,6.4-3.4c0-3.6-1-7.1-1.9-10.6
					c-0.2-2.8-0.4-5.7-1.5-8.3c-0.3,0-0.6-0.1-0.9-0.1c-0.1-1.1-0.2-2.1-0.1-3.2c0-2.7-0.7-5.6-2.7-7.6
					C101.1,95.4,99.6,95.5,98.3,96z M154,126.7c-1,1.8-2.1,3.6-2.6,5.5c-0.3,1,0.3,1.9,0.6,2.8c1.4,4,3,8.2,6.4,11.3
					c3.9-3.5,8.3-6.7,11.5-10.9c0.1-5.7,0.3-11.4,0-17.1c0.2-3.5,0.1-7,0.1-10.5C163.4,113,158.1,119.6,154,126.7z M57.3,108.3
					c-0.1,2.7-0.1,5.4,0,8.1c0,6,0,11.9-0.1,17.9c0,0.6-0.2,1.3,0.3,1.8c2.9,3.4,6.2,6.4,9.9,9c-0.1,0.3-0.2,0.6-0.3,0.9
					c0.6,0,1.2,0.1,1.8,0.1c1.3-1.3,2.3-2.8,3.1-4.3c1.1-2.3,2.3-4.6,3-7.1c0.4-1.2,0.5-2.6-0.1-3.8
					C70.7,122.4,64.8,114.6,57.3,108.3z M94.7,137.2c1.5-0.5,3.1-1,4.6-1.6c0.8-1.5,1.4-3.1,2.1-4.6C98,131.5,95.3,134.1,94.7,137.2
					z M125.9,131.2c0.5,1.6,1.2,3.1,2,4.5c1.3,0.3,2.7,0.5,4,0.8C131,133.9,128.6,132,125.9,131.2z M104,134.8
					c-9.1,3.2-18.1,6.6-27.2,10c-4.3,1.6-8.7,3.1-12.8,5.2c-4.9,2.5-9.4,5.7-13.4,9.3c-0.4,0.3-0.6,0.9-0.7,1.4
					c-1.4,4.3-1.3,8.8-1,13.2l0,0.1c0,0-0.1,0-0.2,0c0.3,1.8,0.6,3.6,1.3,5.3c1.3,3.5,3.6,6.6,5.6,9.8c1.5,2.5,3.5,4.6,5.7,6.6
					c1.2,1.1,2.5,2.2,4,2.9c1.2,0.6,2.4,1.3,3.7,1.9c1.1,0.6,2.4,0.2,3.4,0.9c1.2,0.7,2.7,0.6,4.1,0.6c4,0.1,8.2,0.2,11.9-1.4
					c0-0.2,0.1-0.6,0.1-0.8l0.2,0.1c1.7-0.4,3.2-1.5,4.4-2.5c3.4-3,5.1-7.3,6.1-11.5c1.3,0.1,2.7,0.1,4,0.4c0.7,1.2,1.4,2.5,2.2,3.7
					c0.2,0.4,0.6,0.4,1,0.4c4.7,0.4,9.4,0.5,14-0.3c1.4-0.2,2.2-1.5,2.6-2.6c-1.6,0-3.1,0.7-4.6,0.5c-0.8-0.2-1-1-1.3-1.6
					c-2.2,0.6-4.5-0.2-6.7,0.2c-1.1,0.2-1.6,1.2-2.3,2c-1.2,0.2-1.8-1.2-2.6-1.9l-0.1,0c-0.2-1.7-1-3.2-1.8-4.7
					c0.6-1.4,1.8-2.7,1.8-4.3c0.1-0.7-0.7-1.2-1.2-1.6c0.8-1.1,2-2.1,2.2-3.5c4.7,0.2,9.4,0.6,14.1-0.2c0.5,1.1,1.2,2.2,1.7,3.2
					c0.9,1.5,1.5,3.2,2.6,4.5c-0.8-0.4-1.4-0.9-2.1-1.4c0.3,1.1,0.4,2.2,0.2,3.2c-0.4,1.8-1.3,3.5-1.6,5.4c2.1-0.6,4.1-1.2,6.3-1.7
					c1.1,3.9,2.6,7.7,5.4,10.8c1.6,1.8,3.6,3.1,5.8,4.3c3.7,1.8,7.9,1.7,11.9,1.5c4.5,0,8.7-1.8,12.3-4.1c3.9-2.7,7.1-6.3,9.3-10.3
					c1.8-4.4,5.2-8.3,5.6-13.2c0.3-4.4,0.6-8.9-0.7-13.2c-0.3-0.8-0.4-1.7-1.1-2.2c-7.1-6.5-16.1-10.8-25.2-14.5
					c-1.2-0.5-2.4-1-3.6-1.4c-8-2.3-15.8-5.3-23.7-8C117.2,133.5,110.3,132.9,104,134.8z M84.6,140.4c2.7-0.2,5.5-1.5,6.8-3.8
					C88.6,136.7,86.3,138.4,84.6,140.4z M136.7,137.1c0.3,2,2.8,3,4.8,2.9C140.9,138.1,138.6,137.3,136.7,137.1z M51.3,140.2
					c1.4,3.8,4.5,7,5.1,11.1c-1.8-3.2-3.4-6.6-5.7-9.6c-1.4-0.4-2.5,0.7-3.8,1c0.1,1.3,0.2,2.6,0.3,3.9c-1.1-0.3-2.3-0.7-3.4-1
					c-1.7,2.4-3.7,4.7-4.7,7.5c-0.5,1.3-0.6,2.8-0.5,4.2c0.1,2.9-0.5,6.1,1,8.8c-0.1,1.7,0.3,3.3,1.1,4.8c1.6,3,4.2,5.3,7,7.3
					c-0.1-1.5,0-2.9-0.2-4.4c0-0.2-0.2-0.4-0.4-0.4c0-4.1-0.5-8.3,0.8-12.3c0.3-0.8,0.5-1.6,1.1-2.2c5.5-5.1,12.1-9.1,19.3-11.8
					c-4-3.3-8.1-6.4-11.8-9.9C54.7,138,52.9,139,51.3,140.2z M158.5,146.7c6.4,3,12.7,6.4,18,11c0.7,0.7,1.6,1.3,1.9,2.2
					c0.7,1.8,0.9,3.6,1.2,5.4c0,4.1-0.2,8.2-0.1,12.2c3.4-2.4,5.8-5.8,7.2-9.4c1.7-4.4,2-9.1,1.3-13.7c-0.1,0.1-0.2,0.3-0.3,0.4
					c-0.2-1.1-0.3-2.2-0.6-3.3c-0.3-1.1-1.1-2-2.2-2.3c-1.4,0.9-2.8,1.9-3.8,3.2c-1.3-0.9-2.8-1.7-3.9-2.8c-1.2-1.2-2.5-2.4-3.7-3.6
					c1.5,0.3,3,1,4,2.1c0.9,1.3,2.7,1.5,4.1,2.1c-0.8-0.9-1.7-1.7-2.5-2.6c-0.7-0.8-1.8-1.2-2.8-1.7c0.2-1,0.5-2.1,0.7-3.1
					c2.4,1.2,3.8,3.6,6.3,4.8c0.4,0.2,0.7,0,1.1,0c-2.1-2.7-4.7-5.2-8.1-6.5c-1.4,2-2.7,4.1-3.7,6.3c1.7,1.2,3.5,2.3,5.2,3.5
					c1.3,1.6,2.5,3.4,3.7,5c-3.4-2.4-6.2-5.4-9.1-8.3c-0.8,1-1.6,2.1-2.5,3c1.9-3.6,4.1-7,5.7-10.7c-1.5-1.1-3.1-2.2-4.9-2.8
					C166.1,139.9,163,144.1,158.5,146.7z M108.8,173.4c0.8,1.4,1.9,2.7,3.4,3.6c0.2,1.8-0.2,3.5-0.2,5.2c0,1,0.5,1.8,1.2,2.5
					c1.5-0.7,3.2-1.5,4.2-2.9c0.6-0.8,0.6-1.8,0.5-2.7c-1.4-0.5-2.7-1.1-4-1.8c1.4-1,3.1-2.1,3.3-3.9
					C114.4,173.4,111.6,173.4,108.8,173.4z"/>
			</g>
			<path class="st70" d="M175.5,87.2c0,0,0.1,0,0.2,0c0.2,1.1,0,2.2,0,3.3c-0.1,2.8-0.2,5.6-0.3,8.4C175.3,95,175.4,91.1,175.5,87.2
				z"/>
			<path class="st70" d="M52.4,148.2c0.6,0.2,1.1,0.3,1.7,0.5c-2.9,2.4-5.5,5.1-8.3,7.5c0.1-0.5,0.2-1,0.5-1.5
				c0.5-0.5,1-0.9,1.5-1.3c-0.8-0.4-1.7-0.8-2.5-1.2c0.7-0.8,1.5-1.6,2.3-2.4c0.4,0.8,0.9,1.7,1.3,2.5
				C50,150.9,51.2,149.6,52.4,148.2z"/>
			<g>
				<path class="st70" d="M72.8,182c1.4-1.9,2.8-4.1,5.4-4.7c2.6-0.4,5.2,0,7.8,0.5c1.4,0.5,2.6,1.6,3.5,2.8
					c1.8,2.7,2.3,6.2,1.1,9.1c-0.7,1.7-2.2,3-3.8,4c-1.8,1-4,1-5.9,0.5c-1-0.3-2.2-0.5-3-1.2c-0.8-0.6-1.5-1.2-2.3-1.9
					c0.7,1,1.2,2.2,2,3.1c2.6,1.7,6,2.1,9.1,1.6c1.5-0.2,2.9-1.1,4-2.1c2.3-2.4,3.3-5.9,2.4-9c-0.5-1.7-1.7-3.1-3.2-4.2
					c0.6-0.4,1.3-0.8,2-0.8c1.1,0,2.1,0.4,3.1,0.8c1.8,0.7,3.7,1.1,5.6,1.5c0.1,0,0.3,0.1,0.4,0.2c0.2,0.5,0,1.1,0.1,1.6
					c-2.4-1-4.9-1.9-7.4-2.8c0.4,1.7,0.7,3.4,0.6,5.2c0,3.5-1.4,7.2-4.3,9.5c-4.7,2.2-10.5,1.5-14.7-1.2c-3-3.5-4.5-8.4-2.7-12.7
					c0.1,1.4,0.1,2.8,0.2,4.2c-0.1,1.6,0.9,2.9,1.4,4.4c0.7,0.2,1.4,0.5,2.1,0.7c-1.8-2.8-2.3-6.4-0.8-9.3c0.7-1.5,2.3-2.4,2.8-4
					C76.3,179.1,74.6,180.6,72.8,182z M79.4,181.9c0,0.1,0,0.4,0,0.5c-1.1,0.9-1.7,2.2-1.8,3.6c-0.1,2.2,1.1,4.3,3,5.6
					c0.5-0.9,1-1.9,1.8-2.6c1.2-1.1,2.9-1.7,4.6-1.6c1.1,0.1,1.7-1,2.4-1.6c-0.8-1.8-1.9-3.5-3-5.1C84,180.2,81.4,180.7,79.4,181.9z
					"/>
			</g>
			<g>
				<path class="st70" d="M137.9,178.3c1.1-0.2,2.1-0.5,3.2-0.8c3.6-0.5,6.8,1.5,9.9,2.9c1,2.1,1.7,4.3,1.9,6.7
					c-0.8,1.4-1.6,2.7-2.4,4.1c0.6,0.1,1.2,0.2,1.7,0.4c0.8-2.2,1.6-4.3,2.6-6.5c0.9,3.3-1.1,6.5-3.1,9.1c-2.6,1.8-5.7,3.1-8.9,3.1
					c-2.2-0.6-4.5-1.1-6.3-2.5c-1.7-1.4-2.9-3.4-3.3-5.5c-0.5-2.9,0-5.8,0.1-8.7c-2.4,1-4.8,2.1-7.2,2.9c-0.2-0.8-0.4-1.7-0.5-2.5
					c0.4,0.3,0.8,0.7,1.1,1c3.5-0.9,6.8-2,10-3.6c-1.2,2.8-2.8,5.7-2.9,8.8c-0.2,2.3,0.9,4.5,2.4,6.3c2.2,2.1,5.4,2.6,8.4,3
					c0.1-0.6,0.3-1.3,0.4-1.9c-1.4,0-2.7-0.1-4-0.6c-4.3-1.8-6.7-6.7-5.3-10.9c0.5-1.5,1.6-2.8,3-3.8
					C138.5,179,138.2,178.7,137.9,178.3z M138.5,183.6c-0.4,1.3,0.3,2.7,1.1,3.7c0.8,0.4,1.7,0.7,2.5,1c1.4,0.5,2.8,1.1,4.2,1.5
					c0.1,0.6,0.1,1.1,0.1,1.7c0.2-0.5,0.5-1.1,0.5-1.6c0.8-0.6,1.7-1.3,1.9-2.3c0.6-2-0.2-4.3-1.8-5.7c-1.2-1.2-3.1-1.5-4.7-1.5
					C140.6,180.6,139.2,182,138.5,183.6z M150.1,191.5c-1,1.8-3.2,2.4-5.2,2.7c0.7,0.5,1.4,1,2.1,1.5c1.3-1,2.6-2,4.1-2.7
					C150.8,192.4,150.4,191.9,150.1,191.5z"/>
			</g>
		</g>
		<g>
			<path class="st87" d="M103.9,23.7c0.6,0,1.2,0,1.8,0c0.4,11-0.4,22.1,0.4,33.1c4.8-0.2,9.6-0.3,14.3-0.2
				c-0.4-9.1,0.1-18.1-0.3-27.2c0-0.9,0.2-1.7-0.3-2.5c0,0.9,0.2,1.9,0.1,2.8c-0.3,8.5-0.2,17-0.1,25.5c-4.6,0-9.2,0.1-13.8-0.2
				c0.2-10.2,0-20.5,0.1-30.7c5.4-0.5,10.9,0.7,16.2-0.5c-0.2,11.4,0.2,22.7,0,34.1c-6.1,0.1-12.3,0.2-18.4-0.1
				C104.3,46.4,103.8,35,103.9,23.7z"/>
			<path class="st87" d="M137.6,69.4c3.1-12.6,6.2-25.2,9.3-37.9c9.6,4.7,18,11.8,22.8,20.9c1.3,2.5,2.3,5.1,2.9,7.9
				c1.3,5.1,2.2,10.2,2.3,15.5c-3.1,0.1-6.2,0.2-9.1,1.1c0,1.8,0.1,3.7,0.1,5.5c-10.5,0-21,0-31.5,0C135.2,78,136.6,73.8,137.6,69.4
				z"/>
			<path class="st87" d="M57.1,52.6c4.9-8.7,12.7-16.2,22.3-20.4c2.6,10.8,5.5,21.5,8.2,32.3c1.5,6,3.1,12,4.5,18
				c-10.4,0-20.8,0-31.1,0c0.1-1.8,0.2-3.7,0.1-5.5c-3-0.6-6-0.8-9.1-1C52.4,68,53.6,59.9,57.1,52.6z"/>
			<path class="st87" d="M55.9,85c10.6,0.2,21.1-0.2,31.7,0.1c1.8,0.1,3.6,0,5.3,0.2c0.2,0,0.5,0.1,0.6,0.1
				c-0.2,0.5-0.4,1.1-0.6,1.6c-11.4-0.2-22.7,0-34.1-0.1c-0.9,5.7-0.8,11.4-0.9,17.1c0.1,0.4-0.1,0.7-0.4,1c-0.6-0.5-1.1-1-1.7-1.5
				C55.6,97.5,55.9,91.2,55.9,85z"/>
			<path class="st87" d="M136.7,85.2c11.6-0.3,23.1-0.1,34.7,0c-0.3,6.2-0.3,12.5-0.7,18.7c-9.5,6.8-15.9,16.4-21.1,26.3
				c-0.3,0.7-0.2,1.4-0.1,2.2c0.5,4.3,3.2,8.1,4.9,12c-1.9-0.9-3.8-1.9-5.7-2.9c-0.2,0.1-0.3,0.1-0.5,0.2c-2.3-1.3-4.4-2.8-6.9-3.8
				c-0.8-0.3-1.4-0.9-2.2-1.3c-5.3-2.5-10.5-5.3-15.7-8c0-0.1,0.1-0.4,0.1-0.5c0.5-1.9,1-3.9,1.5-5.8c0.8-3.3,1.8-6.6,2-9.9
				c0-1.8,1.2-3.4,1.8-5c0.7-1.7,1.7-3.3,1.9-5.1c0.3-2,0.6-3.9,1-5.9c9.2,2,18.1,4.7,27,7.6c1.9,0.6,3.7,1.3,5.6,1.7
				c1,0.2,2.2,0.3,3.2-0.2c0.7-0.4,1-1.2,1.1-1.9c0.5-4.3-0.1-8.6-0.2-12.9c0-0.9-0.1-1.8-0.5-2.6c-0.2-0.6-0.8-1-1.5-1
				c-11.2-0.1-22.5,0-33.7,0.1c0.2-0.4,0.4-0.8,0.5-1.2c0.3-0.2,0.6-0.4,1-0.5C135.1,85.1,135.9,85.2,136.7,85.2z"/>
			<g>
				<path class="st87" d="M172,85.2c1.2,0,2.5,0,3.7-0.1c0.1,0.5-0.3,1.3,0.1,1.6c1,0.2,1.9,0.6,2.9,0.9c0.5,3,0.5,6.1,0.5,9.2
					c-0.4,4.3-1.3,8.7-0.3,12.9c0.4,1.6,0.8,3.2,0.8,4.8c0,8.2,0,16.4,0,24.6c3.3,2.6,6.5,5.5,8.7,9.1c1.4,2.3,2.4,4.8,2.5,7.4
					c0.3,1,0.7,2,0.8,3.1c0,2.1-0.6,4-1.2,6c-0.1,0.7-0.9,1.1-1.4,1.5c0.2-2.5,0.7-5,0.3-7.5c-0.7-7.6-5.1-15.2-12.3-19
					c0.4-9.4-0.5-18.9,0.4-28.3c0.2-1.4,0.4-2.9,0.3-4.3c-0.1-1.8,0-3.6-0.3-5.4c-0.8-0.5-1.5-1.1-2.3-1.6
					c0.1,10.8,0.4,21.5,0.6,32.3c0,2.2,0.2,4.4,0,6.5c-1.7-0.9-3.3-1.8-5-2.7c-0.1-8.5-0.2-17.1-0.1-25.7c0-0.8-0.1-1.5,0.1-2.3
					c0.3-1.7,1.4-3.1,1.5-4.8C172.3,97.5,171.9,91.3,172,85.2z M175.5,87.2c-0.1,3.9-0.3,7.8-0.2,11.7c0.1-2.8,0.3-5.6,0.3-8.4
					c0-1.1,0.2-2.2,0-3.3C175.7,87.2,175.6,87.2,175.5,87.2z"/>
			</g>
			<path class="st87" d="M51.1,85.2c1.3,0,2.6,0,3.9,0.1c-0.2,6.5-0.1,13-0.6,19.4c0,1.3,1.3,2.1,1.8,3.3c0.2,9.5,0,19-0.1,28.4
				c-1.7,0.9-3.3,1.9-5,2.8c-0.1-2.1-0.3-4.1-0.3-6.2c0-2.4,0.2-4.7,0.2-7.1c0.6-9.9-0.1-19.8,0.5-29.6c0-3.3,0.3-6.6-0.3-9.8
				C51.2,86.1,51.1,85.6,51.1,85.2z"/>
			<path class="st87" d="M49.4,87.3c0.6,1.6,0.9,3.4,0.8,5.2c-0.1,4.3,0,8.6-0.1,12.9c0,4.5-0.3,9-0.3,13.4
				c-0.2,6.9-0.4,13.7-0.2,20.6c0,0.1,0,0.4,0,0.6c-5.9,3.2-10.3,8.8-11.6,15.1c-0.9,3.6-0.4,7.3-0.5,11c-2-3.2-2.4-7-1.8-10.5
				c0.5-2.5,1.2-5.1,2.6-7.3c2.2-3.5,5.3-6.4,8.7-8.9c0.3-9.6-0.5-19.2,0.4-28.8c0.5-0.4,1-0.7,1.4-1.2c0.3-1.3,0.2-2.6,0.2-3.9
				C49.2,99.4,48.3,93.3,49.4,87.3z"/>
			<path class="st87" d="M60.1,106.1c12.8-3.3,25-8.5,38.2-10.1c-0.9,0.5-1.7,1.1-2.6,1.6c1,2.3,2.8,4.4,2.8,7
				c0.1,2.3,0.3,4.7,0.7,6.9c1.4,5.7,2.7,11.3,4.1,17l0,0c-10.5,5.3-20.7,11-31.3,15.9c2.7-4.1,4.9-8.6,5.7-13.3
				c-4.3-8.7-9.7-17-17.2-23.7C59.9,107.2,60.1,106.6,60.1,106.1z"/>
			<path class="st87" d="M57.3,116.4c3.8,2.4,6.1,6.1,8.5,9.6c1.5,2.1,3.1,4.2,4.1,6.5c0.6,1.4,0.6,3.1,0.2,4.6
				c-0.7,2.7-1.9,5.3-2.8,8c-3.7-2.6-7-5.7-9.9-9c-0.5-0.5-0.3-1.2-0.3-1.8C57.3,128.4,57.3,122.4,57.3,116.4z"/>
			<path class="st87" d="M165.4,120.8c0.5-0.6,1.6-0.3,2,0.2c0.9,4.5,1.6,9.2,1.1,13.8c-0.1,0.6-0.7,1-1.1,1.5
				c-1.7,1.5-3.8,2.4-5.7,3.6c-0.4-1.3-1.1-2.5-1.5-3.8c-0.5-1.5,0-3.1,0.5-4.5c0.6-1.7,1.7-3.2,2.4-4.8
				C163.7,124.8,163.5,122.3,165.4,120.8z"/>
			<path class="st87" d="M125.9,131.2c2.7,0.9,5.1,2.7,6,5.3c-1.3-0.3-2.7-0.5-4-0.8C127.1,134.3,126.4,132.8,125.9,131.2z"/>
			<path class="st87" d="M76.8,144.8c9-3.4,18.1-6.8,27.2-10c0.2,3.7,0.7,7.5,0.8,11.2c0.3,4.5,0.4,9,1,13.5
				c0.2,1.2,0.2,2.5,0.9,3.6c1,1.5,2.6,2.6,4,3.7c-1.4,0.7-2.8,1.4-4.3,2.1c-0.1,1.1-0.1,2.2-0.1,3.4c-0.2,1.4-1.4,2.4-2.2,3.5
				c-1.2,1.6-2.3,3.3-2.9,5.1c-0.1,0.3-0.1,0.8-0.4,1c-0.1,0-0.3,0.1-0.4,0.1c-1.9-0.4-3.8-0.8-5.6-1.5c-1-0.4-2-0.8-3.1-0.8
				c-0.8,0-1.4,0.4-2,0.8c1.5,1.1,2.7,2.5,3.2,4.2c0.9,3.1,0,6.6-2.4,9c-1.1,1-2.4,1.9-4,2.1c-3.1,0.5-6.5,0.1-9.1-1.6
				c-0.9-0.9-1.3-2.1-2-3.1c0.8,0.6,1.5,1.2,2.3,1.9c0.8,0.7,2,0.9,3,1.2c2,0.5,4.2,0.5,5.9-0.5c1.6-1,3.1-2.3,3.8-4
				c1.3-3,0.8-6.5-1.1-9.1c-0.9-1.2-2-2.3-3.5-2.8c-2.5-0.5-5.2-0.9-7.8-0.5c-2.5,0.6-4,2.8-5.4,4.7c1.8-1.4,3.5-2.9,5.3-4.2
				c-0.6,1.6-2.2,2.5-2.8,4c-1.5,3-0.9,6.6,0.8,9.3c-0.7-0.2-1.4-0.5-2.1-0.7c-0.5-1.5-1.4-2.8-1.4-4.4c0-1.4-0.1-2.8-0.2-4.2
				c-1.8,4.3-0.3,9.2,2.7,12.7c-4.1-0.1-7.7-2.1-10.6-4.7c-2.2-1.9-3.9-4.2-5.7-6.3c-2.2-2.7-4.8-5.2-6.3-8.3
				c0.8,0.1,1.6,0.1,2.3,0.4c0.7,0.4,1.2,1.1,1.8,1.8c-0.1-1.4,0-2.7,0.4-4c1.2,0.5,2.5,1.1,3.7,1.6c0.3-1.6,0.9-3.3,1-4.9
				c-0.3-1.2-1.5-2-2.5-2.8c-1.6-1.4-4-0.9-6-1.3c-0.2,2.2-0.5,4.6-1.8,6.5c-0.5,0.9-1.3,1.5-2.1,2.2c-0.1-0.3-0.2-0.5-0.4-0.7
				l0-0.1c-0.3-4.4-0.4-8.9,1-13.2c0.2-0.5,0.3-1,0.7-1.4c4-3.6,8.5-6.8,13.4-9.3C68.1,147.8,72.5,146.4,76.8,144.8z"/>
			<g>
				<path class="st87" d="M123.5,135.1c7.9,2.7,15.6,5.7,23.7,8c1.3,0.4,2.4,0.9,3.6,1.4c9,3.7,18.1,8,25.2,14.5
					c0.7,0.6,0.8,1.4,1.1,2.2c1.3,4.3,1,8.8,0.7,13.2c-1,0.1-2,0-3,0.4c-0.7,0.5-1.2,1.3-1.6,2c-2.4,3.6-3.8,7.7-6.6,11
					c-2.4,2.9-5.9,4.7-9,6.8c-0.8-0.3-1.7-0.5-2.5-0.8c-1.1,0.6-2.3,1.2-3.4,1.8c0-0.5,0-0.9,0-1.4c2-2.6,3.9-5.8,3.1-9.1
					c-1,2.1-1.8,4.3-2.6,6.5c-0.6-0.1-1.2-0.2-1.7-0.4c0.8-1.4,1.6-2.7,2.4-4.1c-0.2-2.3-1-4.5-1.9-6.7c1,0.2,1.9,0.3,2.9,0.4
					c-1.6-1.5-3.2-3.4-5.5-4c-2.4-0.4-4.9,0.3-7.2,0.8c-1.1,0.2-2.1,0.5-3.2,0.8c0.3,0.4,0.6,0.7,0.9,1.1c-1.4,1-2.5,2.2-3,3.8
					c-1.4,4.2,1,9.1,5.3,10.9c1.2,0.5,2.6,0.6,4,0.6c-0.1,0.6-0.3,1.3-0.4,1.9c-3-0.4-6.2-0.9-8.4-3c-1.6-1.7-2.6-4-2.4-6.3
					c0.2-3.1,1.7-5.9,2.9-8.8c-3.2,1.5-6.6,2.7-10,3.6c-0.4-0.3-0.8-0.7-1.1-1l0.2,0.1c-0.4-0.4-0.7-0.9-1.1-1.3
					c-1.1-1.4-1.7-3-2.6-4.5c-0.6-1.1-1.3-2.1-1.7-3.2c-0.2-3.1,0.6-6.1,1-9.1c0.2-2.2,0.4-4.5-0.3-6.6c-1.2-0.7-2.6-1.1-3.9-1.4
					c0.1-0.1,0.3-0.3,0.4-0.4c1.4-1.2,3.1-2.1,4.8-3C122.4,146,122.9,140.6,123.5,135.1z M152.7,183.2c0.5,0.2,0.9,0.4,1.4,0.6
					c0.2-0.2,0.4-0.4,0.7-0.6c-0.2-0.3-0.3-0.6-0.5-0.9c-0.4,0-0.7,0-1.1,0C153,182.6,152.9,182.9,152.7,183.2z"/>
			</g>
			<path class="st87" d="M84.6,140.4c1.7-1.9,4-3.7,6.8-3.8C90.1,138.9,87.3,140.1,84.6,140.4z"/>
			<g>
				<path class="st87" d="M51.3,140.2c1.6-1.2,3.4-2.2,5.3-3c3.8,3.5,7.8,6.7,11.8,9.9c-7.2,2.6-13.8,6.7-19.3,11.8
					c-0.6,0.6-0.8,1.5-1.1,2.2c-1.3,4-0.8,8.2-0.8,12.3c-0.7-0.3-1.2-0.7-1.7-1.3c-1.7-2.2-3.7-4.1-5.9-5.9c-1.4-2.7-0.9-5.9-1-8.8
					c-0.1-1.4,0-2.8,0.5-4.2c1-2.8,2.9-5.1,4.7-7.5c1.1,0.3,2.3,0.7,3.4,1c-0.1-1.3-0.2-2.6-0.3-3.9c1.2-0.3,2.4-1.4,3.8-1
					c2.3,3,3.8,6.4,5.7,9.6C55.8,147.3,52.7,144.1,51.3,140.2z M52.4,148.2c-1.2,1.4-2.4,2.7-3.5,4.1c-0.4-0.8-0.9-1.7-1.3-2.5
					c-0.8,0.8-1.5,1.6-2.3,2.4c0.8,0.4,1.7,0.8,2.5,1.2c-0.5,0.4-1.1,0.8-1.5,1.3c-0.2,0.5-0.3,1-0.5,1.5c2.8-2.5,5.4-5.2,8.3-7.5
					C53.5,148.5,52.9,148.4,52.4,148.2z"/>
			</g>
			<path class="st87" d="M158.5,146.7c4.5-2.6,7.6-6.8,12-9.4c1.8,0.6,3.4,1.7,4.9,2.8c-1.6,3.7-3.8,7.1-5.7,10.7
				c0.9-0.9,1.7-2,2.5-3c2.9,2.9,5.7,5.9,9.1,8.3c-1.3-1.7-2.4-3.4-3.7-5c-1.6-1.3-3.5-2.3-5.2-3.5c1.1-2.2,2.3-4.3,3.7-6.3
				c3.4,1.2,5.9,3.8,8.1,6.5c-0.4,0.1-0.8,0.2-1.1,0c-2.5-1.1-3.8-3.6-6.3-4.8c-0.2,1-0.5,2.1-0.7,3.1c0.9,0.6,2.1,0.9,2.8,1.7
				c0.8,0.9,1.7,1.7,2.5,2.6c-1.4-0.6-3.1-0.9-4.1-2.1c-1-1.1-2.5-1.8-4-2.1c1.2,1.2,2.5,2.4,3.7,3.6c1.1,1.1,2.6,1.9,3.9,2.8
				c1-1.3,2.4-2.3,3.8-3.2c1.2,0.3,1.9,1.2,2.2,2.3c0.3,1.1,0.5,2.2,0.6,3.3c-0.2,2.2-0.6,4.5-1.6,6.6c-0.7,1.5-2.2,2.5-3.1,4
				c-1,1.6-1.5,3.5-2.1,5.2c-0.5-1.7-0.8-3.5-1.2-5.2c-0.4-1.8-0.6-3.7-1.2-5.4c-0.3-1-1.2-1.6-1.9-2.2
				C171.2,153.1,164.9,149.7,158.5,146.7z"/>
			<path class="st87" d="M142.2,182.8c1.2,0.2,2.4,0.6,3.6,1c0.7,1.9,1,4,1.2,6c0,0.6-0.3,1.1-0.5,1.6c-0.1-0.6-0.1-1.1-0.1-1.7
				c-0.2-1.7-0.7-3.4-1.1-5C144.2,184.1,143.2,183.5,142.2,182.8z"/>
			<path class="st87" d="M150.1,191.5c0.3,0.5,0.6,1,1,1.5c-1.5,0.7-2.8,1.7-4.1,2.7c-0.7-0.5-1.4-1-2.1-1.5
				C146.9,193.9,149.1,193.3,150.1,191.5z"/>
		</g>
		<g>
			<path class="st88" d="M124.3,27.1c7.8-0.3,15.4,1.7,22.6,4.4l0,0c-3.1,12.6-6.2,25.2-9.3,37.9c-1,4.3-2.3,8.6-3.2,12.9
				c-14.1,0-28.2,0-42.3,0c-1.4-6-3-12-4.5-18c-2.7-10.8-5.6-21.5-8.2-32.3c1.2-0.6,2.2-1.6,3.7-1.6c1.3,0,2.2-0.9,3.5-1.2
				c0.7-0.2,1.5-0.2,2.2-0.4c4.5-1.3,9.2-1.6,13.9-1.7c0.4,4.9,0,9.9,0.2,14.8c0.1,5.6,0,11.1,0.2,16.7c6.5,0.3,13.1,0.2,19.7,0.2
				c0.3-0.1,0.8,0.1,1.1-0.1c0.2-1.1,0.2-2.2,0.2-3.3c0-5.2,0.1-10.5,0-15.7c0-1,0-2.1,0.1-3.1c0.3-2.5,0.2-5.1,0.1-7.6
				C124.1,28.4,124.2,27.8,124.3,27.1z"/>
			<path class="st88" d="M92.9,85.3c3.2-0.4,6.4-0.2,9.6-0.5c8.8,0,17.5,0,26.3,0c1.8,0,3.7,0.2,5.5,0.5c-0.3,0.2-0.6,0.3-1,0.5
				c-0.2,0.4-0.4,0.8-0.5,1.2c-2-0.2-4.1,0-6.2,0c-11.2,0.1-22.5,0-33.7,0c0.2-0.5,0.4-1.1,0.6-1.6C93.4,85.4,93.1,85.4,92.9,85.3z"
				/>
			<path class="st88" d="M114.4,90.5c0-0.9,0.7-1.6,1.3-2.3c0.1,3.3-0.4,6.6-0.1,9.9c0.2,4.1-0.1,8.1-0.2,12.1
				c0,4.4-0.2,8.8,0.5,13.1c1.1-3.3,1.7-6.6,2-10.1c0.2-2,0.6-4.1,0.9-6.1c0.5,0.3,0.9,0.5,1.4,0.8c0.4-4.1,1.6-8,2.9-11.9
				c1.3-0.3,2.7-0.9,4.1-0.8c1.5,0.1,3,0.5,4.5,0.8l0,0.1c-0.3,2-0.6,3.9-1,5.9c-0.2,1.8-1.3,3.4-1.9,5.1c-0.6,1.7-1.8,3.2-1.8,5
				c-0.3,3.4-1.2,6.7-2,9.9c-0.5,1.9-0.9,3.9-1.5,5.8c-2-0.7-3.9-1.2-5.9-1.8c0,0.2-0.1,0.7-0.1,0.9c0.1,0.1,0.3,0.2,0.5,0.3
				c-0.8-0.2-1.6-0.4-2.4-0.7c0.1-0.4,0.3-0.8,0.4-1.2c-0.9-1.1-1.8-2.4-1.7-3.9C114.6,111.3,114,100.9,114.4,90.5z"/>
			<path class="st88" d="M98.3,96c1.3-0.6,2.8-0.6,4.2-0.8c2.1,2,2.8,4.9,2.7,7.6c-0.1,1.1,0,2.1,0.1,3.2c0.3,0,0.6,0.1,0.9,0.1
				c1.1,2.6,1.3,5.5,1.5,8.3c0.8,3.5,1.8,7,1.9,10.6c-1.6,1.8-4.2,2.3-6.4,3.4c-1.4-5.7-2.7-11.3-4.1-17c-0.4-2.3-0.6-4.6-0.7-6.9
				c0-2.6-1.8-4.7-2.8-7C96.5,97.1,97.4,96.6,98.3,96z"/>
			<path class="st88" d="M104,134.8c6.3-1.8,13.2-1.2,19.5,0.3c-0.5,5.5-1.1,11-1.2,16.5c-1.6,0.9-3.3,1.8-4.8,3
				c-3.3,1.5-6.8,2.7-9.9,4.5c2.5-0.5,5-1.4,7.7-1c-0.9,1.5-2.2,2.7-3.1,4.2c-0.5,0.8-0.7,2,0,2.8c0.7,0.7,1.7,1.4,2.9,1.4
				c1.5-0.1,2.5-1.3,3-2.5c0.5-1,0.6-2.1,0.5-3.2c-1.3-0.9-2.7-2.1-2.8-3.7c-0.1-0.9,0.7-1.6,1.3-2.2c1.3,0.4,2.7,0.7,3.9,1.4
				c0.8,2.1,0.6,4.4,0.3,6.6c-0.4,3-1.2,6-1,9.1c-4.7,0.8-9.4,0.4-14.1,0.2c0.1-1.1,0.1-2.2,0.1-3.4c1.4-0.7,2.8-1.4,4.3-2.1
				c-1.5-1.1-3.1-2.1-4-3.7c-0.7-1.1-0.8-2.4-0.9-3.6c-0.5-4.5-0.7-9-1-13.5C104.6,142.2,104.2,138.5,104,134.8z"/>
			<path class="st88" d="M108.8,173.4c2.8,0,5.6,0,8.4,0c-0.3,1.8-1.9,2.9-3.3,3.9c1.3,0.7,2.6,1.3,4,1.8c0.1,0.9,0.1,1.9-0.5,2.7
				c-1,1.4-2.7,2.2-4.2,2.9c-0.7-0.7-1.3-1.5-1.2-2.5c0-1.7,0.5-3.5,0.2-5.2C110.7,176.1,109.6,174.8,108.8,173.4z"/>
			<path class="st88" d="M141,177.6c2.4-0.6,4.8-1.2,7.2-0.8c2.3,0.6,3.9,2.5,5.5,4c-1-0.1-1.9-0.2-2.9-0.4
				C147.8,179,144.6,177.1,141,177.6z"/>
			<path class="st88" d="M86.4,180.7c1.2,1.6,2.2,3.3,3,5.1c-0.7,0.6-1.3,1.7-2.4,1.6c-1.7-0.1-3.4,0.6-4.6,1.6
				c-0.8,0.7-1.3,1.7-1.8,2.6c-1.9-1.3-3.1-3.4-3-5.6c0-1.4,0.7-2.7,1.8-3.6c0.1,1.3,0.1,2.6,0.3,3.9c0.1,1,0.8,1.7,1.5,2.5
				c0.5-1.1,0.9-2.3,1.2-3.4c1.6-0.3,3.2-0.6,4.8-1c-0.5-0.6-1-1.3-1.6-1.9C85.8,181.9,86.1,181.3,86.4,180.7z"/>
			<path class="st88" d="M103.2,186.1c0.7,0.1,1.4,0.3,2.1,0.4l0.1,0c0.8,0.7,1.4,2,2.6,1.9c0.7-0.7,1.2-1.8,2.3-2
				c2.2-0.4,4.5,0.4,6.7-0.2c0.3,0.6,0.5,1.4,1.3,1.6c1.6,0.3,3.1-0.4,4.6-0.5c-0.4,1.1-1.2,2.4-2.6,2.6c-4.6,0.8-9.4,0.6-14,0.3
				c-0.4-0.1-0.8-0.1-1-0.4C104.6,188.5,103.9,187.3,103.2,186.1z"/>
		</g>
		<g>
			<path class="st89" d="M124.1,29c0.2,2.5,0.2,5.1-0.1,7.6C124,34.1,123.8,31.6,124.1,29z"/>
			<path class="st89" d="M180.2,93c0.8,0.3,1.7,0.6,2.4,1c0.5,3.1,0.2,6.3-0.4,9.4c-0.7-1.5-1.1-3.1-1.7-4.6
				c-0.5,2.7,0.2,5.5-0.4,8.2c-0.2,1-0.8,1.8-1.1,2.7c-1-4.3-0.1-8.6,0.3-12.9C179.6,95.5,179.9,94.2,180.2,93z"/>
			<path class="st89" d="M44.6,95.4c0.2-0.9,0.6-1.7,1.2-2.4c0.1,3.3,0.1,6.6-0.1,9.8c-0.2,0-0.7,0-0.9,0
				C44.9,100.4,44.2,97.9,44.6,95.4z"/>
			<path class="st89" d="M39.7,166.2c2.2,1.8,4.2,3.7,5.9,5.9c0.4,0.6,1,1,1.7,1.3c0.2,0.1,0.4,0.2,0.4,0.4c0.2,1.5,0.1,2.9,0.2,4.4
				c-2.8-2-5.5-4.3-7-7.3C40,169.5,39.6,167.8,39.7,166.2z"/>
			<path class="st89" d="M101.2,180.9c0.6-1.9,1.7-3.6,2.9-5.1c0.5,0.4,1.2,0.9,1.2,1.6c-0.1,1.6-1.2,2.9-1.8,4.3
				c0.8,1.5,1.7,3,1.8,4.7c-0.7-0.1-1.4-0.3-2.1-0.4c-1.3-0.3-2.7-0.3-4-0.4c-0.9,4.2-2.7,8.5-6.1,11.5c-1.3,1.1-2.7,2.1-4.4,2.5
				l-0.2-0.1c0.2-1.4,0.8-2.6,1.3-3.9c2.9-2.3,4.3-6,4.3-9.5c0.1-1.7-0.2-3.5-0.6-5.2c2.5,0.9,5,1.8,7.4,2.8
				c-0.1-0.5,0.1-1.1-0.1-1.6c-0.1,0-0.3-0.1-0.4-0.2c0.1,0,0.3-0.1,0.4-0.1C101.1,181.7,101.1,181.3,101.2,180.9z"/>
			<path class="st89" d="M122.6,178.4c0.7,0.5,1.3,1.1,2.1,1.4c0.3,0.4,0.7,0.9,1.1,1.3l-0.2-0.1c0.2,0.8,0.3,1.7,0.5,2.5
				c2.5-0.9,4.8-2,7.2-2.9c-0.1,2.9-0.6,5.8-0.1,8.7c0.3,2.1,1.6,4.1,3.3,5.5c1.8,1.4,4.1,1.9,6.3,2.5c0.3,0.6,0.5,1.2,0.8,1.8
				c3.4,1,7,0.4,10.2-0.7c2.3-0.7,4.7-1.3,6.7-2.6c3.6-2.2,6.1-5.7,9.4-8.1c0.6-0.5,1.5-0.2,2.2-0.2c-2.3,4-5.4,7.6-9.3,10.3
				c-3.6,2.4-7.9,4.1-12.3,4.1c-4,0.2-8.3,0.3-11.9-1.5c-2.1-1.2-4.2-2.5-5.8-4.3c-2.8-3.1-4.3-7-5.4-10.8c-2.1,0.4-4.2,1.1-6.3,1.7
				c0.3-1.9,1.2-3.6,1.6-5.4C123,180.6,122.9,179.5,122.6,178.4z"/>
			<path class="st89" d="M138.5,183.6c0.6-1.6,2.1-3,3.9-3.3c1.7,0,3.5,0.3,4.7,1.5c1.5,1.5,2.3,3.7,1.8,5.7c-0.3,1-1.1,1.7-1.9,2.3
				c-0.2-2-0.5-4.1-1.2-6c-1.2-0.4-2.4-0.8-3.6-1c1,0.7,2,1.3,3.1,1.9c0.4,1.7,0.9,3.3,1.1,5c-1.5-0.4-2.8-1-4.2-1.5
				c-0.8-0.3-1.7-0.6-2.5-1C138.8,186.2,138.1,184.9,138.5,183.6z"/>
			<path class="st89" d="M79.4,181.9c2.1-1.2,4.7-1.7,7.1-1.1c-0.3,0.6-0.6,1.2-0.8,1.7c0.5,0.6,1,1.2,1.6,1.9
				c-1.6,0.4-3.2,0.6-4.8,1c-0.3,1.2-0.7,2.3-1.2,3.4c-0.6-0.7-1.4-1.5-1.5-2.5c-0.1-1.3-0.1-2.6-0.3-3.9
				C79.4,182.3,79.4,182,79.4,181.9z"/>
			<path class="st89" d="M152.7,183.2c0.2-0.3,0.3-0.6,0.5-0.9c0.4,0,0.7,0,1.1,0c0.2,0.3,0.3,0.6,0.5,0.9c-0.2,0.2-0.4,0.4-0.7,0.6
				C153.6,183.6,153.2,183.4,152.7,183.2z"/>
		</g>
		<g>
			<path class="st90" d="M167.1,77.7c2.2-0.1,4.5-0.2,6.7-0.2c0,1.6,0,3.1,0,4.7c-2.2,0.1-4.4,0.1-6.7,0.1
				C167.1,80.8,167.1,79.3,167.1,77.7z"/>
			<path class="st90" d="M52.9,77.7c2.3,0,4.5,0.1,6.8,0.2c0,1.5,0,3,0,4.5c-2.3,0-4.6,0-7,0C52.8,80.8,52.9,79.2,52.9,77.7z"/>
			<path class="st90" d="M47.4,87.9c1.3-0.5,2.6-0.9,3.9-1.3c0.5,3.2,0.2,6.5,0.3,9.8c-0.6,9.9,0.1,19.8-0.5,29.6
				c0,2.4-0.2,4.7-0.2,7.1c0,2.1,0.1,4.1,0.3,6.2c0,0.2,0,0.6,0.1,0.7c-0.5-0.2-1-0.3-1.4-0.5c-0.2-6.9,0.1-13.7,0.2-20.6
				c0-4.5,0.2-9,0.3-13.4c0.1-4.3,0-8.6,0.1-12.9c0-1.7-0.2-3.5-0.8-5.2c-1.2,6-0.2,12.1-0.3,18.1c0,1.3,0.1,2.6-0.2,3.9
				c-0.4,0.5-0.9,0.8-1.4,1.2C46.7,103,46.9,95.4,47.4,87.9z"/>
			<path class="st90" d="M115.6,88c1.2,0,2.4,0.1,3.6,0.1c-0.4,6.4,0.3,12.8-0.4,19.1c-0.4,2-0.8,4-0.9,6.1c-0.3,3.4-0.9,6.8-2,10.1
				c-0.7-4.3-0.5-8.7-0.5-13.1c0.1-4,0.4-8.1,0.2-12.1c-0.3-3.3,0.2-6.6,0.1-9.9V88z"/>
			<path class="st90" d="M175.3,100.2c0.8,0.5,1.5,1,2.3,1.6c0.3,1.8,0.2,3.6,0.3,5.4c0.1,1.4-0.2,2.9-0.3,4.3
				c-0.9,9.4,0,18.9-0.4,28.3c-0.4-0.2-0.8-0.4-1.2-0.6l0,0c0.2-2.2,0-4.4,0-6.5C175.7,121.8,175.4,111,175.3,100.2z"/>
			<g>
				<path class="st90" d="M154,126.7c4.1-7.1,9.4-13.7,16-18.9c0,3.5,0.1,7-0.1,10.5c0.3,5.7,0.1,11.4,0,17.1
					c-3.2,4.2-7.6,7.3-11.5,10.9c-3.3-3-5-7.2-6.4-11.3c-0.3-0.9-0.8-1.8-0.6-2.8C151.9,130.3,153,128.5,154,126.7z M165.4,120.8
					c-1.9,1.5-1.7,4-2.4,6c-0.7,1.7-1.8,3.1-2.4,4.8c-0.5,1.4-1,3-0.5,4.5c0.4,1.3,1.1,2.5,1.5,3.8c1.9-1.2,4-2.1,5.7-3.6
					c0.4-0.4,1-0.9,1.1-1.5c0.5-4.6-0.2-9.2-1.1-13.8C167,120.5,165.9,120.2,165.4,120.8z"/>
			</g>
			<path class="st90" d="M57.3,108.3c7.5,6.3,13.4,14.1,17.6,22.6c0.6,1.2,0.5,2.6,0.1,3.8c-0.8,2.4-1.9,4.8-3,7.1
				c-0.8,1.6-1.8,3.1-3.1,4.3c-0.6,0-1.2-0.1-1.8-0.1c0.1-0.3,0.2-0.6,0.3-0.9c0.8-2.7,2.1-5.3,2.8-8c0.4-1.5,0.4-3.1-0.2-4.6
				c-1-2.4-2.6-4.4-4.1-6.5c-2.5-3.4-4.8-7.2-8.5-9.6C57.2,113.7,57.2,111,57.3,108.3z"/>
			<path class="st90" d="M107.3,128.1c2.2-1.8,5.5-2.3,8.3-1.4c0.8,0.2,1.6,0.4,2.4,0.7c0.5,0.1,1.1,0.3,1.6,0.4
				c0.6,1.9,1.2,3.8,1.9,5.7c-5.3-1.4-11.1-1.6-16.3,0.3C105.9,132,106.4,130,107.3,128.1z"/>
			<path class="st90" d="M94.7,137.2c0.7-3.1,3.3-5.7,6.7-6.2c-0.7,1.5-1.2,3.2-2.1,4.6C97.8,136.2,96.2,136.7,94.7,137.2z"/>
			<path class="st90" d="M136.7,137.1c1.9,0.1,4.2,0.9,4.8,2.9C139.4,140.1,137,139.2,136.7,137.1z"/>
			<path class="st90" d="M107.6,159.1c3.2-1.8,6.6-3,9.9-4.5c-0.1,0.1-0.3,0.3-0.4,0.4c-0.6,0.6-1.4,1.3-1.3,2.2
				c0,1.6,1.5,2.8,2.8,3.7c0,1.1,0,2.2-0.5,3.2c-0.6,1.2-1.6,2.4-3,2.5c-1.1,0-2.1-0.6-2.9-1.4c-0.7-0.8-0.5-1.9,0-2.8
				c0.9-1.5,2.2-2.7,3.1-4.2C112.6,157.7,110.1,158.6,107.6,159.1z"/>
			<path class="st90" d="M187.7,154.9c0.1-0.1,0.2-0.3,0.3-0.4c0.7,4.6,0.4,9.3-1.3,13.7c-1.4,3.7-3.8,7.1-7.2,9.4
				c-0.1-4.1,0.1-8.2,0.1-12.2c0.4,1.7,0.7,3.5,1.2,5.2c0.7-1.8,1.1-3.6,2.1-5.2c0.9-1.4,2.4-2.4,3.1-4
				C187.1,159.4,187.5,157.1,187.7,154.9z"/>
			<path class="st90" d="M53.2,166c2,0.4,4.3-0.1,6,1.3c1,0.8,2.2,1.5,2.5,2.8c-0.1,1.7-0.7,3.3-1,4.9c-1.3-0.5-2.5-1-3.7-1.6
				c-0.5,1.3-0.5,2.7-0.4,4c-0.5-0.6-1-1.3-1.8-1.8c-0.7-0.3-1.5-0.3-2.3-0.4c1.5,3.1,4.1,5.6,6.3,8.3c1.8,2.2,3.6,4.4,5.7,6.3
				c2.8,2.6,6.5,4.6,10.6,4.7c4.2,2.7,10,3.4,14.7,1.2c-0.5,1.3-1.1,2.5-1.3,3.9c0,0.2-0.1,0.6-0.1,0.8c-3.7,1.6-7.9,1.5-11.9,1.4
				c-1.4-0.1-2.9,0.1-4.1-0.6c-1-0.6-2.4-0.3-3.4-0.9c-1.2-0.6-2.4-1.3-3.7-1.9c-1.5-0.7-2.7-1.8-4-2.9c-2.2-2-4.2-4.1-5.7-6.6
				c-2-3.2-4.3-6.3-5.6-9.8c-0.7-1.7-0.9-3.5-1.3-5.3c0,0,0.1,0,0.2,0c0.2,0.2,0.3,0.5,0.4,0.7c0.8-0.7,1.6-1.3,2.1-2.2
				C52.7,170.5,53,168.2,53.2,166z"/>
			<path class="st90" d="M174.8,174.7c0.9-0.4,2-0.3,3-0.4c-0.4,4.8-3.8,8.8-5.6,13.2c-0.7-0.1-1.6-0.4-2.2,0.2
				c-3.4,2.5-5.9,5.9-9.4,8.1c-2,1.3-4.4,1.9-6.7,2.6c-3.3,1-6.9,1.7-10.2,0.7c-0.3-0.6-0.5-1.2-0.8-1.8c3.2,0,6.3-1.3,8.9-3.1
				c0,0.5,0,0.9,0,1.4c1.1-0.6,2.2-1.2,3.4-1.8c0.8,0.3,1.6,0.5,2.5,0.8c3.1-2.1,6.6-3.9,9-6.8c2.7-3.4,4.2-7.5,6.6-11
				C173.7,176.1,174.1,175.3,174.8,174.7z"/>
		</g>
	</g>
</g>
<g id="_x35_">
</g>
<g id="_x36_">
</g>
<g id="_x37_">
</g>
<g id="_x38_">
</g>
<g id="_x39_">
</g>
<g id="_x31_0">
</g>
<g id="_x31_1">
</g>
<g id="_x31_2">
</g>
<g id="_x31_3">
</g>
<g id="_x31_4">
</g>
</svg>
